<?xml version="1.0" encoding="utf-8"?>
<!-- Generator: Adobe Illustrator 26.1.0, SVG Export Plug-In . SVG Version: 6.00 Build 0)  -->
<svg version="1.1" id="レイヤー_1" xmlns="http://www.w3.org/2000/svg" xmlns:xlink="http://www.w3.org/1999/xlink" x="0px"
	 y="0px" viewBox="0 0 793.7 198.43" style="enable-background:new 0 0 793.7 198.43;" xml:space="preserve">
<g>
	<path d="M343.79,16.1c-0.1,0-0.2,0-0.3,0c-0.01,0-0.03,0-0.04,0c-9.82,0-19.69,0.18-29.64,0.53l0.86,24.99
		c9.83-0.34,19.63-0.51,29.12-0.51L343.79,16.1L343.79,16.1z M283.84,18.13c-9.91,0.65-19.89,1.45-29.91,2.39l2.33,24.89
		c9.86-0.92,19.69-1.71,29.21-2.33L283.84,18.13L283.84,18.13z M224.11,23.7c-6.34,0.75-12.7,1.56-19.08,2.41c0,0-0.01,0-0.01,0
		c-0.1,0.01-0.21,0.03-0.32,0.04c-0.01,0-0.01,0-0.02,0c-0.11,0.01-0.21,0.03-0.32,0.04c0,0-0.01,0-0.01,0
		c-0.1,0.01-0.19,0.03-0.29,0.04c-0.02,0-0.05,0.01-0.07,0.01c-0.19,0.03-0.4,0.05-0.6,0.08c-0.03,0-0.06,0.01-0.09,0.01
		c-0.06,0.01-0.14,0.02-0.2,0.03c-0.04,0.01-0.07,0.01-0.11,0.02c-0.09,0.01-0.17,0.02-0.26,0.04c-0.04,0.01-0.08,0.01-0.12,0.02
		c-0.06,0.01-0.11,0.01-0.17,0.02c-0.04,0.01-0.09,0.01-0.13,0.02c-0.08,0.01-0.17,0.02-0.26,0.03c-0.04,0.01-0.09,0.01-0.13,0.02
		c-0.05,0.01-0.11,0.01-0.15,0.02c-0.05,0.01-0.11,0.01-0.16,0.02c-0.03,0-0.07,0.01-0.1,0.01c-0.1,0.01-0.21,0.03-0.31,0.04
		c-0.03,0-0.06,0.01-0.1,0.01c-0.06,0.01-0.12,0.02-0.18,0.02c-0.03,0-0.06,0.01-0.09,0.01c-0.21,0.03-0.41,0.06-0.62,0.09
		c-0.01,0-0.03,0-0.04,0.01c-1.93,0.27-3.87,0.54-5.81,0.81l3.51,24.75c9.86-1.4,19.68-2.68,29.19-3.81L224.11,23.7L224.11,23.7z
		 M164.7,32.09c-0.31,0.05-0.61,0.1-0.92,0.15l0,0c-0.28,0.05-0.57,0.09-0.85,0.14c-0.06,0.01-0.1,0.02-0.16,0.03
		c-0.08,0.01-0.16,0.03-0.24,0.04c-0.07,0.01-0.13,0.02-0.2,0.03c-0.04,0.01-0.07,0.01-0.11,0.02c-0.18,0.03-0.36,0.06-0.54,0.09
		c-0.02,0-0.04,0.01-0.05,0.01c-0.11,0.02-0.21,0.04-0.32,0.05c0,0-0.01,0-0.01,0c-8.01,1.32-16.04,2.7-24.1,4.14c0,0-0.01,0-0.01,0
		c-0.32,0.06-0.64,0.12-0.96,0.17c-0.02,0-0.04,0.01-0.07,0.01c-0.09,0.02-0.17,0.03-0.26,0.05c-0.05,0.01-0.11,0.02-0.16,0.03
		c-0.08,0.01-0.14,0.03-0.22,0.04c-0.09,0.02-0.19,0.03-0.28,0.05c-0.04,0.01-0.08,0.01-0.11,0.02l4.44,24.6
		c9.84-1.78,19.65-3.46,29.13-4.99L164.7,32.09L164.7,32.09z M105.66,42.73c-0.01,0-0.03,0.01-0.05,0.01
		c-0.12,0.02-0.25,0.05-0.37,0.07c-0.02,0-0.04,0.01-0.07,0.01c-0.29,0.06-0.58,0.11-0.87,0.17c-0.01,0-0.03,0.01-0.04,0.01
		c-0.13,0.03-0.26,0.05-0.39,0.08c-0.02,0-0.04,0.01-0.07,0.01c-0.29,0.06-0.59,0.12-0.88,0.17c-0.01,0-0.01,0-0.02,0
		c-0.14,0.03-0.27,0.05-0.41,0.08c-0.02,0-0.03,0.01-0.06,0.01c-0.29,0.06-0.58,0.12-0.87,0.17c-0.02,0-0.04,0.01-0.06,0.01
		c-0.12,0.02-0.25,0.05-0.37,0.07c-0.02,0-0.06,0.01-0.08,0.02c-0.28,0.06-0.57,0.11-0.85,0.17c-0.03,0.01-0.06,0.01-0.09,0.02
		c-0.11,0.02-0.23,0.05-0.34,0.07c-0.04,0.01-0.07,0.01-0.11,0.02c-0.12,0.02-0.24,0.05-0.36,0.07c-0.02,0-0.04,0.01-0.06,0.01
		c-0.13,0.03-0.26,0.05-0.4,0.08c-0.05,0.01-0.11,0.02-0.16,0.03c-0.08,0.02-0.16,0.03-0.24,0.05c-0.06,0.01-0.13,0.03-0.2,0.04
		c-0.07,0.01-0.14,0.03-0.22,0.04c-0.11,0.02-0.22,0.04-0.32,0.07c-0.07,0.01-0.14,0.03-0.21,0.04c-0.08,0.02-0.15,0.03-0.23,0.05
		c-0.05,0.01-0.11,0.02-0.16,0.03c-0.09,0.02-0.16,0.03-0.25,0.05c-0.03,0.01-0.07,0.01-0.1,0.02c-0.31,0.06-0.61,0.12-0.91,0.18
		c-0.03,0.01-0.05,0.01-0.08,0.02c-0.44,0.09-0.89,0.18-1.34,0.27c0,0,0,0-0.01,0c-4.91,0.99-9.83,2.01-14.76,3.04
		c-0.02,0-0.05,0.01-0.07,0.01c-0.07,0.02-0.16,0.03-0.23,0.05c-0.07,0.01-0.13,0.03-0.2,0.04c-0.06,0.01-0.13,0.03-0.19,0.04
		c-0.28,0.06-0.56,0.12-0.84,0.18l-0.02,0c-0.61,0.13-1.22,0.26-1.83,0.39l5.17,24.46c9.83-2.08,19.61-4.07,29.05-5.93L105.66,42.73
		L105.66,42.73z M46.95,55.11c-0.04,0.01-0.09,0.02-0.14,0.03c-0.07,0.02-0.14,0.03-0.21,0.05c-0.06,0.01-0.11,0.02-0.17,0.04
		c-0.13,0.03-0.25,0.06-0.38,0.08c-0.01,0-0.01,0-0.02,0c-0.15,0.03-0.3,0.07-0.45,0.1l-0.02,0c-0.15,0.03-0.29,0.07-0.44,0.1
		l-0.01,0c-7.14,1.6-14.29,3.24-21.45,4.91c-0.01,0-0.03,0.01-0.04,0.01c-0.11,0.03-0.23,0.05-0.34,0.08
		c-0.05,0.01-0.1,0.02-0.15,0.04c-0.09,0.02-0.17,0.04-0.25,0.06c-0.06,0.01-0.12,0.03-0.18,0.04c-0.01,0-0.02,0-0.03,0.01
		c-0.22,0.05-0.42,0.1-0.64,0.15c-0.01,0-0.02,0-0.03,0.01c-1.43,0.33-2.85,0.67-4.28,1l3.76,16.02H0v30h25V85.79
		c9.31-2.18,18.52-4.3,27.41-6.29L46.95,55.11L46.95,55.11z M25,137.84H0v30h14.55c-4.84,1.44-9.71,2.91-14.55,4.4v26.19l0,0l0,0
		l0,0l0,0l0,0l0,0l0,0c0.63-0.2,1.24-0.39,1.87-0.59h0c0.47-0.15,0.95-0.3,1.42-0.44c0.01,0,0.02,0,0.02-0.01
		c5.99-1.87,11.99-3.7,18-5.48l0.02-0.01c0.12-0.03,0.23-0.07,0.35-0.1c0.01,0,0.01,0,0.02-0.01c0.46-0.14,0.92-0.27,1.39-0.41
		c0.03-0.01,0.07-0.02,0.1-0.03c0.09-0.03,0.18-0.05,0.27-0.08c0.05-0.01,0.1-0.03,0.14-0.04c0.08-0.02,0.16-0.05,0.25-0.07
		c0.05-0.02,0.12-0.04,0.17-0.05c0.07-0.02,0.14-0.04,0.22-0.06c0.08-0.02,0.17-0.05,0.26-0.08c0.05-0.01,0.09-0.03,0.14-0.04
		c0.13-0.04,0.27-0.08,0.4-0.12c0.04-0.01,0.08-0.02,0.12-0.03c0.1-0.03,0.2-0.06,0.3-0.09c0.04-0.01,0.08-0.02,0.12-0.03
		c0.1-0.03,0.21-0.06,0.31-0.09c0.03-0.01,0.06-0.02,0.1-0.03c0.12-0.04,0.24-0.07,0.36-0.11c0.02,0,0.03-0.01,0.05-0.01
		c0.58-0.17,1.17-0.34,1.75-0.51l-6.42-22.06H25V137.84L25,137.84z M80.22,150.14c-9.84,2.39-19.81,4.92-29.62,7.54l6.44,24.16
		c9.66-2.58,19.35-5.05,29.07-7.4L80.22,150.14L80.22,150.14z M139.97,137.1c-9.95,1.93-20.02,4.01-29.95,6.18l5.33,24.42
		c9.77-2.13,19.56-4.15,29.38-6.06L139.97,137.1L139.97,137.1z M200.26,126.84c-10.04,1.47-20.2,3.07-30.21,4.78l4.19,24.65
		c9.85-1.68,19.73-3.24,29.63-4.69L200.26,126.84L200.26,126.84z M260.97,119.42c-10.1,0.99-20.33,2.12-30.4,3.36l3.03,24.82
		c9.91-1.21,19.85-2.31,29.82-3.29L260.97,119.42L260.97,119.42z M321.97,114.85c-10.14,0.52-20.41,1.17-30.53,1.93l1.87,24.93
		c9.95-0.75,19.93-1.38,29.94-1.89L321.97,114.85L321.97,114.85z M383.1,113.13c-10.16,0.05-20.44,0.22-30.57,0.5l0.7,24.99
		c9.97-0.28,19.97-0.44,29.99-0.49L383.1,113.13L383.1,113.13z M413.67,113.33l-0.45,25c9.97,0.18,19.96,0.47,29.99,0.88l1.02-24.98
		C434.07,113.82,423.79,113.52,413.67,113.33L413.67,113.33z M474.75,115.82l-1.58,24.95c9.94,0.63,19.92,1.37,29.92,2.23
		l2.13-24.91C495.1,117.23,484.84,116.46,474.75,115.82L474.75,115.82z M535.62,121.04l-2.68,24.86c9.9,1.07,19.83,2.25,29.79,3.54
		l3.21-24.79C555.87,123.33,545.67,122.12,535.62,121.04L535.62,121.04z M596.18,128.88l-3.74,24.72c2.99,0.45,5.99,0.92,8.99,1.39
		l0,0c0.78,0.12,1.56,0.25,2.34,0.37c0.02,0,0.03,0.01,0.05,0.01c0.12,0.02,0.23,0.04,0.35,0.06c0.02,0,0.05,0.01,0.06,0.01
		c0.12,0.02,0.24,0.04,0.35,0.06c0.01,0,0.02,0,0.03,0c0.51,0.08,1.02,0.16,1.54,0.25c0.01,0,0.03,0,0.03,0.01
		c0.11,0.02,0.22,0.04,0.34,0.05c0.02,0,0.06,0.01,0.09,0.01c0.11,0.02,0.22,0.04,0.33,0.05c0.02,0,0.05,0.01,0.08,0.01
		c0.11,0.02,0.22,0.04,0.33,0.05c0.02,0,0.04,0.01,0.06,0.01c0.5,0.08,1,0.16,1.5,0.24c0.02,0,0.03,0.01,0.06,0.01
		c0.11,0.02,0.23,0.04,0.34,0.06c0.02,0,0.05,0.01,0.07,0.01c0.11,0.02,0.23,0.04,0.34,0.06c0.02,0,0.04,0.01,0.06,0.01
		c0.12,0.02,0.24,0.04,0.36,0.06l0,0c0.65,0.11,1.31,0.21,1.96,0.32c0.02,0,0.02,0,0.04,0.01c0.12,0.02,0.25,0.04,0.37,0.06
		c0.01,0,0.02,0,0.03,0c0.78,0.13,1.57,0.26,2.35,0.39l0.02,0c0.13,0.02,0.26,0.04,0.38,0.06l0.01,0c0.79,0.13,1.57,0.26,2.36,0.4
		c0.02,0,0.01,0,0.03,0c0.13,0.02,0.25,0.04,0.38,0.06l0.02,0c0.65,0.11,1.3,0.22,1.95,0.33c0.01,0,0.03,0,0.04,0.01
		c0.12,0.02,0.23,0.04,0.35,0.06c0.02,0,0.05,0.01,0.07,0.01c0.12,0.02,0.23,0.04,0.35,0.06c0.02,0,0.04,0.01,0.06,0.01
		c0.39,0.07,0.79,0.14,1.18,0.2l4.25-24.64C616.3,132.03,606.16,130.39,596.18,128.88L596.18,128.88z M715.95,152.04l-5.72,24.34
		c0.04,0.01,0.09,0.02,0.13,0.03c0.06,0.01,0.13,0.03,0.19,0.04c0.08,0.02,0.15,0.04,0.23,0.05c0.08,0.02,0.14,0.03,0.22,0.05
		c0.07,0.02,0.14,0.03,0.2,0.05c0.09,0.02,0.19,0.04,0.28,0.07c0.05,0.01,0.1,0.02,0.14,0.03c0.29,0.07,0.59,0.14,0.88,0.21
		c0,0,0.01,0,0.01,0c0.14,0.03,0.29,0.07,0.43,0.1c0.02,0,0.03,0.01,0.05,0.01c0.13,0.03,0.26,0.06,0.4,0.09
		c0.02,0,0.03,0.01,0.05,0.01c0.13,0.03,0.27,0.06,0.41,0.1c0.01,0,0.03,0.01,0.04,0.01c0.14,0.03,0.28,0.07,0.42,0.1
		c0.01,0,0.01,0,0.02,0.01c4.39,1.04,8.79,2.11,13.18,3.2c0,0,0,0,0,0c0.15,0.04,0.28,0.07,0.43,0.11c0.02,0,0.04,0.01,0.05,0.01
		c0.13,0.03,0.25,0.06,0.38,0.09c0.03,0.01,0.06,0.01,0.09,0.02c0.11,0.03,0.23,0.06,0.34,0.08c0.04,0.01,0.08,0.02,0.12,0.03
		c10.26,2.55,20.55,5.21,30.86,7.99l5.67-8.75c0,0-14.7-9.52-21.64-14.01v0l-18.19-11.77C722.39,153.57,719.16,152.8,715.95,152.04
		L715.95,152.04z M770.5,183.41l-2.15,7.81c2.11,0.58,4.21,1.16,6.32,1.76c0,0,0.01,0,0.01,0c0.13,0.04,0.24,0.07,0.37,0.1
		c0.02,0.01,0.04,0.01,0.05,0.01c0.11,0.03,0.22,0.06,0.33,0.09c0.03,0.01,0.06,0.02,0.09,0.03c0.1,0.03,0.19,0.05,0.29,0.08
		c0.04,0.01,0.09,0.02,0.13,0.04c0.08,0.02,0.17,0.05,0.26,0.07c0.06,0.02,0.12,0.03,0.18,0.05c0.07,0.02,0.14,0.04,0.21,0.06
		c0.08,0.02,0.15,0.04,0.23,0.07c0.05,0.01,0.11,0.03,0.16,0.04c0.1,0.03,0.2,0.06,0.3,0.08c0.03,0.01,0.06,0.02,0.09,0.03
		c0.12,0.03,0.24,0.07,0.36,0.1c0.01,0,0.03,0.01,0.04,0.01c4.08,1.15,8.17,2.32,12.26,3.51l0,0c1.22,0.35,2.45,0.71,3.67,1.07l0,0
		l0,0l0,0l0,0l0,0l0,0L770.5,183.41L770.5,183.41z M689.89,131.22l-8.49,13.11c-8.36-1.77-16.78-3.47-25.09-5.08l-4.75,24.54
		c7.42,1.44,14.85,2.94,22.3,4.5l0.01,0c0.13,0.03,0.25,0.05,0.38,0.08c0.02,0,0.02,0.01,0.04,0.01c0.12,0.03,0.25,0.05,0.37,0.08
		c0.01,0,0.03,0.01,0.04,0.01c0.64,0.13,1.27,0.27,1.91,0.4c0.03,0.01,0.06,0.01,0.09,0.02c0.1,0.02,0.2,0.04,0.3,0.06
		c0.04,0.01,0.08,0.02,0.12,0.03c0.09,0.02,0.19,0.04,0.28,0.06c0.05,0.01,0.1,0.02,0.15,0.03c0.09,0.02,0.18,0.04,0.27,0.06
		c0.05,0.01,0.1,0.02,0.15,0.03c0.09,0.02,0.18,0.04,0.27,0.06c0.05,0.01,0.1,0.02,0.15,0.03c0.18,0.04,0.36,0.08,0.54,0.12
		c0.04,0.01,0.09,0.02,0.13,0.03c0.07,0.02,0.14,0.03,0.21,0.05c0.07,0.01,0.15,0.03,0.22,0.05c0.07,0.01,0.14,0.03,0.21,0.04
		c0.08,0.02,0.16,0.03,0.23,0.05c0.07,0.01,0.13,0.03,0.2,0.04c0.08,0.02,0.16,0.03,0.24,0.05c0.06,0.01,0.13,0.03,0.19,0.04
		c0.09,0.02,0.17,0.04,0.26,0.06c0.04,0.01,0.07,0.02,0.11,0.02l2.75-12.81l17.79,11.52l13.59-20.99l-17.58-11.38
		C693.24,133.39,689.89,131.22,689.89,131.22L689.89,131.22z M639.53,98.62l-13.59,20.99l25.18,16.3l13.59-20.99l-10.38-6.72
		c0,0-0.01,0-0.01-0.01l-0.11-0.07c-0.02-0.01-0.04-0.03-0.06-0.04l-0.03-0.02C647.24,103.61,639.53,98.62,639.53,98.62
		L639.53,98.62z M589.2,66.04l-13.59,20.99L589.2,66.04L589.2,66.04l-13.59,20.99l25.14,16.28l13.59-20.99L589.2,66.04L589.2,66.04
		L589.2,66.04L589.2,66.04L589.2,66.04L589.2,66.04L589.2,66.04L589.2,66.04L589.2,66.04L589.2,66.04L589.2,66.04z M533.53,43.65
		l-7.8,23.75c9.03,2.97,18,6.23,26.67,9.71l9.31-23.2C552.44,50.2,543.04,46.78,533.53,43.65L533.53,43.65z M475.53,28.4l-4.96,24.5
		c9.42,1.91,18.78,4.08,27.84,6.45l6.34-24.18C495.12,32.65,485.38,30.39,475.53,28.4L475.53,28.4z M416.22,19.55l-2.47,24.88
		c9.66,0.96,19.27,2.15,28.58,3.53l3.67-24.73C436.15,21.77,426.24,20.55,416.22,19.55L416.22,19.55z M356.33,16.2l-0.39,25
		c9.79,0.15,19.54,0.49,28.98,1.02l1.38-24.96C376.39,16.7,366.4,16.35,356.33,16.2L356.33,16.2z"/>
</g>
</svg>
