<?xml version="1.0" encoding="utf-8"?>
<!-- Generator: Adobe Illustrator 26.1.0, SVG Export Plug-In . SVG Version: 6.00 Build 0)  -->
<svg version="1.1" id="レイヤー_1" xmlns="http://www.w3.org/2000/svg" xmlns:xlink="http://www.w3.org/1999/xlink" x="0px"
	 y="0px" viewBox="0 0 793.7 198.4" style="enable-background:new 0 0 793.7 198.4;" xml:space="preserve">
<style type="text/css">
	.st0{fill:#00CB4F;}
</style>
<g>
	<path class="st0" d="M607.8,6.7L578,9.8l2.6,24.9l29.8-3.1L607.8,6.7L607.8,6.7L607.8,6.7z M548.2,12.9L518.3,16l2.6,24.9l29.8-3.1
		L548.2,12.9L548.2,12.9z M488.5,19.1l-29.8,3.1l2.6,24.9l29.8-3.1L488.5,19.1L488.5,19.1z M428.8,25.2L399,28.3l2.6,24.9l29.8-3.1
		L428.8,25.2L428.8,25.2z M369.1,31.4l-29.8,3.1l2.6,24.9l29.8-3.1L369.1,31.4L369.1,31.4z M309.4,37.6c0,0-6.5,0.7-13.5,1.4h0
		c0,0,0,0-0.1,0h0c0,0,0,0,0,0h0c0,0,0,0,0,0l-16.2,1.7l2.6,24.9l29.8-3.1L309.4,37.6L309.4,37.6z M249.8,43.8l-29.8,3.1l2.6,24.9
		l29.8-3.1L249.8,43.8L249.8,43.8z M190.1,50l-29.8,3.1l2.6,24.9l29.8-3.1L190.1,50L190.1,50z M130.4,56.2l-29.8,3.1l2.6,24.9
		l29.8-3.1L130.4,56.2L130.4,56.2z M70.7,62.4l-29.8,3.1l2.6,24.9l29.8-3.1L70.7,62.4L70.7,62.4z M11.3,69.6L11.3,69.6
		C11.2,69.7,11.2,69.7,11.3,69.6L11.3,69.6c-0.1,0.1-0.1,0.1-0.2,0.1l0,0c0,0-0.1,0-0.1,0l0,0c0,0,0,0,0,0l0,0c0,0-0.1,0-0.1,0l0,0
		c0,0-0.1,0-0.1,0l0,0c0,0-0.1,0-0.1,0l0,0c0,0,0,0,0,0l0,0c0,0,0,0,0,0l0,0c0,0,0,0,0,0l0,0c0,0-0.1,0-0.1,0l0,0c0,0-0.1,0-0.1,0
		l0,0c0,0-0.1,0-0.1,0l0,0c0,0,0,0,0,0l0,0c0,0,0,0,0,0l0,0c0,0,0,0,0,0l0,0c0,0,0,0,0,0l0,0c0,0,0,0,0,0l0,0c0,0-0.1,0-0.1,0l0,0
		c0,0-0.1,0-0.1,0l0,0c0,0,0,0,0,0l0,0c0,0,0,0,0,0l0,0c0,0,0,0,0,0l0,0c0,0,0,0,0,0l0,0c0,0,0,0,0,0l0,0c0,0-0.1,0-0.1,0l0,0
		c0,0-0.1,0-0.1,0c0,0,0,0,0,0c0,0-0.1,0-0.1,0l0,0c0,0-0.1,0-0.1,0l0,0c0,0,0,0,0,0l0,0c0,0,0,0,0,0l0,0c0,0,0,0,0,0l0,0
		c0,0-0.1,0-0.1,0l0,0c0,0-0.1,0-0.1,0l0,0c0,0,0,0,0,0l0,0c0,0-0.1,0-0.1,0.1l0,0c0,0-0.1,0-0.1,0l0,0c0,0-0.1,0-0.1,0l0,0
		c0,0-0.1,0-0.1,0l0,0c0,0-0.1,0-0.1,0l0,0c0,0,0,0,0,0l0,0c0,0,0,0,0,0l0,0C8.9,71,8.8,71,8.8,71l0,0c-0.1,0.1-0.3,0.2-0.4,0.3l0,0
		c-0.1,0-0.1,0.1-0.1,0.1l0,0c-4.2,3-7.2,7.6-8.1,13l0,0c0,0,0,0.1,0,0.1l0,0c0,0,0,0.1,0,0.1l0,0c0,0,0,0.1,0,0.1l0,0
		c0,0,0,0.1,0,0.1l0,0c0,0,0,0.1,0,0.1l0,0c0,0,0,0.1,0,0.1l0,0c0,0,0,0.1,0,0.1l0,0c0,0,0,0.1,0,0.1l0,0c0,0,0,0.1,0,0.1
		c0,0,0,0,0,0c0,0,0,0.1,0,0.1l0,0c0,0,0,0,0,0l0,0c0,0,0,0,0,0l0,0c0,0,0,0,0,0l0,0c0,0,0,0.1,0,0.1l0,0c0,0,0,0.1,0,0.1l0,0
		c0,0,0,0.1,0,0.1l0,0c0,0,0,0,0,0l0,0c0,0,0,0,0,0l0,0c0,0,0,0,0,0l0,0c0,0,0,0,0,0l0,0c0,0,0,0,0,0v0c0,0,0,0.1,0,0.1c0,0,0,0,0,0
		c0,0,0,0.1,0,0.1v0c0,0,0,0,0,0l0,0c0,0,0,0,0,0c0,0,0,0,0,0s0,0,0,0l0,0c0,0,0,0,0,0c0,0,0,0,0,0s0,0,0,0l0,0c0,0,0,0,0,0l0,0
		c0,0,0,0,0,0l0,0c0,0,0,0.1,0,0.1c0,0,0,0,0,0s0,0,0,0l0,0c0,0,0,0,0,0c0,0,0,0,0,0s0,0,0,0c0,0,0,0,0,0s0,0,0,0c0,0,0,0,0,0
		s0,0,0,0v0c0,0,0,0,0,0l0,0c0,0,0,0,0,0v0c0,0,0,0,0,0l0,0c0,0,0,0,0,0v0c0,0,0,0.1,0,0.1v0c0,0,0,0,0,0c0,0,0,0,0,0s0,0,0,0v0
		c0,0,0,0,0,0c0,0,0,0,0,0s0,0,0,0c0,0,0,0,0,0s0,0,0,0v0c0,0,0,0,0,0v0c0,0,0,0,0,0v0c0,0,0,0,0,0l0,0l0,0v7.8h25v-7.8h-5.4
		L11.3,69.6L11.3,69.6z M25,125.2H0v30h25V125.2L25,125.2z M18.9,170.2c-3.7,0.6-7.4,1.1-11.1,1.7l0,0l0,0l2,13.3H0v1.4l0,0
		c0,5.7,4.6,10.1,10.1,10.1c0.5,0,1,0,1.6-0.1l-1.5-10l0,0l1.5,10l0,0c2.4-0.4,4.8-0.7,7.2-1.1c1.3-0.2,2.6-0.4,3.9-0.6l-1.3-8.3H25
		l0,0l0,0l0,0v-1.4h-0.1c-0.4-4-2.3-7.5-5.2-9.9L18.9,170.2L18.9,170.2z M78.6,161.5c-9.8,1.4-19.9,2.8-29.9,4.3l3.6,24.7
		c5.5-0.8,10.9-1.6,16.3-2.4c0,0,0.1,0,0.1,0c0.1,0,0.2,0,0.4-0.1c0,0,0.1,0,0.1,0c0.1,0,0.2,0,0.3,0c0.1,0,0.1,0,0.2,0
		c0.1,0,0.2,0,0.3,0c0.1,0,0.1,0,0.2,0c0,0,0.1,0,0.1,0c0.2,0,0.3,0,0.4-0.1c0,0,0,0,0,0c1.5-0.2,3.1-0.4,4.6-0.6c0,0,0.1,0,0.1,0
		c0.1,0,0.3,0,0.4-0.1c0.1,0,0.1,0,0.2,0c0.1,0,0.1,0,0.2,0c0.1,0,0.2,0,0.4-0.1c0,0,0.1,0,0.1,0c1.8-0.3,3.7-0.5,5.5-0.8
		L78.6,161.5L78.6,161.5z M138.3,153.5c-9.8,1.3-19.9,2.6-29.9,3.9l3.3,24.8c0.2,0,0.3,0,0.5-0.1c0,0,0,0,0,0c0.1,0,0.3,0,0.4-0.1
		c0.1,0,0.1,0,0.1,0c0.1,0,0.1,0,0.2,0c8.4-1.1,16.8-2.2,25-3.3c0,0,0.1,0,0.1,0c0.1,0,0.1,0,0.2,0c0.1,0,0.2,0,0.3,0
		c0,0,0.1,0,0.1,0c0.1,0,0.2,0,0.4-0.1c0,0,0,0,0,0c0.8-0.1,1.5-0.2,2.3-0.3L138.3,153.5L138.3,153.5z M198.3,146.3
		c-9.8,1.1-19.9,2.3-30,3.5l3,24.8c9.4-1.1,18.8-2.2,28.1-3.3c0.1,0,0.1,0,0.2,0c0.1,0,0.1,0,0.2,0c0.4-0.1,0.9-0.1,1.3-0.1
		L198.3,146.3L198.3,146.3z M258.3,139.9c-9.9,1-20,2-30.1,3.1l2.6,24.9c10.1-1.1,20-2.1,29.9-3L258.3,139.9L258.3,139.9z
		 M318.5,134.6c-9.9,0.8-20,1.6-30.1,2.5l2.2,24.9c10.1-0.9,20-1.7,29.9-2.5L318.5,134.6L318.5,134.6z M379,130.5
		c-9.9,0.6-20.1,1.2-30.2,1.9l1.7,24.9c10.1-0.7,20.1-1.3,30-1.9L379,130.5L379,130.5z M439.5,127.8c-9.9,0.3-20.1,0.7-30.3,1.1
		l1.1,25c10.1-0.4,20.1-0.8,30-1.1L439.5,127.8L439.5,127.8z M497.8,126.9c-9.1,0-18.5,0.1-27.9,0.2l0.4,25
		c7.4-0.1,14.7-0.2,21.9-0.2h0c0.1,0,0.1,0,0.2,0l0,0c0.1,0,0.1,0,0.2,0c0,0,0,0,0,0c0,0,0.1,0,0.2,0c0,0,0,0,0,0c0.1,0,0.1,0,0.2,0
		c0,0,0,0,0,0c0.2,0,0.3,0,0.5,0c0,0,0,0,0,0c0,0,0.1,0,0.1,0s0.1,0,0.1,0c0,0,0.1,0,0.1,0c0,0,0,0,0.1,0c0,0,0.1,0,0.1,0
		c0,0,0.1,0,0.1,0c0,0,0.1,0,0.1,0c0,0,0.1,0,0.1,0s0.1,0,0.1,0c0,0,0.1,0,0.1,0c0,0,0.1,0,0.1,0c0,0,0,0,0.1,0c0,0,0.1,0,0.1,0
		c0,0,0.1,0,0.1,0s0.1,0,0.1,0c0,0,0.1,0,0.1,0c0,0,0,0,0.1,0s0.1,0,0.1,0c0.1,0,0.3,0,0.4,0c0,0,0,0,0.1,0c0,0,0.1,0,0.1,0
		c0,0,0.1,0,0.1,0c0,0,0,0,0.1,0c0,0,0.1,0,0.1,0c0,0,0.1,0,0.1,0c0,0,0.1,0,0.1,0c0,0,0.1,0,0.1,0c0,0,0.1,0,0.1,0c0,0,0.1,0,0.1,0
		c0,0,0.1,0,0.1,0c0,0,0.1,0,0.1,0c0,0,0.1,0,0.1,0c0,0,0.1,0,0.1,0c0,0,0.1,0,0.1,0c0,0,0,0,0.1,0c0,0,0.1,0,0.1,0c0,0,0,0,0.1,0
		c0.1,0,0.1,0,0.2,0l0,0l0,0c0.1,0,0.2,0,0.3,0c0,0,0,0,0,0c0.6,0,1.2,0,1.8,0c0.1,0,0.3,0,0.4,0l0-25L497.8,126.9L497.8,126.9z
		 M530.8,127.2l-0.5,25c3.3,0.1,6.5,0.1,9.7,0.2h0c0.1,0,0.1,0,0.2,0c0,0,0,0,0,0c0.2,0,0.3,0,0.5,0c0,0,0,0,0,0c0.1,0,0.1,0,0.2,0
		c0,0,0,0,0.1,0c0.1,0,0.1,0,0.2,0c0,0,0,0,0,0c0.1,0,0.1,0,0.2,0c0,0,0,0,0.1,0c0,0,0.1,0,0.2,0c0,0,0,0,0.1,0c0,0,0.1,0,0.2,0
		c0,0,0,0,0.1,0c0.1,0,0.1,0,0.2,0c0,0,0,0,0.1,0c0,0,0.1,0,0.1,0c0,0,0.1,0,0.1,0c0,0,0.1,0,0.1,0c0,0,0.1,0,0.1,0c0,0,0.1,0,0.1,0
		c0,0,0.1,0,0.1,0c0,0,0.1,0,0.1,0c0,0,0.1,0,0.1,0c0,0,0.1,0,0.1,0s0.1,0,0.1,0s0.1,0,0.1,0c0.1,0,0.1,0,0.2,0c0,0,0.1,0,0.1,0
		s0.1,0,0.1,0c0,0,0,0,0.1,0c0,0,0.1,0,0.1,0c0,0,0,0,0,0c0.2,0,0.3,0,0.5,0c0,0,0,0,0.1,0c0,0,0.1,0,0.1,0c0,0,0.1,0,0.1,0
		c0,0,0.1,0,0.1,0c0,0,0,0,0.1,0c0.1,0,0.2,0,0.2,0c0,0,0.1,0,0.1,0s0.1,0,0.1,0c0,0,0.1,0,0.1,0c0,0,0.1,0,0.1,0c0.1,0,0.1,0,0.2,0
		c0,0,0,0,0,0c0.1,0,0.1,0,0.2,0c0,0,0,0,0.1,0c0,0,0.1,0,0.1,0c0,0,0,0,0.1,0c0,0,0.1,0,0.2,0c0,0,0,0,0.1,0c0.1,0,0.1,0,0.2,0
		c0,0,0,0,0,0c0.1,0,0.1,0,0.2,0c0,0,0,0,0,0c0.1,0,0.1,0,0.2,0h0c0.1,0,0.2,0,0.2,0l0,0c0.1,0,0.2,0,0.2,0h0c0.1,0,0.2,0,0.2,0l0,0
		c4.1,0.1,8.2,0.3,12.3,0.5l1-25C551.4,127.7,541.1,127.4,530.8,127.2L530.8,127.2z M591.9,129.8l-1.7,24.9
		c10.2,0.7,20.2,1.5,29.9,2.4l2.4-24.9C612.6,131.3,602.3,130.5,591.9,129.8L591.9,129.8z M653.2,135.7l-3.2,24.8
		c2.4,0.3,4.8,0.6,7.2,1c0,0,0,0,0,0c0.1,0,0.2,0,0.3,0c0,0,0,0,0,0c0,0,0.1,0,0.1,0c0,0,0,0,0,0c0.1,0,0.2,0,0.2,0c0,0,0,0,0.1,0
		c0.1,0,0.3,0,0.4,0.1c0,0,0.1,0,0.1,0c0,0,0.1,0,0.1,0c0,0,0.1,0,0.1,0c0,0,0.1,0,0.1,0c0,0,0.1,0,0.1,0c0,0,0.1,0,0.1,0
		c0,0,0.1,0,0.1,0c0,0,0,0,0.1,0c0.1,0,0.1,0,0.2,0c0,0,0,0,0,0c0.1,0,0.1,0,0.2,0c0,0,0,0,0.1,0c0.1,0,0.1,0,0.2,0c0,0,0,0,0,0
		c0.1,0,0.1,0,0.2,0c0,0,0,0,0,0c0.1,0,0.1,0,0.2,0c0,0,0,0,0,0c0.2,0,0.3,0,0.4,0.1c0,0,0,0,0,0c0.1,0,0.2,0,0.2,0h0
		c0.2,0,0.3,0,0.5,0.1l0,0c6.2,0.9,12.2,1.8,18.1,2.8l4.2-24.6C674,138.6,663.7,137.1,653.2,135.7L653.2,135.7z M709.7,111.8
		l-18,17.4l20.9,21.5l1.1-1l-4.6,21l0,0c0.1,0,0.1,0,0.2,0.1c0,0,0,0,0,0c0.1,0,0.1,0,0.2,0.1c0,0,0,0,0,0c0.1,0,0.1,0,0.2,0.1
		c0,0,0,0,0,0c9.9,2.2,19.3,4.6,28.4,7.1l0.2-0.7l1,1c8.1,2.3,15.9,4.8,23.3,7.4l7-6.8l-3,8.2c1.6,0.6,3.2,1.2,4.8,1.8l0,0
		c0,0,0.1,0,0.1,0c0,0,0,0,0,0c0,0,0.1,0,0.1,0c0,0,0,0,0,0c0,0,0.1,0,0.1,0c0,0,0,0,0,0c0,0,0.1,0,0.1,0c0,0,0,0,0,0c0,0,0,0,0.1,0
		c0,0,0,0,0,0c0,0,0,0,0.1,0c0,0,0,0,0,0c0,0,0,0,0,0c0,0,0,0,0.1,0c0,0,0,0,0,0c0,0,0,0,0.1,0c0,0,0,0,0,0c0,0,0,0,0.1,0
		c0,0,0,0,0,0c0,0,0,0,0.1,0c0,0,0,0,0,0c0,0,0,0,0,0c0,0,0,0,0.1,0c0,0,0,0,0,0c0,0,0,0,0.1,0c0,0,0,0,0,0c0,0,0,0,0,0c0,0,0,0,0,0
		c0,0,0,0,0.1,0c0,0,0,0,0,0c0,0,0,0,0.1,0c0,0,0,0,0,0c0,0,0,0,0.1,0c0,0,0,0,0.1,0c0,0,0,0,0,0c0,0,0,0,0.1,0c0,0,0,0,0,0
		c0,0,0,0,0,0c0,0,0,0,0,0c0,0,0,0,0.1,0c0,0,0,0,0,0c0,0,0,0,0.1,0c0,0,0,0,0,0c0,0,0,0,0.1,0c0,0,0,0,0,0c0,0,0,0,0.1,0
		c0,0,0,0,0,0c0,0,0,0,0.1,0c0,0,0,0,0,0c0,0,0,0,0.1,0c0,0,0,0,0,0c0,0,0,0,0.1,0c0,0,0,0,0,0c0,0,0,0,0.1,0c0,0,0,0,0,0
		c0,0,0,0,0.1,0c0,0,0,0,0,0c0,0,0,0,0.1,0c0,0,0,0,0,0c0,0,0,0,0.1,0c0,0,0,0,0,0c0,0,0,0,0.1,0c0,0,0,0,0,0c0,0,0,0,0.1,0
		c0,0,0,0,0,0c0,0,0,0,0.1,0c0,0,0,0,0,0c0,0,0.1,0,0.1,0c0,0,0,0,0,0c0,0,0.1,0,0.1,0c0,0,0,0,0,0c0.3,0.1,0.6,0.2,0.9,0.4
		c0,0,0,0,0,0c0,0,0,0,0.1,0c0,0,0,0,0,0c0,0,0,0,0.1,0c0,0,0,0,0,0c0,0,0,0,0.1,0c0,0,0,0,0,0c0,0,0,0,0.1,0c0,0,0,0,0,0
		c0,0,0,0,0.1,0c0,0,0,0,0,0c0,0,0,0,0.1,0c0,0,0,0,0,0c0,0,0,0,0.1,0c0,0,0,0,0,0c0,0,0,0,0.1,0c0,0,0,0,0,0c0,0,0,0,0,0
		c0,0,0,0,0,0c0,0,0,0,0,0c0,0,0,0,0.1,0c0,0,0,0,0,0c0,0,0,0,0.1,0c0,0,0,0,0,0c0,0,0,0,0,0c0,0,0,0,0,0c0,0,0,0,0,0c0,0,0,0,0,0
		c0,0,0,0,0.1,0c0,0,0,0,0,0c0,0,0,0,0.1,0c0,0,0,0,0,0c0,0,0,0,0.1,0c0,0,0,0,0,0c0,0,0,0,0.1,0s0,0,0,0c0,0,0,0,0.1,0c0,0,0,0,0,0
		c0,0,0,0,0.1,0c0,0,0,0,0,0c0,0,0,0,0.1,0c0,0,0,0,0,0c0,0,0,0,0.1,0c0,0,0,0,0,0c0,0,0,0,0.1,0c0,0,0,0,0,0c0,0,0,0,0.1,0
		c0,0,0,0,0,0c0,0,0,0,0.1,0c0,0,0,0,0,0c0,0,0.1,0,0.1,0c0,0,0,0,0,0c0,0,0.1,0,0.1,0c0,0,0,0,0,0c0,0,0,0,0.1,0c0,0,0,0,0,0
		c0,0,0.1,0,0.1,0c0,0,0,0,0,0c0,0,0.1,0,0.1,0h0c5,2,9.7,4.2,14.4,6.4l0,0l-22.6-23.3l0,0c-4.5-4.6-19.7-20.3-19.7-20.3l-9.3,9
		l2.8-10c-9-2.6-18.5-4.9-28.3-7.1l13.9-13.4L709.7,111.8L709.7,111.8z M667.9,68.7l-18,17.4l20.9,21.5l18-17.4L667.9,68.7
		L667.9,68.7z M626.2,25.6l-18,17.4l20.9,21.5l18-17.4l-6-6.1c0,0,0,0,0,0l0,0c0,0,0,0,0,0l0,0c0,0,0,0,0,0l-0.1-0.1
		C634.7,34.4,626.2,25.6,626.2,25.6L626.2,25.6z"/>
</g>
</svg>
