<?xml version="1.0" encoding="utf-8"?>
<!-- Generator: Adobe Illustrator 26.1.0, SVG Export Plug-In . SVG Version: 6.00 Build 0)  -->
<svg version="1.1" id="レイヤー_1" xmlns="http://www.w3.org/2000/svg" xmlns:xlink="http://www.w3.org/1999/xlink" x="0px"
	 y="0px" viewBox="0 0 793.7 198.4" style="enable-background:new 0 0 793.7 198.4;" xml:space="preserve">
<style type="text/css">
	.st0{fill:#00CB4F;}
</style>
<g>
	<path class="st0" d="M211,30C211,30,211,30,211,30C210.9,30,210.9,30,211,30c-0.1,0-0.1,0-0.1,0c0,0,0,0,0,0c0,0,0,0-0.1,0
		c0,0,0,0,0,0c0,0-0.1,0-0.1,0c0,0,0,0,0,0c0,0,0,0-0.1,0c0,0,0,0,0,0c0,0,0,0-0.1,0c0,0,0,0,0,0c0,0-0.1,0-0.1,0l0,0
		c0,0-0.1,0-0.1,0c0,0,0,0,0,0c0,0,0,0-0.1,0c0,0,0,0,0,0c0,0,0,0-0.1,0c0,0,0,0,0,0c0,0-0.1,0-0.1,0h0c0,0,0,0-0.1,0c0,0,0,0,0,0
		c0,0,0,0-0.1,0c0,0,0,0,0,0c0,0-0.1,0-0.1,0l0,0c0,0-0.1,0-0.1,0c0,0,0,0,0,0c0,0,0,0-0.1,0c0,0,0,0,0,0c0,0,0,0-0.1,0c0,0,0,0,0,0
		c0,0-0.1,0-0.1,0h0c0,0,0,0-0.1,0c0,0,0,0,0,0c0,0,0,0-0.1,0c0,0,0,0,0,0c0,0,0,0-0.1,0h0c0,0,0,0-0.1,0c0,0,0,0,0,0c0,0,0,0-0.1,0
		c0,0,0,0,0,0c0,0,0,0-0.1,0c0,0,0,0,0,0c0,0-0.1,0-0.1,0h0c0,0,0,0-0.1,0c0,0,0,0,0,0c0,0,0,0-0.1,0c0,0,0,0,0,0c0,0,0,0-0.1,0h0
		c0,0,0,0-0.1,0c0,0,0,0,0,0c0,0,0,0,0,0s0,0,0,0c0,0,0,0-0.1,0c0,0,0,0,0,0c0,0,0,0-0.1,0c0,0,0,0,0,0c0,0,0,0-0.1,0c0,0,0,0,0,0
		s0,0,0,0s0,0,0,0c0,0,0,0-0.1,0c0,0,0,0,0,0c0,0,0,0-0.1,0c0,0,0,0,0,0s0,0,0,0s0,0,0,0c0,0,0,0-0.1,0c0,0,0,0,0,0c0,0,0,0-0.1,0
		c0,0,0,0,0,0c0,0,0,0,0,0s0,0,0,0s0,0,0,0s0,0,0,0c0,0,0,0-0.1,0c0,0,0,0,0,0c0,0,0,0-0.1,0c0,0,0,0,0,0c0,0,0,0,0,0s0,0,0,0
		s0,0,0,0s0,0,0,0c0,0,0,0-0.1,0c0,0,0,0,0,0c0,0,0,0,0,0s0,0,0,0s0,0,0,0s0,0,0,0s0,0,0,0s0,0,0,0c0,0,0,0-0.1,0c0,0,0,0,0,0
		c0,0,0,0,0,0s0,0,0,0s0,0,0,0s0,0,0,0c0,0,0,0-0.1,0c0,0,0,0,0,0c0,0,0,0-0.1,0c0,0,0,0,0,0s0,0,0,0s0,0,0,0s0,0,0,0s0,0,0,0
		c0,0,0,0-0.1,0c0,0,0,0,0,0s0,0,0,0s0,0,0,0s0,0,0,0c0,0,0,0,0,0c0,0,0,0-0.1,0c0,0,0,0,0,0s0,0,0,0s0,0,0,0s0,0,0,0s0,0,0,0
		s0,0,0,0c0,0,0,0-0.1,0c0,0,0,0,0,0s0,0,0,0c0,0,0,0,0,0s0,0,0,0c0,0,0,0,0,0s0,0,0,0s0,0,0,0c0,0,0,0-0.1,0c0,0,0,0,0,0s0,0,0,0
		c0,0,0,0,0,0s0,0,0,0c0,0,0,0,0,0c0,0,0,0-0.1,0c0,0,0,0,0,0s0,0,0,0c0,0,0,0,0,0s0,0,0,0s0,0,0,0s0,0,0,0s0,0,0,0c0,0,0,0-0.1,0
		c0,0,0,0,0,0s0,0,0,0c0,0,0,0,0,0s0,0,0,0s0,0,0,0c0,0-0.1,0-0.1,0c0,0,0,0,0,0c0,0,0,0,0,0s0,0,0,0s0,0,0,0s0,0,0,0s0,0,0,0
		s0,0,0,0c0,0-0.1,0-0.1,0c0,0,0,0,0,0c0,0,0,0,0,0s0,0,0,0c0,0,0,0,0,0c0,0,0,0,0,0c-0.1,0-0.1,0-0.1,0c0,0,0,0,0,0c0,0,0,0,0,0
		c0,0,0,0,0,0c0,0,0,0,0,0c0,0,0,0,0,0c0,0-0.1,0-0.1,0c0,0,0,0,0,0c0,0,0,0,0,0c0,0,0,0,0,0c0,0,0,0,0,0c0,0,0,0,0,0
		c-0.1,0-0.1,0-0.1,0c0,0,0,0,0,0c0,0,0,0,0,0c0,0,0,0,0,0c0,0,0,0-0.1,0l0,0c0,0-0.1,0-0.1,0c0,0,0,0,0,0c0,0,0,0-0.1,0
		c0,0,0,0,0,0c0,0,0,0-0.1,0h0c-0.1,0-0.1,0-0.1,0c0,0,0,0,0,0c0,0,0,0-0.1,0c0,0,0,0,0,0c0,0,0,0-0.1,0l0,0c0,0-0.1,0-0.1,0h0
		c0,0,0,0-0.1,0h0c0,0,0,0-0.1,0h0c-0.1,0-0.1,0-0.2,0h0c0,0,0,0-0.1,0h0c-0.1,0-0.1,0-0.2,0h0c0,0,0,0-0.1,0l0,0
		c-0.1,0-0.1,0-0.2,0c0,0,0,0,0,0c0,0,0,0-0.1,0c0,0,0,0,0,0c-0.1,0-0.1,0-0.2,0l0,0c0,0,0,0-0.1,0l0,0c-0.1,0-0.1,0-0.2,0
		c0,0,0,0,0,0c-0.1,0-0.1,0-0.2,0c0,0,0,0,0,0c-4.5,0.8-8.9,2.2-13.1,4.1l0,0c-0.1,0-0.1,0.1-0.2,0.1l0,0c0,0,0,0-0.1,0c0,0,0,0,0,0
		c-0.1,0-0.1,0.1-0.2,0.1h0c-0.1,0-0.1,0.1-0.2,0.1c0,0,0,0,0,0c0,0,0,0-0.1,0h0c-0.1,0-0.1,0-0.1,0.1l0,0c0,0,0,0-0.1,0
		c0,0,0,0,0,0c0,0,0,0,0,0c0,0,0,0,0,0c0,0-0.1,0-0.1,0l0,0c0,0,0,0,0,0c0,0,0,0,0,0c0,0,0,0,0,0c0,0,0,0,0,0c0,0,0,0,0,0l0,0
		c0,0-0.1,0-0.1,0c0,0,0,0,0,0c0,0,0,0,0,0c0,0,0,0,0,0c0,0,0,0,0,0c0,0,0,0,0,0c0,0,0,0-0.1,0c0,0,0,0,0,0c0,0,0,0,0,0c0,0,0,0,0,0
		c0,0,0,0,0,0c0,0,0,0,0,0c0,0,0,0,0,0c0,0,0,0,0,0c0,0,0,0-0.1,0c0,0,0,0,0,0c0,0,0,0,0,0c0,0,0,0,0,0c0,0,0,0,0,0c0,0,0,0,0,0
		c0,0,0,0,0,0c0,0,0,0-0.1,0c0,0,0,0,0,0c0,0,0,0,0,0c0,0,0,0,0,0c0,0,0,0,0,0c0,0,0,0,0,0c0,0,0,0-0.1,0c0,0,0,0,0,0c0,0,0,0-0.1,0
		c0,0,0,0,0,0c0,0,0,0-0.1,0c0,0,0,0,0,0c0,0,0,0-0.1,0c0,0,0,0,0,0c0,0,0,0-0.1,0h0c0,0,0,0-0.1,0c0,0,0,0,0,0c0,0,0,0-0.1,0h0
		c0,0-0.1,0-0.1,0.1l0,0c0,0,0,0-0.1,0h0c0,0-0.1,0-0.1,0.1l0,0c0,0,0,0-0.1,0h0c0,0,0,0-0.1,0l0,0c0,0-0.1,0-0.1,0.1l0,0
		c0,0,0,0-0.1,0l0,0c-0.1,0-0.1,0.1-0.2,0.1l0,0c-0.9,0.5-1.7,1-2.5,1.5l13.3,21.5c4.5-2.9,9.8-4.4,15.1-4.4V30L211,30L211,30z
		 M159.7,57.6l-12.3,10.9c0,0,0,0,0,0l0,0c0,0,0,0-0.1,0.1l0,0c0,0-0.1,0.1-0.1,0.1l0,0c-5.1,4.6-9.9,8.8-9.9,8.8l16.6,18.7
		l22.5-19.9L159.7,57.6L159.7,57.6z M114.7,97.3l-5.7,5.1c0,0,0,0,0,0l0,0c0,0-0.1,0.1-0.1,0.1l0,0c0,0-0.1,0.1-0.1,0.1h0
		c0,0,0,0-0.1,0.1l0,0c0,0,0,0,0,0l-0.1,0.1c-6.7,5.9-16.3,14.4-16.3,14.4l16.6,18.7l22.5-19.9L114.7,97.3L114.7,97.3z M104.8,133.1
		l-28.2,10.3l0.9,2.6l-7.8-8.8l-44.8,39.6l0.2,0.4l-0.3-0.3c0,0-0.4,0.4-1.2,1.1l0,0l0,0l-0.2,0.2l0,0l-0.1,0.1l0,0l-21,18.6
		l0.3,0.3l45.7-16.7c0,0,0,0,0.1,0l0.1,0c0,0,0.1,0,0.1,0l0,0c0.1,0,0.1,0,0.2-0.1l0,0c4.7-1.7,8.3-3,8.3-3l-5.7-15.6l11.8,13.4
		l2.7-1l16.6-14.6l2.8,7.6l28.2-10.3L104.8,133.1L104.8,133.1z M161.2,112.5L133,122.8l8.6,23.5l21.7-7.9c3.8-1.4,6.5-2.4,6.5-2.4
		L161.2,112.5L161.2,112.5z M200.7,103.1l-2.5,24.9c0,0,4.9,0.5,10.8,1.1h0c0,0,0.1,0,0.1,0h0c0,0,0.1,0,0.1,0h0c0.1,0,0.1,0,0.1,0
		h0c0,0,0.1,0,0.1,0l18.6,1.9l2.5-24.9L200.7,103.1L200.7,103.1z M260.4,109l-2.5,24.9l4.5,0.4h0h0h0l0.3,0c0,0,0,0,0,0h0
		c0,0,0,0,0,0l0,0c0,0,0.1,0,0.1,0h0c0.1,0,0.2,0,0.3,0l0,0c8.5,0.9,24.6,2.4,24.6,2.4l2.5-24.9L260.4,109L260.4,109z M320.1,114.9
		l-2.5,24.9l20.6,2h0l0.1,0h0l0.1,0c0,0,0,0,0,0h0c0,0,0,0,0.1,0h0c0,0,0,0,0,0h0c4.9,0.5,8.8,0.9,8.8,0.9l2.5-24.9L320.1,114.9
		L320.1,114.9z M379.8,120.8l-2.5,24.9c0,0,12.2,1.2,21,2.1h0c0,0,0,0,0.1,0h0c0,0,0,0,0,0h0c0,0,0.1,0,0.1,0h0h0h0l0,0l8.6,0.9
		l2.5-24.9L379.8,120.8L379.8,120.8z M439.5,126.7l-2.5,24.9c0,0,3.1,0.3,7.2,0.7l0,0c0,0,0,0,0.1,0h0c0,0,0,0,0,0h0c0,0,0,0,0,0h0
		c0,0,0,0,0,0l0,0c0,0,0,0,0,0h0c0,0,0,0,0,0l0.1,0h0l22.2,2.2l2.5-24.9L439.5,126.7L439.5,126.7z M499.2,132.6l-2.5,24.9l8.6,0.9
		c0,0,0,0,0.1,0l0.1,0c0,0,0,0,0,0h0h0l0.1,0c0,0,0,0,0.1,0h0c0.1,0,0.2,0,0.3,0h0c0,0,0.1,0,0.2,0l0,0c8.8,0.9,20.4,2,20.4,2
		l2.5-24.9L499.2,132.6L499.2,132.6z M558.9,138.5l-2.5,24.9l27.3,2.7c0,0,0,0,0,0l0.3,0h0l0.1,0c0,0,0,0,0,0h0c0,0,0,0,0,0h0l0,0h0
		c0,0,0,0,0,0h0c0,0,0,0,0,0h0c0,0,0.1,0,0.1,0h0c0.1,0,0.1,0,0.2,0h0c1,0.1,1.6,0.2,1.6,0.2l2.5-24.9L558.9,138.5L558.9,138.5z
		 M618.6,144.5l-2.5,24.9c0,0,9.2,0.9,17.4,1.7h0c0,0,0.1,0,0.2,0h0c0,0,0,0,0,0h0h0h0l0,0l12.2,1.2l2.5-24.9L618.6,144.5
		L618.6,144.5z M678.3,150.4l-2.5,24.9l29.8,3l2.5-24.9L678.3,150.4L678.3,150.4z M738,156.3l-2.5,24.9l9.2,0.9l0,0l0.3,0
		c0,0,0,0,0,0h0c0,0,0,0,0,0h0h0h0c0,0,0,0,0,0h0c8.7,0.9,20.2,2,20.2,2l2.5-24.9L738,156.3L738,156.3z M794.6,156.3h-25v28.2
		l17.7,1.8h7.3V156.3L794.6,156.3z M743.5,82.5l-2.5,24.9l28.5,2.8v16.1h25v-30h-22.3l1.1-10.8L743.5,82.5L743.5,82.5z M683.8,76.6
		l-2.5,24.9l29.8,3l2.5-24.9l-14.4-1.4h0h0c0,0,0,0,0,0h0c0,0,0,0,0,0h0c0,0,0,0,0,0l-0.1,0c0,0,0,0-0.1,0l-0.2,0c0,0-0.1,0-0.1,0
		l-0.1,0C691.2,77.3,683.8,76.6,683.8,76.6L683.8,76.6z M624.1,70.7l-2.5,24.9l29.8,3l2.5-24.9c0,0-14-1.4-22.8-2.3l0,0c0,0,0,0,0,0
		L624.1,70.7L624.1,70.7z M564.4,64.8l-2.5,24.9l29.8,3l2.5-24.9c0,0-3.5-0.3-8.1-0.8h0l0,0l-0.1,0c0,0,0,0,0,0h0h0l-0.1,0h0
		L564.4,64.8L564.4,64.8z M504.7,58.9l-2.5,24.9l29.9,3l2.5-24.9l-3.5-0.3h0h0c0,0,0,0,0,0l-0.4,0l0,0l-0.1,0h0h0c0,0,0,0,0,0
		l-0.1,0h0h0c0,0,0,0-0.1,0h0c0,0,0,0,0,0l0,0c0,0,0,0,0,0h0h0h0h0h0c0,0-0.1,0-0.1,0h0c0,0-0.1,0-0.1,0h0
		C521.5,60.5,504.7,58.9,504.7,58.9L504.7,58.9z M445,53l-2.5,24.9l29.9,3l2.5-24.9L445,53L445,53z M385.3,47l-2.5,24.9l29.9,3
		l2.5-24.9c0,0-6.3-0.6-13.2-1.3h0c0,0,0,0-0.1,0h0c0,0,0,0,0,0L385.3,47L385.3,47z M325.6,41.1L323.1,66l29.9,3l2.5-24.9l-1.9-0.2
		l0,0h0h0l-0.1,0c0,0,0,0,0,0l0,0c0,0-0.1,0-0.1,0h0c0,0-0.1,0-0.1,0h0c0,0-0.1,0-0.1,0h0c0,0-0.1,0-0.1,0l0,0c-0.1,0-0.2,0-0.3,0
		l0,0C345.3,43.1,325.6,41.1,325.6,41.1L325.6,41.1z M265.9,35.2l-2.5,24.9l29.9,3l2.5-24.9l-23-2.3c0,0,0,0,0,0h0c0,0,0,0-0.1,0h0
		c0,0,0,0-0.1,0h0c0,0,0,0-0.1,0l0,0c0,0,0,0-0.1,0h0c0,0-0.1,0-0.1,0h0C268.5,35.5,265.9,35.2,265.9,35.2L265.9,35.2z M211,30v25
		c0.9,0,1.9,0,2.8,0.1l19.7,2l2.5-24.9l-19.7-2l0,0C214.5,30.1,212.8,30,211,30L211,30z"/>
</g>
</svg>
