<?xml version="1.0" encoding="utf-8"?>
<!-- Generator: Adobe Illustrator 26.1.0, SVG Export Plug-In . SVG Version: 6.00 Build 0)  -->
<svg version="1.1" id="レイヤー_1" xmlns="http://www.w3.org/2000/svg" xmlns:xlink="http://www.w3.org/1999/xlink" x="0px"
	 y="0px" viewBox="0 0 793.7 198.4" style="enable-background:new 0 0 793.7 198.4;" xml:space="preserve">
<style type="text/css">
	.st0{fill:#00CB4F;}
</style>
<g>
	<path class="st0" d="M733.7,69.7h-30v25h30V69.7L733.7,69.7z M673.7,69.7h-30v25h30V69.7L673.7,69.7z M613.7,69.7h-30v25h30V69.7
		L613.7,69.7z M553.7,69.7h-30v25h30V69.7L553.7,69.7z M493.7,69.7h-30v25h30V69.7L493.7,69.7z M433.7,69.7h-30v25h30V69.7
		L433.7,69.7z M373.7,69.7h-30v25h30V69.7L373.7,69.7z M313.7,69.7h-30v25h30V69.7L313.7,69.7z M253.7,69.7h-30v25h30V69.7
		L253.7,69.7z M193.7,69.7h-13.9l0,0l-13.1,9.3l14.6,20.3l6.5-4.7h5.9v-4.2l0.6-0.4l0,0l0,0l0,0l-0.6-0.8V69.7L193.7,69.7z
		 M142.3,96.5l-10.4,7.4l0,0l-0.2,0.1c0,0,0,0-0.1,0l0,0c0,0-0.1,0.1-0.1,0.1l0,0c-0.1,0.1-0.2,0.1-0.2,0.2l-0.1,0
		c-6.4,4.6-13.3,9.5-13.3,9.5l14.5,20.3l24.4-17.5L142.3,96.5L142.3,96.5z M93.5,131.5l-24.4,17.5l14.6,20.3l24.4-17.5L93.5,131.5
		L93.5,131.5z M44.7,166.4L5,194.9v3.6c0,0,17.6,0,25.8,0l0,0h12.2l16.4-11.7L44.7,166.4L44.7,166.4z M95,173.4H65v25h30V173.4
		L95,173.4z M155,173.4h-30v25h30V173.4L155,173.4z M215,173.4h-30v25h30V173.4L215,173.4z M275,173.4h-30v25h30V173.4L275,173.4z
		 M335,173.4h-30v25h30V173.4L335,173.4z M395,173.4h-30v25h30V173.4L395,173.4z M455,173.4h-30v25h30V173.4L455,173.4z M515,173.4
		h-30v25h30V173.4L515,173.4z M575,173.4h-30v25h30V173.4L575,173.4z M635,173.4h-30v25h30V173.4L635,173.4z M695,173.4h-30v25h30
		V173.4L695,173.4z M755,173.4h-30v25h30V173.4L755,173.4z M793.7,173.4H785v3.7h-16.3v21.3H785l0,0h-16.3H785l0,0h8.7V173.4
		L793.7,173.4z M793.7,117.2h-25v30h25V117.2L793.7,117.2z M793.7,69.7h-30v25h30V69.7L793.7,69.7z"/>
</g>
</svg>
