<?xml version="1.0" encoding="utf-8"?>
<!-- Generator: Adobe Illustrator 26.1.0, SVG Export Plug-In . SVG Version: 6.00 Build 0)  -->
<svg version="1.1" id="レイヤー_1" xmlns="http://www.w3.org/2000/svg" xmlns:xlink="http://www.w3.org/1999/xlink" x="0px"
	 y="0px" viewBox="0 0 793.7 198.4" style="enable-background:new 0 0 793.7 198.4;" xml:space="preserve">
<style type="text/css">
	.st0{fill:#00CB4F;}
</style>
<g>
	<path class="st0" d="M554,69.7h-30v25h30V69.7L554,69.7z M494,69.7h-30v25h30V69.7L494,69.7z M434,69.7h-30v25h30V69.7L434,69.7z
		 M374,69.7h-30v25h30V69.7L374,69.7z M314,69.7h-30v25h30V69.7L314,69.7z M253.9,69.7h-30v25h30V69.7L253.9,69.7z M193.9,69.7h-30
		v25h30V69.7L193.9,69.7z M133.9,69.7h-30v25h30V69.7L133.9,69.7z M73.9,69.7h-30v25h30V69.7L73.9,69.7z M25,69.7H0v25h13.9v-8.9H25
		V69.7L25,69.7z M25,115.8H0v30h25V115.8L25,115.8z M7.3,173.4H0v2.3l0,0v-2.3v2.3l0,0v22.7h25l0,0l0,0l0,0v-22.7H7.3V173.4
		L7.3,173.4z M67.3,173.4h-30v25h30V173.4L67.3,173.4z M127.3,173.4h-30v25h30V173.4L127.3,173.4z M187.3,173.4h-30v25h30V173.4
		L187.3,173.4z M247.3,173.4h-30v25h30V173.4L247.3,173.4z M307.3,173.4h-30v25h30V173.4L307.3,173.4z M367.3,173.4h-30v25h30V173.4
		L367.3,173.4z M427.3,173.4h-30v25h30V173.4L427.3,173.4z M487.3,173.4h-30v25h30V173.4L487.3,173.4z M547.3,173.4h-30v25h30V173.4
		L547.3,173.4z M607.3,173.4h-30v25h30V173.4L607.3,173.4z M667.3,173.4h-30v25h30V173.4L667.3,173.4z M727.3,173.4h-30v25h30V173.4
		L727.3,173.4z M750.1,167.2l-14.5,20.3l15.2,10.9h13.9l0,0c8.9,0,22.7,0,22.7,0v-4.6l-28.5-20.4l0,0
		C754.1,170,750.1,167.2,750.1,167.2L750.1,167.2z M701.3,132.3l-14.5,20.3l24.4,17.5l14.5-20.3l-10.4-7.5c-0.1-0.1-0.2-0.1-0.2-0.2
		l0,0C708.4,137.4,701.3,132.3,701.3,132.3L701.3,132.3z M652.5,97.3L638,117.7l24.4,17.5l14.5-20.3L652.5,97.3L652.5,97.3z
		 M614,69.7h-30v25h22l7.7,5.5l14.5-20.3L614,69.7L614,69.7L614,69.7z"/>
</g>
</svg>
