<?xml version="1.0" encoding="utf-8"?>
<!-- Generator: Adobe Illustrator 26.1.0, SVG Export Plug-In . SVG Version: 6.00 Build 0)  -->
<svg version="1.1" id="レイヤー_1" xmlns="http://www.w3.org/2000/svg" xmlns:xlink="http://www.w3.org/1999/xlink" x="0px"
	 y="0px" viewBox="0 0 793.7 198.43" style="enable-background:new 0 0 793.7 198.43;" xml:space="preserve">
<g>
	<path d="M733.7,69.72h-30v25h30V69.72L733.7,69.72z M673.7,69.72h-30v25h30V69.72L673.7,69.72z M613.7,69.72h-30v25h30V69.72
		L613.7,69.72z M553.7,69.72h-30v25h30V69.72L553.7,69.72z M493.7,69.72h-30v25h30V69.72L493.7,69.72z M433.7,69.72h-30v25h30V69.72
		L433.7,69.72z M373.7,69.72h-30v25h30V69.72L373.7,69.72z M313.7,69.72h-30v25h30V69.72L313.7,69.72z M253.7,69.72h-30v25h30V69.72
		L253.7,69.72z M193.7,69.72h-13.95l0,0l-13.05,9.34l14.55,20.33l6.52-4.67h5.93v-4.24l0.6-0.43l0,0l0,0l0,0l-0.6-0.84V69.72
		L193.7,69.72z M142.31,96.52l-10.38,7.43c0,0,0,0,0,0l-0.18,0.13c-0.02,0.01-0.04,0.03-0.05,0.04l-0.02,0.01
		c-0.04,0.03-0.09,0.06-0.13,0.09l-0.01,0.01c-0.09,0.06-0.17,0.12-0.25,0.18l-0.05,0.03c-6.45,4.62-13.32,9.54-13.32,9.54
		l14.55,20.33l24.39-17.47L142.31,96.52L142.31,96.52z M93.53,131.46l-24.39,17.47l14.55,20.33l24.39-17.47L93.53,131.46
		L93.53,131.46z M44.74,166.39L4.97,194.87v3.56c0,0,17.57,0,25.82,0l0,0h12.16l16.36-11.71L44.74,166.39L44.74,166.39z
		 M94.97,173.43h-30v25h30V173.43L94.97,173.43z M154.97,173.43h-30v25h30V173.43L154.97,173.43z M214.97,173.43h-30v25h30V173.43
		L214.97,173.43z M274.97,173.43h-30v25h30V173.43L274.97,173.43z M334.97,173.43h-30v25h30V173.43L334.97,173.43z M394.97,173.43
		h-30v25h30V173.43L394.97,173.43z M454.97,173.43h-30v25h30V173.43L454.97,173.43z M514.97,173.43h-30v25h30V173.43L514.97,173.43z
		 M574.97,173.43h-30v25h30V173.43L574.97,173.43z M634.97,173.43h-30v25h30V173.43L634.97,173.43z M694.97,173.43h-30v25h30V173.43
		L694.97,173.43z M754.97,173.43h-30v25h30V173.43L754.97,173.43z M793.7,173.43h-8.73v3.73H768.7v21.27h16.27l0,0H768.7h16.27l0,0
		h8.73V173.43L793.7,173.43z M793.7,117.16h-25v30h25V117.16L793.7,117.16z M793.7,69.72h-30v25h30V69.72L793.7,69.72z"/>
</g>
</svg>
