<?xml version="1.0" encoding="utf-8"?>
<!-- Generator: Adobe Illustrator 26.1.0, SVG Export Plug-In . SVG Version: 6.00 Build 0)  -->
<svg version="1.1" id="レイヤー_1" xmlns="http://www.w3.org/2000/svg" xmlns:xlink="http://www.w3.org/1999/xlink" x="0px"
	 y="0px" viewBox="0 0 793.7 198.4" style="enable-background:new 0 0 793.7 198.4;" xml:space="preserve">
<style type="text/css">
	.st0{fill:#00CB4F;}
</style>
<g>
	<path class="st0" d="M343.8,16.1c-0.1,0-0.2,0-0.3,0c0,0,0,0,0,0c-9.8,0-19.7,0.2-29.6,0.5l0.9,25c9.8-0.3,19.6-0.5,29.1-0.5
		L343.8,16.1L343.8,16.1z M283.8,18.1c-9.9,0.6-19.9,1.5-29.9,2.4l2.3,24.9c9.9-0.9,19.7-1.7,29.2-2.3L283.8,18.1L283.8,18.1z
		 M224.1,23.7c-6.3,0.8-12.7,1.6-19.1,2.4h0c-0.1,0-0.2,0-0.3,0c0,0,0,0,0,0c-0.1,0-0.2,0-0.3,0h0c-0.1,0-0.2,0-0.3,0
		c0,0-0.1,0-0.1,0c-0.2,0-0.4,0-0.6,0.1c0,0-0.1,0-0.1,0c-0.1,0-0.1,0-0.2,0c0,0-0.1,0-0.1,0c-0.1,0-0.2,0-0.3,0c0,0-0.1,0-0.1,0
		c-0.1,0-0.1,0-0.2,0c0,0-0.1,0-0.1,0c-0.1,0-0.2,0-0.3,0c0,0-0.1,0-0.1,0c-0.1,0-0.1,0-0.1,0c-0.1,0-0.1,0-0.2,0c0,0-0.1,0-0.1,0
		c-0.1,0-0.2,0-0.3,0c0,0-0.1,0-0.1,0c-0.1,0-0.1,0-0.2,0c0,0-0.1,0-0.1,0c-0.2,0-0.4,0.1-0.6,0.1c0,0,0,0,0,0
		c-1.9,0.3-3.9,0.5-5.8,0.8l3.5,24.8c9.9-1.4,19.7-2.7,29.2-3.8L224.1,23.7L224.1,23.7z M164.7,32.1c-0.3,0-0.6,0.1-0.9,0.2l0,0
		c-0.3,0-0.6,0.1-0.9,0.1c-0.1,0-0.1,0-0.2,0c-0.1,0-0.2,0-0.2,0c-0.1,0-0.1,0-0.2,0c0,0-0.1,0-0.1,0c-0.2,0-0.4,0.1-0.5,0.1
		c0,0,0,0-0.1,0c-0.1,0-0.2,0-0.3,0h0c-8,1.3-16,2.7-24.1,4.1h0c-0.3,0.1-0.6,0.1-1,0.2c0,0,0,0-0.1,0c-0.1,0-0.2,0-0.3,0
		c-0.1,0-0.1,0-0.2,0c-0.1,0-0.1,0-0.2,0c-0.1,0-0.2,0-0.3,0c0,0-0.1,0-0.1,0l4.4,24.6c9.8-1.8,19.6-3.5,29.1-5L164.7,32.1
		L164.7,32.1z M105.7,42.7C105.7,42.7,105.6,42.7,105.7,42.7c-0.2,0-0.3,0.1-0.4,0.1c0,0,0,0-0.1,0c-0.3,0.1-0.6,0.1-0.9,0.2
		c0,0,0,0,0,0c-0.1,0-0.3,0-0.4,0.1c0,0,0,0-0.1,0c-0.3,0.1-0.6,0.1-0.9,0.2c0,0,0,0,0,0c-0.1,0-0.3,0-0.4,0.1c0,0,0,0-0.1,0
		c-0.3,0.1-0.6,0.1-0.9,0.2c0,0,0,0-0.1,0c-0.1,0-0.2,0-0.4,0.1c0,0-0.1,0-0.1,0c-0.3,0.1-0.6,0.1-0.8,0.2c0,0-0.1,0-0.1,0
		c-0.1,0-0.2,0-0.3,0.1c0,0-0.1,0-0.1,0c-0.1,0-0.2,0-0.4,0.1c0,0,0,0-0.1,0c-0.1,0-0.3,0-0.4,0.1c-0.1,0-0.1,0-0.2,0
		c-0.1,0-0.2,0-0.2,0c-0.1,0-0.1,0-0.2,0c-0.1,0-0.1,0-0.2,0c-0.1,0-0.2,0-0.3,0.1c-0.1,0-0.1,0-0.2,0c-0.1,0-0.2,0-0.2,0
		c-0.1,0-0.1,0-0.2,0c-0.1,0-0.2,0-0.2,0c0,0-0.1,0-0.1,0c-0.3,0.1-0.6,0.1-0.9,0.2c0,0-0.1,0-0.1,0c-0.4,0.1-0.9,0.2-1.3,0.3
		c0,0,0,0,0,0c-4.9,1-9.8,2-14.8,3c0,0-0.1,0-0.1,0c-0.1,0-0.2,0-0.2,0c-0.1,0-0.1,0-0.2,0c-0.1,0-0.1,0-0.2,0
		c-0.3,0.1-0.6,0.1-0.8,0.2h0c-0.6,0.1-1.2,0.3-1.8,0.4l5.2,24.5c9.8-2.1,19.6-4.1,29-5.9L105.7,42.7L105.7,42.7z M47,55.1
		c0,0-0.1,0-0.1,0c-0.1,0-0.1,0-0.2,0c-0.1,0-0.1,0-0.2,0c-0.1,0-0.2,0.1-0.4,0.1c0,0,0,0,0,0c-0.2,0-0.3,0.1-0.5,0.1h0
		c-0.2,0-0.3,0.1-0.4,0.1h0c-7.1,1.6-14.3,3.2-21.5,4.9c0,0,0,0,0,0c-0.1,0-0.2,0-0.3,0.1c0,0-0.1,0-0.1,0c-0.1,0-0.2,0-0.2,0.1
		c-0.1,0-0.1,0-0.2,0c0,0,0,0,0,0c-0.2,0-0.4,0.1-0.6,0.2c0,0,0,0,0,0c-1.4,0.3-2.9,0.7-4.3,1l3.8,16H0v30h25v-22
		c9.3-2.2,18.5-4.3,27.4-6.3L47,55.1L47,55.1z M25,137.8H0v30h14.6c-4.8,1.4-9.7,2.9-14.6,4.4v26.2l0,0l0,0l0,0l0,0l0,0l0,0l0,0
		c0.6-0.2,1.2-0.4,1.9-0.6l0,0c0.5-0.1,0.9-0.3,1.4-0.4c0,0,0,0,0,0c6-1.9,12-3.7,18-5.5l0,0c0.1,0,0.2-0.1,0.4-0.1c0,0,0,0,0,0
		c0.5-0.1,0.9-0.3,1.4-0.4c0,0,0.1,0,0.1,0c0.1,0,0.2-0.1,0.3-0.1c0,0,0.1,0,0.1,0c0.1,0,0.2-0.1,0.2-0.1c0,0,0.1,0,0.2-0.1
		c0.1,0,0.1,0,0.2-0.1s0.2-0.1,0.3-0.1c0,0,0.1,0,0.1,0c0.1,0,0.3-0.1,0.4-0.1c0,0,0.1,0,0.1,0c0.1,0,0.2-0.1,0.3-0.1
		c0,0,0.1,0,0.1,0c0.1,0,0.2-0.1,0.3-0.1c0,0,0.1,0,0.1,0c0.1,0,0.2-0.1,0.4-0.1c0,0,0,0,0,0c0.6-0.2,1.2-0.3,1.8-0.5l-6.4-22.1H25
		V137.8L25,137.8z M80.2,150.1c-9.8,2.4-19.8,4.9-29.6,7.5l6.4,24.2c9.7-2.6,19.4-5.1,29.1-7.4L80.2,150.1L80.2,150.1z M140,137.1
		c-9.9,1.9-20,4-29.9,6.2l5.3,24.4c9.8-2.1,19.6-4.1,29.4-6.1L140,137.1L140,137.1z M200.3,126.8c-10,1.5-20.2,3.1-30.2,4.8
		l4.2,24.6c9.9-1.7,19.7-3.2,29.6-4.7L200.3,126.8L200.3,126.8z M261,119.4c-10.1,1-20.3,2.1-30.4,3.4l3,24.8
		c9.9-1.2,19.9-2.3,29.8-3.3L261,119.4L261,119.4z M322,114.8c-10.1,0.5-20.4,1.2-30.5,1.9l1.9,24.9c10-0.8,19.9-1.4,29.9-1.9
		L322,114.8L322,114.8z M383.1,113.1c-10.2,0.1-20.4,0.2-30.6,0.5l0.7,25c10-0.3,20-0.4,30-0.5L383.1,113.1L383.1,113.1z
		 M413.7,113.3l-0.5,25c10,0.2,20,0.5,30,0.9l1-25C434.1,113.8,423.8,113.5,413.7,113.3L413.7,113.3z M474.8,115.8l-1.6,25
		c9.9,0.6,19.9,1.4,29.9,2.2l2.1-24.9C495.1,117.2,484.8,116.5,474.8,115.8L474.8,115.8z M535.6,121l-2.7,24.9
		c9.9,1.1,19.8,2.2,29.8,3.5l3.2-24.8C555.9,123.3,545.7,122.1,535.6,121L535.6,121z M596.2,128.9l-3.7,24.7c3,0.4,6,0.9,9,1.4l0,0
		c0.8,0.1,1.6,0.2,2.3,0.4c0,0,0,0,0,0c0.1,0,0.2,0,0.3,0.1c0,0,0,0,0.1,0c0.1,0,0.2,0,0.3,0.1c0,0,0,0,0,0c0.5,0.1,1,0.2,1.5,0.2
		c0,0,0,0,0,0c0.1,0,0.2,0,0.3,0.1c0,0,0.1,0,0.1,0c0.1,0,0.2,0,0.3,0.1c0,0,0,0,0.1,0c0.1,0,0.2,0,0.3,0.1c0,0,0,0,0.1,0
		c0.5,0.1,1,0.2,1.5,0.2c0,0,0,0,0.1,0c0.1,0,0.2,0,0.3,0.1c0,0,0,0,0.1,0c0.1,0,0.2,0,0.3,0.1c0,0,0,0,0.1,0c0.1,0,0.2,0,0.4,0.1
		l0,0c0.7,0.1,1.3,0.2,2,0.3c0,0,0,0,0,0c0.1,0,0.2,0,0.4,0.1c0,0,0,0,0,0c0.8,0.1,1.6,0.3,2.3,0.4h0c0.1,0,0.3,0,0.4,0.1h0
		c0.8,0.1,1.6,0.3,2.4,0.4c0,0,0,0,0,0c0.1,0,0.2,0,0.4,0.1h0c0.7,0.1,1.3,0.2,2,0.3c0,0,0,0,0,0c0.1,0,0.2,0,0.3,0.1c0,0,0,0,0.1,0
		c0.1,0,0.2,0,0.3,0.1c0,0,0,0,0.1,0c0.4,0.1,0.8,0.1,1.2,0.2l4.2-24.6C616.3,132,606.2,130.4,596.2,128.9L596.2,128.9z M716,152
		l-5.7,24.3c0,0,0.1,0,0.1,0c0.1,0,0.1,0,0.2,0c0.1,0,0.2,0,0.2,0.1c0.1,0,0.1,0,0.2,0.1c0.1,0,0.1,0,0.2,0.1c0.1,0,0.2,0,0.3,0.1
		c0,0,0.1,0,0.1,0c0.3,0.1,0.6,0.1,0.9,0.2h0c0.1,0,0.3,0.1,0.4,0.1c0,0,0,0,0,0c0.1,0,0.3,0.1,0.4,0.1c0,0,0,0,0,0
		c0.1,0,0.3,0.1,0.4,0.1c0,0,0,0,0,0c0.1,0,0.3,0.1,0.4,0.1c0,0,0,0,0,0c4.4,1,8.8,2.1,13.2,3.2l0,0c0.2,0,0.3,0.1,0.4,0.1
		c0,0,0,0,0,0c0.1,0,0.2,0.1,0.4,0.1c0,0,0.1,0,0.1,0c0.1,0,0.2,0.1,0.3,0.1c0,0,0.1,0,0.1,0c10.3,2.6,20.5,5.2,30.9,8l5.7-8.8
		c0,0-14.7-9.5-21.6-14l0,0l-18.2-11.8C722.4,153.6,719.2,152.8,716,152L716,152z M770.5,183.4l-2.2,7.8c2.1,0.6,4.2,1.2,6.3,1.8h0
		c0.1,0,0.2,0.1,0.4,0.1c0,0,0,0,0,0c0.1,0,0.2,0.1,0.3,0.1c0,0,0.1,0,0.1,0c0.1,0,0.2,0.1,0.3,0.1c0,0,0.1,0,0.1,0
		c0.1,0,0.2,0.1,0.3,0.1c0.1,0,0.1,0,0.2,0.1c0.1,0,0.1,0,0.2,0.1c0.1,0,0.2,0,0.2,0.1c0,0,0.1,0,0.2,0c0.1,0,0.2,0.1,0.3,0.1
		c0,0,0.1,0,0.1,0c0.1,0,0.2,0.1,0.4,0.1c0,0,0,0,0,0c4.1,1.1,8.2,2.3,12.3,3.5l0,0c1.2,0.4,2.5,0.7,3.7,1.1l0,0l0,0l0,0l0,0l0,0
		l0,0L770.5,183.4L770.5,183.4z M689.9,131.2l-8.5,13.1c-8.4-1.8-16.8-3.5-25.1-5.1l-4.8,24.5c7.4,1.4,14.8,2.9,22.3,4.5h0
		c0.1,0,0.2,0.1,0.4,0.1c0,0,0,0,0,0c0.1,0,0.2,0.1,0.4,0.1c0,0,0,0,0,0c0.6,0.1,1.3,0.3,1.9,0.4c0,0,0.1,0,0.1,0
		c0.1,0,0.2,0,0.3,0.1c0,0,0.1,0,0.1,0c0.1,0,0.2,0,0.3,0.1c0,0,0.1,0,0.2,0c0.1,0,0.2,0,0.3,0.1c0,0,0.1,0,0.2,0
		c0.1,0,0.2,0,0.3,0.1c0,0,0.1,0,0.2,0c0.2,0,0.4,0.1,0.5,0.1c0,0,0.1,0,0.1,0c0.1,0,0.1,0,0.2,0.1c0.1,0,0.2,0,0.2,0.1
		c0.1,0,0.1,0,0.2,0c0.1,0,0.2,0,0.2,0.1c0.1,0,0.1,0,0.2,0c0.1,0,0.2,0,0.2,0.1c0.1,0,0.1,0,0.2,0c0.1,0,0.2,0,0.3,0.1
		c0,0,0.1,0,0.1,0l2.8-12.8l17.8,11.5l13.6-21l-17.6-11.4C693.2,133.4,689.9,131.2,689.9,131.2L689.9,131.2z M639.5,98.6l-13.6,21
		l25.2,16.3l13.6-21l-10.4-6.7c0,0,0,0,0,0l-0.1-0.1c0,0,0,0-0.1,0l0,0C647.2,103.6,639.5,98.6,639.5,98.6L639.5,98.6z M589.2,66
		l-13.6,21L589.2,66L589.2,66l-13.6,21l25.1,16.3l13.6-21L589.2,66L589.2,66L589.2,66L589.2,66L589.2,66L589.2,66L589.2,66L589.2,66
		L589.2,66L589.2,66L589.2,66z M533.5,43.7l-7.8,23.8c9,3,18,6.2,26.7,9.7l9.3-23.2C552.4,50.2,543,46.8,533.5,43.7L533.5,43.7z
		 M475.5,28.4l-5,24.5c9.4,1.9,18.8,4.1,27.8,6.5l6.3-24.2C495.1,32.7,485.4,30.4,475.5,28.4L475.5,28.4z M416.2,19.5l-2.5,24.9
		c9.7,1,19.3,2.2,28.6,3.5l3.7-24.7C436.1,21.8,426.2,20.5,416.2,19.5L416.2,19.5z M356.3,16.2l-0.4,25c9.8,0.2,19.5,0.5,29,1
		l1.4-25C376.4,16.7,366.4,16.4,356.3,16.2L356.3,16.2z"/>
</g>
</svg>
