<?xml version="1.0" encoding="utf-8"?>
<!-- Generator: Adobe Illustrator 26.1.0, SVG Export Plug-In . SVG Version: 6.00 Build 0)  -->
<svg version="1.1" id="レイヤー_1" xmlns="http://www.w3.org/2000/svg" xmlns:xlink="http://www.w3.org/1999/xlink" x="0px"
	 y="0px" viewBox="0 0 793.7 198.43" style="enable-background:new 0 0 793.7 198.43;" xml:space="preserve">
<g>
	<path d="M211.01,30.03c-0.02,0-0.05,0-0.07,0c-0.01,0-0.01,0-0.02,0c-0.02,0-0.03,0-0.05,0c-0.01,0-0.02,0-0.02,0
		c-0.02,0-0.03,0-0.05,0c-0.01,0-0.01,0-0.02,0c-0.02,0-0.05,0-0.07,0c-0.01,0-0.01,0-0.02,0c-0.02,0-0.03,0-0.05,0
		c-0.01,0-0.01,0-0.02,0c-0.02,0-0.03,0-0.05,0c-0.01,0-0.01,0-0.02,0c-0.02,0-0.05,0-0.07,0c0,0,0,0,0,0c-0.02,0-0.05,0-0.07,0
		c-0.01,0-0.02,0-0.02,0c-0.02,0-0.03,0-0.05,0c-0.01,0-0.02,0-0.02,0c-0.02,0-0.03,0-0.05,0c-0.01,0-0.01,0-0.02,0
		c-0.02,0-0.05,0-0.07,0c0,0-0.01,0-0.01,0c-0.02,0-0.04,0-0.05,0c-0.01,0-0.02,0-0.02,0c-0.02,0-0.03,0-0.05,0
		c-0.01,0-0.01,0-0.02,0c-0.02,0-0.05,0-0.07,0c0,0,0,0,0,0c-0.02,0-0.05,0-0.07,0c-0.01,0-0.01,0-0.02,0c-0.02,0-0.03,0-0.05,0
		c-0.01,0-0.02,0-0.03,0c-0.02,0-0.03,0-0.05,0c-0.01,0-0.01,0-0.02,0c-0.02,0-0.05,0-0.07,0c0,0-0.01,0-0.01,0
		c-0.02,0-0.04,0-0.06,0c-0.01,0-0.01,0-0.02,0c-0.02,0-0.03,0-0.05,0c-0.01,0-0.01,0-0.02,0c-0.02,0-0.04,0-0.06,0
		c0,0-0.01,0-0.01,0c-0.02,0-0.04,0-0.07,0c-0.01,0-0.01,0-0.02,0c-0.02,0-0.03,0-0.05,0c-0.01,0-0.02,0-0.02,0
		c-0.02,0-0.03,0-0.05,0c-0.01,0-0.01,0-0.02,0c-0.02,0-0.05,0-0.07,0c0,0-0.01,0-0.01,0c-0.02,0-0.04,0-0.06,0
		c-0.01,0-0.01,0-0.02,0c-0.02,0-0.03,0-0.05,0c-0.01,0-0.01,0-0.02,0c-0.02,0-0.04,0-0.06,0c0,0-0.01,0-0.01,0
		c-0.02,0-0.04,0-0.07,0c-0.01,0-0.02,0-0.02,0c-0.01,0-0.03,0-0.04,0c-0.01,0-0.02,0-0.03,0c-0.02,0-0.03,0-0.05,0
		c-0.01,0-0.01,0-0.02,0c-0.02,0-0.04,0-0.07,0c-0.01,0-0.02,0-0.02,0c-0.01,0-0.03,0-0.05,0c-0.01,0-0.02,0-0.03,0
		c-0.01,0-0.03,0-0.04,0c-0.01,0-0.02,0-0.03,0c-0.02,0-0.04,0-0.05,0c0,0-0.01,0-0.02,0c-0.02,0-0.04,0-0.07,0
		c-0.01,0-0.02,0-0.03,0c-0.01,0-0.03,0-0.04,0c-0.01,0-0.02,0-0.02,0c-0.02,0-0.03,0-0.05,0c-0.01,0-0.01,0-0.02,0
		c-0.02,0-0.04,0-0.07,0c-0.01,0-0.02,0-0.02,0c-0.01,0-0.03,0-0.04,0c-0.01,0-0.02,0-0.03,0c-0.01,0-0.03,0-0.04,0
		c-0.01,0-0.02,0-0.03,0c-0.02,0-0.03,0-0.05,0c-0.01,0-0.01,0-0.02,0c-0.02,0-0.04,0-0.07,0c-0.01,0-0.02,0-0.02,0
		c-0.01,0-0.03,0-0.04,0c-0.01,0-0.02,0-0.03,0c-0.01,0-0.03,0-0.04,0c-0.01,0-0.02,0-0.03,0c-0.02,0-0.04,0-0.06,0
		c-0.01,0-0.02,0-0.02,0c-0.01,0-0.03,0-0.04,0c-0.01,0-0.02,0-0.03,0c-0.01,0-0.03,0-0.04,0c-0.01,0-0.02,0-0.03,0
		c-0.01,0-0.03,0-0.04,0c-0.01,0-0.02,0-0.02,0c-0.02,0-0.04,0-0.06,0c-0.01,0-0.02,0-0.02,0c-0.01,0-0.03,0-0.04,0
		c-0.01,0-0.02,0-0.03,0c-0.01,0-0.03,0-0.04,0c-0.01,0-0.02,0-0.03,0c-0.02,0-0.04,0-0.06,0c-0.01,0-0.01,0-0.02,0
		c-0.02,0-0.03,0-0.05,0c-0.01,0-0.02,0-0.03,0c-0.01,0-0.03,0-0.04,0c-0.01,0-0.02,0-0.03,0c-0.01,0-0.03,0-0.04,0
		c-0.01,0-0.02,0-0.03,0c-0.02,0-0.04,0-0.06,0c-0.01,0-0.02,0-0.03,0c-0.01,0-0.03,0-0.04,0c-0.01,0-0.02,0-0.03,0
		c-0.01,0-0.02,0-0.04,0c-0.01,0-0.02,0-0.03,0c-0.02,0-0.03,0-0.05,0c-0.01,0-0.03,0-0.04,0c-0.01,0-0.03,0-0.04,0
		c-0.01,0-0.02,0-0.03,0c-0.01,0-0.02,0-0.03,0c-0.01,0-0.02,0-0.03,0c-0.01,0-0.03,0-0.04,0c-0.02,0-0.03,0-0.05,0
		c-0.01,0-0.03,0-0.04,0c-0.01,0-0.02,0-0.04,0c-0.01,0-0.02,0-0.03,0c-0.01,0-0.02,0-0.04,0c-0.01,0-0.02,0-0.03,0
		c-0.01,0-0.02,0-0.03,0c-0.01,0-0.03,0-0.04,0c-0.02,0-0.04,0-0.06,0.01c-0.01,0-0.02,0-0.03,0c-0.01,0-0.02,0-0.04,0
		c-0.01,0-0.02,0-0.03,0c-0.01,0-0.02,0-0.04,0c-0.01,0-0.02,0-0.03,0c-0.02,0-0.04,0-0.06,0.01c-0.01,0-0.02,0-0.03,0
		c-0.01,0-0.02,0-0.04,0c-0.01,0-0.02,0-0.03,0c-0.01,0-0.03,0-0.04,0c-0.01,0-0.02,0-0.03,0c-0.01,0-0.03,0-0.04,0
		c-0.01,0-0.02,0-0.03,0c-0.02,0-0.04,0-0.06,0.01c-0.01,0-0.02,0-0.03,0c-0.01,0-0.02,0-0.04,0c-0.01,0-0.02,0-0.03,0
		c-0.01,0-0.03,0-0.04,0c-0.01,0-0.02,0-0.03,0c-0.02,0-0.05,0.01-0.08,0.01c-0.01,0-0.02,0-0.02,0c-0.01,0-0.03,0-0.04,0
		c-0.01,0-0.02,0-0.03,0c-0.01,0-0.03,0-0.04,0c-0.01,0-0.02,0-0.03,0c-0.01,0-0.03,0-0.04,0c-0.01,0-0.01,0-0.01,0
		c-0.03,0-0.05,0.01-0.08,0.01c-0.01,0-0.02,0-0.02,0c-0.01,0-0.03,0-0.04,0c-0.01,0-0.02,0-0.02,0c-0.01,0-0.03,0-0.04,0.01
		c-0.01,0-0.01,0-0.02,0c-0.05,0.01-0.1,0.01-0.14,0.02c-0.01,0-0.02,0-0.02,0c-0.01,0-0.03,0-0.04,0.01c-0.01,0-0.02,0-0.02,0
		c-0.01,0-0.03,0-0.04,0.01c-0.01,0-0.01,0-0.02,0c-0.03,0-0.06,0.01-0.09,0.01c-0.01,0-0.01,0-0.02,0c-0.01,0-0.03,0-0.04,0.01
		c-0.01,0-0.01,0-0.02,0c-0.01,0-0.03,0-0.04,0.01c-0.01,0-0.01,0-0.02,0c-0.05,0.01-0.1,0.01-0.15,0.02c-0.01,0-0.01,0-0.02,0
		c-0.02,0-0.03,0-0.04,0.01c-0.01,0-0.01,0-0.02,0c-0.02,0-0.03,0-0.05,0.01l0,0c-0.04,0-0.07,0.01-0.11,0.02c0,0,0,0-0.01,0
		c-0.02,0-0.03,0-0.05,0.01c-0.01,0-0.01,0-0.02,0c-0.02,0-0.03,0-0.05,0.01c0,0-0.01,0-0.01,0c-0.05,0.01-0.1,0.01-0.15,0.02
		c-0.01,0-0.01,0-0.02,0c-0.02,0-0.03,0-0.05,0.01c0,0-0.01,0-0.02,0c-0.02,0-0.03,0-0.05,0.01c0,0,0,0,0,0
		c-0.04,0.01-0.07,0.01-0.11,0.02c0,0-0.01,0-0.01,0c-0.02,0-0.03,0-0.05,0.01c0,0-0.01,0-0.01,0c-0.02,0-0.03,0-0.05,0.01
		c0,0-0.01,0-0.01,0c-0.05,0.01-0.11,0.02-0.16,0.02c0,0-0.01,0-0.01,0c-0.02,0-0.03,0-0.05,0.01c0,0-0.01,0-0.01,0
		c-0.07,0.01-0.15,0.02-0.22,0.03c0,0-0.01,0-0.01,0c-0.02,0-0.04,0.01-0.05,0.01c0,0,0,0,0,0c-0.06,0.01-0.11,0.02-0.17,0.03
		c0,0,0,0-0.01,0c-0.02,0-0.04,0.01-0.05,0.01c0,0,0,0-0.01,0c-0.08,0.01-0.15,0.02-0.23,0.04c0,0,0,0,0,0
		c-0.02,0-0.04,0.01-0.06,0.01c0,0,0,0,0,0c-0.08,0.01-0.15,0.03-0.23,0.04c0,0,0,0-0.01,0c-0.07,0.01-0.15,0.03-0.22,0.04
		c0,0,0,0-0.01,0c-4.51,0.8-8.9,2.19-13.06,4.11l0,0c-0.07,0.03-0.14,0.07-0.21,0.1c0,0,0,0,0,0c-0.02,0.01-0.03,0.02-0.05,0.02
		c0,0,0,0-0.01,0c-0.07,0.03-0.14,0.06-0.2,0.1c0,0-0.01,0-0.01,0c-0.07,0.03-0.13,0.06-0.2,0.1c0,0-0.01,0-0.01,0.01
		c-0.01,0.01-0.03,0.01-0.05,0.02c0,0-0.01,0-0.01,0c-0.05,0.02-0.1,0.05-0.15,0.07c0,0,0,0,0,0c-0.01,0.01-0.03,0.02-0.05,0.02
		c0,0-0.01,0-0.01,0.01c-0.01,0.01-0.03,0.01-0.04,0.02c0,0-0.01,0-0.01,0.01c-0.03,0.02-0.06,0.03-0.09,0.05c0,0,0,0,0,0
		c-0.01,0.01-0.03,0.01-0.04,0.02c-0.01,0-0.01,0.01-0.02,0.01c-0.01,0.01-0.03,0.01-0.04,0.02c-0.01,0-0.01,0.01-0.02,0.01
		c-0.01,0.01-0.03,0.01-0.04,0.02c0,0,0,0,0,0c-0.03,0.01-0.06,0.03-0.09,0.04c0,0-0.01,0-0.01,0.01c-0.01,0.01-0.03,0.01-0.04,0.02
		c-0.01,0-0.01,0.01-0.02,0.01c-0.01,0.01-0.02,0.01-0.04,0.02c-0.01,0-0.02,0.01-0.03,0.01c-0.02,0.01-0.04,0.02-0.06,0.03
		c-0.01,0-0.02,0.01-0.02,0.01c-0.01,0.01-0.02,0.01-0.04,0.02c-0.01,0-0.02,0.01-0.02,0.01c-0.01,0.01-0.02,0.01-0.03,0.02
		c-0.01,0-0.02,0.01-0.03,0.01c-0.01,0.01-0.02,0.01-0.03,0.02c-0.01,0.01-0.02,0.01-0.04,0.02c-0.02,0.01-0.03,0.02-0.05,0.02
		c-0.01,0.01-0.02,0.01-0.03,0.02c-0.01,0.01-0.02,0.01-0.03,0.02c-0.01,0.01-0.02,0.01-0.03,0.01c-0.01,0.01-0.02,0.01-0.03,0.02
		c-0.01,0.01-0.03,0.01-0.04,0.02c-0.01,0-0.01,0.01-0.02,0.01c-0.02,0.01-0.04,0.02-0.06,0.03c-0.01,0-0.01,0.01-0.02,0.01
		c-0.01,0.01-0.03,0.01-0.04,0.02c-0.01,0-0.02,0.01-0.02,0.01c-0.01,0.01-0.03,0.01-0.04,0.02c-0.01,0-0.02,0.01-0.02,0.01
		c-0.02,0.01-0.04,0.02-0.06,0.03c0,0,0,0-0.01,0c-0.02,0.01-0.04,0.02-0.06,0.03c-0.01,0-0.01,0.01-0.02,0.01
		c-0.02,0.01-0.03,0.02-0.05,0.02c-0.01,0-0.01,0.01-0.02,0.01c-0.02,0.01-0.03,0.02-0.05,0.03c0,0-0.01,0-0.01,0.01
		c-0.02,0.01-0.04,0.02-0.06,0.03c0,0-0.01,0-0.01,0c-0.02,0.01-0.04,0.02-0.05,0.03c0,0-0.01,0-0.01,0.01
		c-0.02,0.01-0.04,0.02-0.05,0.03c0,0-0.01,0-0.01,0c-0.04,0.02-0.09,0.05-0.13,0.07c0,0,0,0,0,0c-0.02,0.01-0.04,0.02-0.06,0.03
		c0,0-0.01,0-0.01,0c-0.04,0.02-0.09,0.05-0.13,0.07c0,0,0,0,0,0c-0.02,0.01-0.04,0.02-0.06,0.03c0,0-0.01,0-0.01,0
		c-0.02,0.01-0.04,0.02-0.06,0.03c0,0,0,0,0,0c-0.04,0.02-0.09,0.05-0.13,0.07c0,0,0,0,0,0c-0.02,0.01-0.04,0.02-0.06,0.03
		c0,0,0,0,0,0c-0.07,0.04-0.13,0.07-0.2,0.11c0,0,0,0,0,0c-0.85,0.47-1.68,0.97-2.5,1.48L195.9,59.4c4.53-2.86,9.76-4.37,15.11-4.37
		V30.03L211.01,30.03L211.01,30.03z M159.66,57.58l-12.32,10.89c-0.01,0.01-0.02,0.02-0.03,0.03l-0.01,0.01
		c-0.02,0.02-0.04,0.04-0.06,0.05l-0.01,0.01c-0.04,0.04-0.08,0.07-0.12,0.11l-0.01,0.01c-5.15,4.55-9.92,8.77-9.92,8.77
		l16.56,18.73l22.47-19.87L159.66,57.58L159.66,57.58z M114.71,97.33l-5.74,5.08c-0.01,0.01-0.03,0.02-0.04,0.03l-0.01,0.01
		c-0.03,0.03-0.07,0.06-0.1,0.09l-0.02,0.02c-0.04,0.03-0.07,0.06-0.11,0.1l-0.01,0c-0.02,0.02-0.03,0.03-0.05,0.05l-0.02,0.02
		c-0.01,0.01-0.01,0.01-0.02,0.02l-0.07,0.06c-6.65,5.88-16.29,14.41-16.29,14.41l16.56,18.73l22.47-19.87L114.71,97.33
		L114.71,97.33z M104.82,133.05l-28.18,10.29l0.93,2.56l-7.8-8.82l-44.82,39.64l0.16,0.43l-0.28-0.32c0,0-0.43,0.38-1.18,1.05
		l-0.02,0.02c0,0,0,0,0,0l-0.18,0.16c0,0-0.01,0.01-0.01,0.01l-0.06,0.05c0,0-0.01,0.01-0.01,0.01L2.35,196.69l0.26,0.29
		l45.68-16.68c0.02-0.01,0.05-0.02,0.07-0.03l0.08-0.03c0.03-0.01,0.06-0.02,0.09-0.03l0.03-0.01c0.06-0.02,0.11-0.04,0.17-0.06
		l0.03-0.01c4.65-1.7,8.27-3.02,8.27-3.02l-5.69-15.59l11.81,13.36l2.74-1l16.55-14.64l2.77,7.58l28.18-10.29L104.82,133.05
		L104.82,133.05z M161.17,112.47L133,122.76l8.58,23.48l21.67-7.91c3.77-1.38,6.51-2.38,6.51-2.38L161.17,112.47L161.17,112.47z
		 M200.68,103.05l-2.46,24.88c0,0,4.93,0.49,10.78,1.07l0.01,0c0.03,0,0.05,0.01,0.08,0.01l0.01,0c0.02,0,0.05,0,0.07,0.01l0.01,0
		c0.05,0.01,0.1,0.01,0.15,0.02l0.02,0c0.02,0,0.05,0,0.07,0.01l18.65,1.85l2.46-24.88L200.68,103.05L200.68,103.05z M260.39,108.96
		l-2.46,24.88l4.45,0.44c0,0,0.01,0,0.01,0l0.02,0c0,0,0.01,0,0.01,0l0.28,0.03c0.01,0,0.01,0,0.02,0l0.02,0c0.01,0,0.02,0,0.02,0
		l0,0c0.03,0,0.06,0.01,0.09,0.01l0.01,0c0.09,0.01,0.17,0.02,0.26,0.03l0,0c8.55,0.85,24.65,2.44,24.65,2.44l2.46-24.88
		L260.39,108.96L260.39,108.96z M320.1,114.88l-2.46,24.88l20.59,2.04c0,0,0.01,0,0.01,0l0.07,0.01c0,0,0.01,0,0.01,0l0.15,0.02
		c0.02,0,0.03,0,0.05,0l0.03,0c0.02,0,0.04,0,0.06,0.01l0.02,0c0.02,0,0.04,0,0.05,0.01l0.03,0c4.94,0.49,8.79,0.87,8.79,0.87
		l2.46-24.88L320.1,114.88L320.1,114.88z M379.8,120.79l-2.46,24.88c0,0,12.17,1.21,20.97,2.08l0.01,0c0.02,0,0.04,0,0.06,0.01
		l0.03,0c0.01,0,0.02,0,0.02,0l0.01,0c0.04,0,0.07,0.01,0.11,0.01l0.03,0c0,0,0.01,0,0.01,0l0.03,0c0,0,0,0,0,0l8.57,0.85
		l2.46-24.88L379.8,120.79L379.8,120.79z M439.51,126.71l-2.46,24.88c0,0,3.06,0.3,7.23,0.72l0,0c0.02,0,0.05,0,0.07,0.01l0.01,0
		c0.01,0,0.02,0,0.03,0l0.01,0c0.01,0,0.02,0,0.03,0l0.02,0c0.01,0,0.02,0,0.03,0l0,0c0.01,0,0.02,0,0.03,0l0.01,0
		c0.02,0,0.03,0,0.05,0.01l0.11,0.01c0,0,0.01,0,0.01,0l22.22,2.2l2.46-24.88L439.51,126.71L439.51,126.71z M499.22,132.62
		l-2.46,24.88l8.56,0.85c0.02,0,0.04,0,0.06,0.01l0.07,0.01c0.01,0,0.02,0,0.02,0l0.03,0c0,0,0.01,0,0.01,0l0.14,0.01
		c0.03,0,0.05,0,0.07,0.01l0.01,0c0.1,0.01,0.21,0.02,0.31,0.03l0.01,0c0.05,0.01,0.11,0.01,0.16,0.02l0,0
		c8.75,0.87,20.41,2.02,20.41,2.02l2.46-24.88L499.22,132.62L499.22,132.62z M558.93,138.54l-2.46,24.88l27.34,2.71
		c0.01,0,0.01,0,0.01,0l0.31,0.03c0,0,0.01,0,0.01,0l0.07,0.01c0.02,0,0.03,0,0.04,0l0.03,0c0.01,0,0.01,0,0.02,0l0.02,0
		c0,0,0,0,0,0l0.05,0c0.01,0,0.02,0,0.03,0l0.01,0c0.01,0,0.03,0,0.04,0l0.01,0c0.03,0,0.06,0.01,0.08,0.01l0.01,0
		c0.06,0.01,0.11,0.01,0.17,0.02l0.01,0c1.01,0.1,1.6,0.16,1.6,0.16l2.46-24.88L558.93,138.54L558.93,138.54z M618.64,144.46
		l-2.46,24.88c0,0,9.18,0.91,17.36,1.72l0.01,0c0.05,0.01,0.11,0.01,0.16,0.02l0.03,0c0,0,0,0,0.01,0l0.03,0c0,0,0.01,0,0.01,0
		l0.04,0c0,0,0,0,0,0l12.21,1.21l2.46-24.88L618.64,144.46L618.64,144.46z M678.34,150.37l-2.46,24.88l29.85,2.96l2.46-24.88
		L678.34,150.37L678.34,150.37z M738.05,156.29l-2.46,24.88l9.22,0.91l0,0l0.27,0.03c0.01,0,0.02,0,0.03,0l0.01,0
		c0.01,0,0.01,0,0.02,0l0.03,0c0,0,0.01,0,0.01,0l0.02,0c0.01,0,0.02,0,0.03,0l0.01,0c8.72,0.86,20.2,2,20.2,2l2.46-24.88
		L738.05,156.29L738.05,156.29z M794.58,156.29h-25v28.24l17.72,1.76h7.28V156.29L794.58,156.29z M743.53,82.53l-2.46,24.88
		l28.51,2.82v16.05h25v-30h-22.27l1.07-10.8L743.53,82.53L743.53,82.53z M683.82,76.61l-2.46,24.88l29.85,2.96l2.46-24.88
		l-14.37-1.42c0,0-0.01,0-0.01,0l-0.04,0c0,0,0,0-0.01,0l-0.03,0c-0.01,0-0.01,0-0.02,0l-0.02,0c-0.01,0-0.02,0-0.03,0l-0.07-0.01
		c-0.02,0-0.04,0-0.06-0.01l-0.17-0.02c-0.03,0-0.06-0.01-0.09-0.01l-0.11-0.01C691.22,77.35,683.82,76.61,683.82,76.61
		L683.82,76.61z M624.11,70.7l-2.46,24.88l29.85,2.96l2.46-24.88c0,0-14.03-1.39-22.85-2.26l0,0c-0.01,0-0.02,0-0.03,0L624.11,70.7
		L624.11,70.7z M564.4,64.78l-2.46,24.88l29.85,2.96l2.46-24.88c0,0-3.52-0.35-8.14-0.81l-0.03,0l0,0l-0.1-0.01
		c-0.01,0-0.02,0-0.03,0l-0.03,0c0,0-0.01,0-0.01,0l-0.07-0.01c0,0-0.01,0-0.01,0L564.4,64.78L564.4,64.78z M504.7,58.87
		l-2.46,24.88l29.85,2.96l2.46-24.88l-3.55-0.35c0,0-0.01,0-0.01,0l-0.02,0c0,0,0,0-0.01,0l-0.39-0.04c0,0,0,0,0,0l-0.09-0.01
		c0,0-0.01,0-0.01,0l-0.02,0c0,0,0,0-0.01,0l-0.08-0.01c0,0-0.01,0-0.01,0l-0.01,0c-0.02,0-0.04,0-0.06-0.01l-0.01,0
		c-0.01,0-0.02,0-0.03,0l0,0c-0.01,0-0.02,0-0.02,0l-0.02,0c0,0-0.01,0-0.01,0l-0.02,0c0,0-0.01,0-0.01,0l-0.02,0
		c-0.04,0-0.08-0.01-0.12-0.01l-0.01,0c-0.04,0-0.07-0.01-0.11-0.01l-0.03,0C521.47,60.53,504.7,58.87,504.7,58.87L504.7,58.87z
		 M444.99,52.95l-2.46,24.88l29.85,2.96l2.46-24.88L444.99,52.95L444.99,52.95z M385.28,47.04l-2.46,24.88l29.85,2.96L415.13,50
		c0,0-6.34-0.63-13.18-1.31l-0.01,0c-0.02,0-0.04,0-0.06-0.01l-0.05,0c-0.02,0-0.03,0-0.05,0L385.28,47.04L385.28,47.04z
		 M325.57,41.12L323.11,66l29.85,2.96l2.46-24.88l-1.88-0.19c0,0,0,0,0,0l-0.01,0c0,0-0.01,0-0.01,0l-0.08-0.01
		c-0.01,0-0.01,0-0.02,0l0,0c-0.04,0-0.09-0.01-0.14-0.01l-0.01,0c-0.03,0-0.06-0.01-0.09-0.01l-0.01,0c-0.03,0-0.06-0.01-0.09-0.01
		l-0.01,0c-0.03,0-0.06-0.01-0.1-0.01l0,0c-0.1-0.01-0.2-0.02-0.31-0.03l0,0C345.28,43.08,325.57,41.12,325.57,41.12L325.57,41.12z
		 M265.86,35.21l-2.46,24.88l29.85,2.96l2.46-24.88l-23.05-2.28c-0.01,0-0.01,0-0.02,0l-0.03,0c-0.02,0-0.04,0-0.06-0.01l-0.01,0
		c-0.02,0-0.04,0-0.06-0.01l-0.02,0c-0.02,0-0.04,0-0.06-0.01l0,0c-0.02,0-0.04,0-0.07-0.01l-0.01,0c-0.05,0-0.09-0.01-0.14-0.01
		l-0.01,0C268.5,35.47,265.86,35.21,265.86,35.21L265.86,35.21z M211.01,30.03v25c0.93,0,1.87,0.05,2.8,0.14l19.74,1.96l2.46-24.88
		l-19.74-1.96l0,0C214.51,30.12,212.76,30.03,211.01,30.03L211.01,30.03z"/>
</g>
</svg>
