<?xml version="1.0" encoding="utf-8"?>
<!-- Generator: Adobe Illustrator 26.1.0, SVG Export Plug-In . SVG Version: 6.00 Build 0)  -->
<svg version="1.1" id="レイヤー_1" xmlns="http://www.w3.org/2000/svg" xmlns:xlink="http://www.w3.org/1999/xlink" x="0px"
	 y="0px" viewBox="0 0 793.7 198.43" style="enable-background:new 0 0 793.7 198.43;" xml:space="preserve">
<g>
	<path d="M449.91,16.1c-0.08,0-0.17,0-0.25,0c-0.03,0-0.06,0-0.08,0c-0.06,0-0.11,0-0.17,0c-0.03,0-0.06,0-0.09,0
		c-0.05,0-0.1,0-0.16,0c-0.03,0-0.06,0-0.1,0c-0.05,0-0.1,0-0.15,0c-0.04,0-0.07,0-0.11,0c-0.05,0-0.09,0-0.14,0
		c-0.04,0-0.07,0-0.11,0c-0.05,0-0.09,0-0.14,0c-0.04,0-0.07,0-0.11,0c-0.05,0-0.1,0-0.15,0c-0.03,0-0.07,0-0.1,0
		c-0.05,0-0.1,0-0.16,0c-0.03,0-0.07,0-0.1,0c-0.05,0-0.11,0-0.17,0c-0.03,0-0.05,0-0.08,0c-0.07,0-0.15,0-0.22,0
		c-0.01,0-0.02,0-0.03,0c-0.09,0-0.17,0-0.25,0c-0.01,0-0.02,0-0.03,0c-0.07,0-0.15,0-0.22,0c-0.02,0-0.05,0-0.07,0
		c-0.06,0-0.12,0-0.18,0c-0.02,0-0.05,0-0.07,0c-0.06,0-0.12,0-0.18,0c-0.03,0-0.05,0-0.08,0c-0.06,0-0.11,0-0.17,0
		c-0.03,0-0.06,0-0.09,0c-0.05,0-0.1,0-0.15,0c-0.03,0-0.07,0-0.1,0c-0.05,0-0.1,0-0.15,0c-0.03,0-0.07,0-0.1,0
		c-0.05,0-0.1,0-0.16,0c-0.03,0-0.06,0-0.09,0c-0.06,0-0.13,0-0.19,0c-0.02,0-0.04,0-0.06,0c-0.07,0-0.15,0-0.22,0
		c-0.01,0-0.02,0-0.03,0c-0.17,0-0.34,0-0.51,0c-0.01,0-0.02,0-0.03,0c-0.07,0-0.14,0-0.21,0c-0.02,0-0.05,0-0.07,0
		c-0.06,0-0.12,0-0.18,0c-0.03,0-0.06,0-0.09,0c-0.05,0-0.11,0-0.17,0c-0.03,0-0.05,0-0.08,0c-0.05,0-0.12,0-0.17,0
		c-0.03,0-0.05,0-0.08,0c-0.06,0-0.12,0-0.18,0c-0.02,0-0.05,0-0.07,0c-0.06,0-0.13,0-0.18,0c-0.02,0-0.05,0-0.07,0
		c-0.07,0-0.14,0-0.21,0c-0.01,0-0.02,0-0.03,0c-0.09,0-0.16,0-0.25,0c0,0,0,0-0.01,0c-0.17,0-0.34,0-0.51,0.01
		c-0.01,0-0.02,0-0.03,0c-0.08,0-0.15,0-0.23,0c-0.01,0-0.02,0-0.03,0c-0.07,0-0.14,0-0.21,0c-0.02,0-0.04,0-0.06,0
		c-0.06,0-0.13,0-0.19,0c-0.02,0-0.04,0-0.06,0c-0.06,0-0.12,0-0.19,0c-0.02,0-0.04,0-0.06,0c-0.06,0-0.14,0-0.2,0
		c-0.01,0-0.03,0-0.04,0c-0.07,0-0.14,0-0.21,0c-0.02,0-0.03,0-0.05,0c-0.08,0-0.15,0-0.22,0c-0.01,0-0.01,0-0.02,0
		c-0.43,0.01-0.85,0.01-1.28,0.02c0,0,0,0-0.01,0c-0.08,0-0.16,0-0.24,0c-0.01,0-0.01,0-0.02,0c-0.08,0-0.15,0-0.23,0
		c-0.01,0-0.03,0-0.04,0c-0.08,0-0.14,0-0.22,0c-0.01,0-0.02,0-0.03,0c-0.08,0-0.15,0-0.22,0c-0.01,0-0.02,0-0.03,0
		c-0.08,0-0.17,0-0.25,0h0c-0.6,0.01-1.2,0.02-1.8,0.03c0,0-0.01,0-0.01,0c-5.2,0.09-10.38,0.24-15.54,0.43l0.95,24.98
		c9.46-0.36,19.24-0.54,29.04-0.54V16.1L449.91,16.1L449.91,16.1z M389.97,18.43c-5.33,0.43-10.63,0.92-15.91,1.47
		c-0.01,0-0.01,0-0.02,0c-0.07,0.01-0.14,0.02-0.22,0.02c-0.01,0-0.01,0-0.02,0c-0.07,0.01-0.14,0.01-0.2,0.02
		c-0.02,0-0.02,0-0.04,0c-0.06,0.01-0.13,0.01-0.19,0.02c-0.02,0-0.03,0-0.04,0c-0.06,0.01-0.12,0.01-0.18,0.02
		c-0.02,0-0.04,0-0.06,0.01c-0.06,0.01-0.12,0.01-0.17,0.02c-0.02,0-0.04,0-0.06,0.01c-0.06,0.01-0.12,0.01-0.18,0.02
		c-0.03,0-0.04,0-0.07,0.01c-0.05,0.01-0.11,0.01-0.17,0.02c-0.03,0-0.05,0.01-0.08,0.01c-0.05,0.01-0.1,0.01-0.15,0.02
		c-0.03,0-0.06,0.01-0.09,0.01c-0.05,0.01-0.1,0.01-0.15,0.02c-0.03,0-0.06,0.01-0.09,0.01c-0.05,0.01-0.09,0.01-0.14,0.02
		c-0.05,0.01-0.09,0.01-0.14,0.02c-0.03,0-0.07,0.01-0.1,0.01c-0.16,0.02-0.32,0.04-0.48,0.05c-0.02,0-0.05,0.01-0.07,0.01
		c-0.06,0.01-0.11,0.01-0.17,0.02c-0.03,0-0.06,0.01-0.09,0.01c-0.05,0.01-0.11,0.01-0.16,0.02c-0.03,0-0.05,0.01-0.08,0.01
		c-0.06,0.01-0.11,0.01-0.17,0.02c-0.03,0-0.05,0.01-0.08,0.01c-0.06,0.01-0.11,0.01-0.17,0.02c-0.02,0-0.05,0.01-0.07,0.01
		c-0.06,0.01-0.12,0.01-0.18,0.02c-0.02,0-0.04,0-0.06,0.01c-0.07,0.01-0.12,0.01-0.19,0.02c-0.02,0-0.03,0-0.04,0.01
		c-0.07,0.01-0.13,0.01-0.2,0.02c-0.01,0-0.03,0-0.04,0c-0.07,0.01-0.14,0.02-0.21,0.02c-0.01,0-0.02,0-0.03,0
		c-0.07,0.01-0.15,0.02-0.22,0.02c-0.01,0-0.02,0-0.03,0c-2.89,0.33-5.76,0.67-8.64,1.04l3.16,24.8c9.34-1.19,18.99-2.19,28.69-2.97
		L389.97,18.43L389.97,18.43z M330.48,26.05c-0.02,0-0.03,0.01-0.05,0.01c-0.05,0.01-0.1,0.02-0.16,0.03
		c-0.03,0-0.05,0.01-0.07,0.01c-0.06,0.01-0.11,0.02-0.17,0.03c-0.02,0-0.04,0.01-0.06,0.01c-0.06,0.01-0.12,0.02-0.18,0.03
		c-0.01,0-0.02,0-0.03,0.01c-0.07,0.01-0.14,0.02-0.21,0.04c-0.01,0-0.01,0-0.01,0c-1.08,0.19-2.15,0.39-3.23,0.59l0,0
		c-0.08,0.01-0.15,0.03-0.23,0.04l0,0c-0.08,0.01-0.15,0.03-0.23,0.04l0,0c-0.08,0.01-0.15,0.03-0.23,0.04l-0.01,0
		c-0.07,0.01-0.15,0.03-0.22,0.04c-0.01,0-0.01,0-0.02,0c-0.07,0.01-0.14,0.03-0.21,0.04c-0.01,0-0.02,0-0.03,0.01
		c-0.07,0.01-0.13,0.03-0.2,0.04c-0.01,0-0.02,0-0.03,0.01c-0.07,0.01-0.14,0.03-0.2,0.04c-0.01,0-0.02,0-0.03,0.01
		c-0.07,0.01-0.14,0.03-0.2,0.04c-0.01,0-0.02,0-0.03,0.01c-0.07,0.01-0.14,0.03-0.21,0.04c-0.01,0-0.01,0-0.02,0
		c-0.07,0.01-0.14,0.03-0.21,0.04c-0.01,0-0.01,0-0.01,0c-0.75,0.14-1.51,0.29-2.26,0.44c-0.02,0-0.03,0.01-0.04,0.01
		c-0.06,0.01-0.12,0.02-0.17,0.03c-0.02,0-0.04,0.01-0.06,0.01c-0.05,0.01-0.1,0.02-0.15,0.03c-0.03,0.01-0.06,0.01-0.09,0.02
		c-0.05,0.01-0.1,0.02-0.15,0.03c-0.03,0.01-0.06,0.01-0.09,0.02c-0.05,0.01-0.09,0.02-0.14,0.03c-0.04,0.01-0.06,0.01-0.1,0.02
		c-0.04,0.01-0.09,0.02-0.13,0.03c-0.04,0.01-0.07,0.01-0.11,0.02c-0.04,0.01-0.08,0.02-0.12,0.02c-0.04,0.01-0.08,0.02-0.12,0.02
		c-0.04,0.01-0.07,0.01-0.11,0.02c-0.05,0.01-0.08,0.02-0.12,0.02c-0.04,0.01-0.07,0.01-0.11,0.02c-0.05,0.01-0.09,0.02-0.14,0.03
		c-0.03,0.01-0.06,0.01-0.09,0.02c-0.05,0.01-0.1,0.02-0.15,0.03c-0.03,0.01-0.06,0.01-0.08,0.02c-0.05,0.01-0.1,0.02-0.16,0.03
		c-0.03,0.01-0.05,0.01-0.08,0.02c-0.05,0.01-0.1,0.02-0.16,0.03c-0.03,0.01-0.05,0.01-0.08,0.02c-0.05,0.01-0.12,0.02-0.17,0.03
		c-0.02,0-0.04,0.01-0.06,0.01c-0.06,0.01-0.12,0.02-0.18,0.04c-0.02,0-0.04,0.01-0.05,0.01c-0.06,0.01-0.13,0.03-0.2,0.04
		c-0.01,0-0.03,0.01-0.04,0.01c-0.07,0.01-0.14,0.03-0.21,0.04c-0.01,0-0.02,0-0.03,0.01c-4.63,0.94-9.24,1.94-13.83,2.99
		c0,0,0,0-0.01,0c-0.07,0.02-0.15,0.03-0.22,0.05c-0.01,0-0.02,0-0.02,0.01c-0.07,0.02-0.13,0.03-0.2,0.05
		c-0.02,0-0.04,0.01-0.05,0.01c-0.06,0.01-0.12,0.03-0.18,0.04c-0.02,0.01-0.05,0.01-0.07,0.02c-0.05,0.01-0.11,0.02-0.16,0.04
		c-0.03,0.01-0.05,0.01-0.08,0.02c-0.05,0.01-0.1,0.02-0.15,0.03c-0.03,0.01-0.06,0.01-0.09,0.02c-0.04,0.01-0.09,0.02-0.14,0.03
		c-0.04,0.01-0.07,0.02-0.11,0.02c-0.04,0.01-0.08,0.02-0.12,0.03c-0.04,0.01-0.08,0.02-0.11,0.03c-0.04,0.01-0.07,0.02-0.11,0.03
		c-0.04,0.01-0.09,0.02-0.13,0.03c-0.03,0.01-0.06,0.01-0.09,0.02c-0.05,0.01-0.1,0.02-0.15,0.03c-0.02,0.01-0.05,0.01-0.07,0.02
		c-0.06,0.01-0.11,0.03-0.17,0.04c-0.01,0-0.02,0.01-0.04,0.01c-0.07,0.02-0.13,0.03-0.2,0.05c0,0-0.01,0-0.01,0
		c-0.15,0.04-0.3,0.07-0.44,0.1l5.76,24.33c9.12-2.16,18.55-4.11,28.02-5.81L330.48,26.05L330.48,26.05z M272.13,39.9
		c-3.45,1.03-6.88,2.11-10.3,3.22c0,0,0,0-0.01,0c-0.07,0.02-0.14,0.05-0.21,0.07c0,0-0.01,0-0.02,0.01
		c-0.07,0.02-0.13,0.04-0.2,0.06c-0.01,0-0.02,0.01-0.03,0.01c-0.06,0.02-0.13,0.04-0.19,0.06c-0.01,0-0.03,0.01-0.04,0.01
		c-0.06,0.02-0.12,0.04-0.18,0.06c-0.01,0-0.03,0.01-0.05,0.01c-0.06,0.02-0.12,0.04-0.18,0.06c-0.01,0-0.03,0.01-0.05,0.02
		c-0.06,0.02-0.11,0.04-0.17,0.06c-0.02,0.01-0.04,0.01-0.06,0.02c-0.05,0.02-0.11,0.04-0.16,0.05c-0.02,0.01-0.04,0.01-0.06,0.02
		c-0.05,0.02-0.11,0.04-0.16,0.05c-0.02,0.01-0.04,0.01-0.06,0.02c-0.05,0.02-0.11,0.04-0.16,0.05c-0.02,0.01-0.05,0.02-0.07,0.02
		c-0.05,0.02-0.1,0.03-0.14,0.05c-0.03,0.01-0.06,0.02-0.09,0.03c-0.04,0.01-0.09,0.03-0.13,0.04c-0.03,0.01-0.06,0.02-0.09,0.03
		c-0.04,0.01-0.09,0.03-0.13,0.04c-0.03,0.01-0.06,0.02-0.09,0.03c-0.05,0.01-0.09,0.03-0.14,0.04c-0.03,0.01-0.06,0.02-0.1,0.03
		c-0.04,0.01-0.08,0.03-0.12,0.04c-0.04,0.01-0.08,0.02-0.11,0.04c-0.04,0.01-0.08,0.03-0.11,0.04c-0.04,0.01-0.08,0.03-0.12,0.04
		c-0.03,0.01-0.07,0.02-0.1,0.03c-0.04,0.01-0.08,0.03-0.12,0.04c-0.03,0.01-0.07,0.02-0.1,0.03c-0.05,0.02-0.1,0.03-0.15,0.05
		c-0.02,0.01-0.04,0.01-0.07,0.02c-0.07,0.02-0.12,0.04-0.19,0.06c-0.01,0-0.02,0.01-0.03,0.01c-0.3,0.1-0.61,0.2-0.91,0.31
		c0,0-0.01,0-0.01,0c-0.07,0.02-0.15,0.05-0.22,0.07c-0.01,0-0.02,0.01-0.02,0.01c-0.06,0.02-0.14,0.05-0.2,0.07
		c-0.02,0.01-0.03,0.01-0.05,0.02c-0.06,0.02-0.12,0.04-0.18,0.06c-0.01,0-0.02,0.01-0.03,0.01c-0.06,0.02-0.13,0.04-0.19,0.06
		c-0.02,0.01-0.04,0.01-0.06,0.02c-0.06,0.02-0.11,0.04-0.17,0.06c-0.02,0.01-0.04,0.01-0.06,0.02c-0.06,0.02-0.11,0.04-0.17,0.06
		c-0.02,0.01-0.04,0.01-0.06,0.02c-0.06,0.02-0.11,0.04-0.17,0.06c-0.02,0.01-0.04,0.01-0.05,0.02c-0.06,0.02-0.11,0.04-0.17,0.06
		c-0.02,0.01-0.04,0.01-0.06,0.02c-0.06,0.02-0.11,0.04-0.17,0.06c-0.02,0.01-0.04,0.01-0.06,0.02c-0.05,0.02-0.11,0.04-0.17,0.06
		c-0.02,0.01-0.04,0.01-0.06,0.02c-0.05,0.02-0.11,0.04-0.17,0.06c-0.02,0.01-0.04,0.01-0.06,0.02c-0.06,0.02-0.11,0.04-0.17,0.06
		c-0.02,0.01-0.04,0.01-0.06,0.02c-0.06,0.02-0.11,0.04-0.17,0.06c-0.02,0.01-0.04,0.01-0.06,0.02c-0.06,0.02-0.11,0.04-0.17,0.06
		c-0.02,0.01-0.04,0.01-0.06,0.02c-0.06,0.02-0.12,0.04-0.17,0.06c-0.02,0.01-0.03,0.01-0.05,0.02c-0.06,0.02-0.12,0.04-0.18,0.06
		c-0.02,0.01-0.03,0.01-0.05,0.02c-0.06,0.02-0.12,0.04-0.18,0.06c-0.01,0.01-0.03,0.01-0.05,0.02c-0.06,0.02-0.12,0.04-0.18,0.06
		c-0.02,0.01-0.03,0.01-0.05,0.02c-0.06,0.02-0.12,0.04-0.18,0.06c-0.01,0-0.03,0.01-0.04,0.01c-0.06,0.02-0.12,0.04-0.19,0.06
		c-0.01,0-0.03,0.01-0.04,0.01c-0.06,0.02-0.13,0.04-0.19,0.07c-0.01,0-0.02,0.01-0.03,0.01c-0.06,0.02-0.13,0.05-0.19,0.07
		c-0.01,0-0.02,0.01-0.03,0.01c-0.07,0.02-0.14,0.05-0.2,0.07c-0.01,0-0.01,0.01-0.02,0.01c-0.07,0.02-0.13,0.05-0.2,0.07
		c-0.01,0-0.02,0.01-0.02,0.01c-0.07,0.02-0.14,0.05-0.21,0.07c0,0-0.01,0-0.01,0c-0.08,0.03-0.15,0.05-0.22,0.08c0,0,0,0,0,0
		c-0.98,0.35-1.97,0.7-2.95,1.05c0,0-0.01,0-0.01,0c-0.08,0.03-0.14,0.05-0.22,0.08c-0.01,0-0.01,0-0.02,0.01
		c-0.07,0.03-0.14,0.05-0.21,0.07c-0.01,0-0.02,0.01-0.02,0.01c-0.07,0.02-0.13,0.05-0.2,0.07c-0.01,0-0.02,0.01-0.04,0.01
		c-0.06,0.02-0.13,0.05-0.19,0.07c-0.01,0-0.03,0.01-0.04,0.01c-0.06,0.02-0.12,0.05-0.19,0.07c-0.01,0-0.03,0.01-0.04,0.02
		c-0.06,0.02-0.12,0.04-0.18,0.07c-0.01,0.01-0.03,0.01-0.04,0.02c-0.06,0.02-0.12,0.04-0.18,0.07c-0.02,0.01-0.03,0.01-0.05,0.02
		c-0.06,0.02-0.12,0.04-0.18,0.06c-0.02,0.01-0.03,0.01-0.05,0.02c-0.06,0.02-0.12,0.04-0.18,0.06c-0.02,0.01-0.03,0.01-0.05,0.02
		c-0.06,0.02-0.12,0.04-0.18,0.06c-0.01,0.01-0.03,0.01-0.04,0.02c-0.06,0.02-0.13,0.05-0.18,0.07c-0.01,0.01-0.03,0.01-0.04,0.02
		c-0.06,0.02-0.13,0.05-0.18,0.07c-0.01,0.01-0.03,0.01-0.04,0.02c-0.06,0.02-0.12,0.05-0.18,0.07c-0.01,0-0.03,0.01-0.04,0.01
		c-0.07,0.02-0.12,0.04-0.19,0.07c-0.01,0-0.02,0.01-0.03,0.01c-0.06,0.02-0.13,0.05-0.19,0.07c-0.01,0.01-0.03,0.01-0.04,0.02
		c-0.06,0.02-0.13,0.05-0.19,0.07c-0.01,0-0.02,0.01-0.03,0.01c-0.07,0.02-0.13,0.05-0.19,0.07c-0.01,0-0.02,0.01-0.03,0.01
		c-0.07,0.02-0.13,0.05-0.2,0.07c-0.01,0-0.01,0.01-0.02,0.01c-0.02,0.01-0.04,0.01-0.06,0.02l8.68,23.45
		c8.76-3.24,17.83-6.27,26.96-9.01L272.13,39.9L272.13,39.9z M215.91,60.74c-0.41,0.18-0.82,0.37-1.24,0.55
		c-0.01,0.01-0.02,0.01-0.04,0.02c-0.05,0.02-0.1,0.04-0.15,0.07c-0.01,0.01-0.04,0.02-0.05,0.02c-0.05,0.02-0.1,0.04-0.14,0.06
		l-0.01,0c-0.1,0.04-0.2,0.09-0.29,0.13c-0.02,0.01-0.04,0.02-0.07,0.03c-0.04,0.02-0.07,0.03-0.11,0.05
		c-0.04,0.02-0.06,0.03-0.1,0.05c-0.03,0.01-0.07,0.03-0.1,0.04c-0.04,0.02-0.07,0.03-0.11,0.05c-0.03,0.01-0.06,0.03-0.09,0.04
		c-0.05,0.02-0.1,0.05-0.15,0.07c-0.02,0.01-0.03,0.01-0.05,0.02c-0.07,0.03-0.14,0.06-0.21,0.09c-0.01,0-0.02,0.01-0.02,0.01
		c-0.06,0.03-0.12,0.05-0.18,0.08c-0.02,0.01-0.03,0.01-0.05,0.02c-0.05,0.03-0.11,0.05-0.17,0.08c-0.01,0.01-0.02,0.01-0.04,0.02
		c-2.55,1.17-5.09,2.35-7.62,3.57c-0.01,0-0.02,0.01-0.03,0.01c-0.06,0.03-0.12,0.06-0.18,0.08c-0.01,0.01-0.03,0.01-0.04,0.02
		c-0.07,0.03-0.14,0.07-0.21,0.1l0,0l-14.62,9.47l13.59,20.99l13.28-8.6c3.09-1.48,6.24-2.93,9.37-4.33L215.91,60.74L215.91,60.74z
		 M164.69,91.81l-25.18,16.3l13.59,20.99l25.18-16.3L164.69,91.81L164.69,91.81z M114.33,124.41l-25.18,16.3l6.52,10.07l4.84,21.7
		c9.81-2.19,19.59-4.27,29.35-6.25l-3.95-19.53l2.02-1.31L114.33,124.41L114.33,124.41z M13.59,189.63L0,198.43l0,0
		c5.43-1.59,10.85-3.15,16.27-4.67L13.59,189.63L13.59,189.63z M65.6,155.96L38.7,173.37l3.51,13.31c1.48-0.39,2.97-0.78,4.45-1.17
		l0,0c10.28-2.68,20.53-5.24,30.76-7.69L67,161.72L65.6,155.96L65.6,155.96z M184.92,130.84c-9.96,1.6-20.08,3.32-30.07,5.14
		l4.46,24.6c0.01,0,0.01,0,0.02,0c0.15-0.03,0.3-0.05,0.44-0.08c0,0,0,0,0.01,0c0.14-0.03,0.29-0.05,0.43-0.08
		c0.03-0.01,0.06-0.01,0.09-0.02c0.12-0.02,0.24-0.04,0.36-0.06c0.03-0.01,0.07-0.01,0.1-0.02c0.12-0.02,0.23-0.04,0.36-0.06
		c0.03,0,0.06-0.01,0.08-0.01c0.13-0.02,0.26-0.05,0.39-0.07c0.02,0,0.03-0.01,0.05-0.01c8.02-1.44,16.01-2.81,24-4.11
		c0.01,0,0.02,0,0.03-0.01c0.13-0.02,0.27-0.04,0.4-0.07c0.03,0,0.06-0.01,0.09-0.01c0.12-0.02,0.23-0.04,0.34-0.06
		c0.04-0.01,0.08-0.01,0.12-0.02c0.11-0.02,0.21-0.03,0.32-0.05c0.04-0.01,0.08-0.01,0.12-0.02c0.12-0.02,0.21-0.03,0.33-0.05
		c0.04-0.01,0.08-0.01,0.12-0.02c0.14-0.02,0.28-0.05,0.42-0.07c0.06-0.01,0.13-0.02,0.19-0.03c0.07-0.01,0.15-0.02,0.23-0.04
		c0.08-0.01,0.16-0.03,0.25-0.04c0.06-0.01,0.12-0.02,0.17-0.03c0.03-0.01,0.07-0.01,0.11-0.02L184.92,130.84L184.92,130.84z
		 M245.4,122.46c-10.04,1.17-20.23,2.48-30.29,3.87l3.43,24.76c0.02,0,0.04-0.01,0.06-0.01c0.09-0.01,0.18-0.03,0.27-0.04
		c0.06-0.01,0.12-0.02,0.18-0.03c0.07-0.01,0.14-0.02,0.22-0.03c0.31-0.04,0.62-0.09,0.93-0.13c0.03,0,0.05-0.01,0.08-0.01
		c0.11-0.02,0.23-0.03,0.34-0.05c0.02,0,0.04-0.01,0.05-0.01c0.12-0.02,0.24-0.03,0.37-0.05l0.02,0c6.39-0.87,12.76-1.7,19.13-2.48
		c0.04-0.01,0.09-0.01,0.13-0.02c0.08-0.01,0.16-0.02,0.24-0.03c0.07-0.01,0.15-0.02,0.22-0.03c0.06-0.01,0.12-0.01,0.18-0.02
		c0.1-0.01,0.18-0.02,0.28-0.03c0.05-0.01,0.09-0.01,0.14-0.02c0.13-0.02,0.25-0.03,0.38-0.05c0.01,0,0.03,0,0.04-0.01
		c2.16-0.26,4.33-0.52,6.49-0.77L245.4,122.46L245.4,122.46z M306.22,116.69c-10.09,0.73-20.33,1.59-30.44,2.55l2.36,24.89
		c2.81-0.27,5.61-0.52,8.42-0.77c0,0,0.01,0,0.01,0c0.15-0.01,0.3-0.03,0.45-0.04c0.01,0,0.01,0,0.02,0
		c0.46-0.04,0.91-0.08,1.37-0.12c0.02,0,0.05,0,0.07-0.01c0.12-0.01,0.24-0.02,0.36-0.03c0.04,0,0.07-0.01,0.11-0.01
		c0.11-0.01,0.23-0.02,0.35-0.03c0.03,0,0.07-0.01,0.1-0.01c0.12-0.01,0.27-0.02,0.39-0.03c0.02,0,0.04,0,0.06,0
		c0.15-0.01,0.29-0.03,0.44-0.04c0.03,0,0.07-0.01,0.11-0.01c0.11-0.01,0.21-0.02,0.32-0.03c0.06,0,0.11-0.01,0.17-0.01
		c0.09-0.01,0.18-0.02,0.27-0.02c0.06-0.01,0.12-0.01,0.18-0.02c0.08-0.01,0.17-0.01,0.25-0.02c0.06-0.01,0.13-0.01,0.19-0.02
		c0.08-0.01,0.16-0.01,0.25-0.02c0.06-0.01,0.12-0.01,0.19-0.02c0.13-0.01,0.26-0.02,0.39-0.03c0.08-0.01,0.16-0.01,0.24-0.02
		c0.06-0.01,0.12-0.01,0.19-0.02c0.08-0.01,0.17-0.01,0.25-0.02c0.06,0,0.11-0.01,0.16-0.01c0.09-0.01,0.18-0.01,0.27-0.02
		c0.05,0,0.1-0.01,0.15-0.01c0.09-0.01,0.19-0.02,0.28-0.02c0.03,0,0.07-0.01,0.1-0.01c0.35-0.03,0.7-0.06,1.05-0.09
		c0.02,0,0.03,0,0.05,0c0.11-0.01,0.23-0.02,0.34-0.03c0.02,0,0.04,0,0.07-0.01c0.11-0.01,0.23-0.02,0.34-0.03c0.02,0,0.03,0,0.05,0
		c3.97-0.32,7.95-0.63,11.91-0.92L306.22,116.69L306.22,116.69z M367.26,113.62c-10.12,0.28-20.4,0.68-30.55,1.19l1.25,24.97
		c5.17-0.26,10.33-0.49,15.48-0.69h0c0.23-0.01,0.46-0.02,0.7-0.03c0.01,0,0.01,0,0.02,0c0.15-0.01,0.29-0.01,0.45-0.02
		c0,0,0.01,0,0.01,0c0.22-0.01,0.45-0.02,0.68-0.03c0.02,0,0.03,0,0.05,0c0.14-0.01,0.29-0.01,0.44-0.02c0,0,0,0,0,0
		c0.22-0.01,0.46-0.02,0.68-0.02c0.01,0,0.03,0,0.04,0c0.38-0.01,0.76-0.03,1.14-0.04c0.01,0,0.01,0,0.02,0
		c0.23-0.01,0.45-0.02,0.68-0.02c0.01,0,0.02,0,0.03,0c0.14-0.01,0.28-0.01,0.43-0.01c0.01,0,0.02,0,0.03,0
		c0.23-0.01,0.45-0.02,0.68-0.02c0.01,0,0.02,0,0.02,0c0.14,0,0.3-0.01,0.45-0.02c0,0,0.01,0,0.01,0c0.22-0.01,0.46-0.02,0.68-0.02
		c0.01,0,0.02,0,0.04,0c0.14,0,0.29-0.01,0.43-0.01c0.01,0,0.02,0,0.02,0c0.23-0.01,0.44-0.01,0.67-0.02c0.01,0,0.03,0,0.04,0
		c0.22-0.01,0.45-0.01,0.67-0.02c0.01,0,0.03,0,0.04,0c0.14,0,0.26-0.01,0.4-0.01c0.02,0,0.04,0,0.06,0
		c0.22-0.01,0.44-0.01,0.66-0.02c0.02,0,0.03,0,0.05,0c0.14,0,0.27-0.01,0.41-0.01c0.01,0,0.03,0,0.04,0c0.07,0,0.15,0,0.22-0.01
		c0.01,0,0.02,0,0.03,0c0.14,0,0.27-0.01,0.41-0.01c0.03,0,0.06,0,0.09,0c0.12,0,0.24-0.01,0.36-0.01c0.02,0,0.05,0,0.07,0
		c0.06,0,0.14,0,0.21-0.01c0.03,0,0.06,0,0.09,0c0.11,0,0.22-0.01,0.34-0.01c0.04,0,0.07,0,0.11,0c0.1,0,0.19-0.01,0.29-0.01
		c0.05,0,0.1,0,0.15,0c0.06,0,0.11,0,0.17,0c0.05,0,0.11,0,0.17,0c0.08,0,0.16,0,0.24-0.01c0.06,0,0.12,0,0.18-0.01
		c0.05,0,0.1,0,0.14,0c0.09,0,0.18-0.01,0.27-0.01c0.06,0,0.1,0,0.15,0c0.02,0,0.04,0,0.06,0L367.26,113.62L367.26,113.62z
		 M404.07,113.12c-2.08,0-4.16,0-6.24,0.01l0.12,25c0.51,0,1.02,0,1.53-0.01c1.53-0.01,3.06-0.01,4.59-0.01l0,0
		c0.13,0,0.26,0,0.39,0c0.03,0,0.08,0,0.11,0c0.09,0,0.18,0,0.27,0c0.05,0,0.1,0,0.15,0c0.08,0,0.16,0,0.24,0c0.06,0,0.11,0,0.17,0
		c0.07,0,0.14,0,0.22,0c0.06,0,0.11,0,0.17,0c0.07,0,0.14,0,0.22,0c0.06,0,0.12,0,0.17,0c0.07,0,0.14,0,0.21,0c0.06,0,0.11,0,0.17,0
		c0.07,0,0.14,0,0.21,0c0.06,0,0.12,0,0.18,0c0.07,0,0.14,0,0.21,0c0.06,0,0.11,0,0.17,0c0.07,0,0.15,0,0.22,0c0.05,0,0.11,0,0.16,0
		c0.07,0,0.15,0,0.22,0c0.06,0,0.1,0,0.16,0c0.08,0,0.15,0,0.23,0c0.06,0,0.11,0,0.16,0c0.07,0,0.15,0,0.22,0c0.05,0,0.11,0,0.16,0
		c0.08,0,0.16,0,0.24,0c0.05,0,0.1,0,0.15,0c0.08,0,0.17,0,0.25,0c0.04,0,0.09,0,0.13,0c0.09,0,0.17,0,0.26,0c0.04,0,0.09,0,0.13,0
		c0.1,0,0.2,0,0.3,0c0.02,0,0.06,0,0.08,0c0.12,0,0.24,0,0.36,0c0.01,0,0.02,0,0.03,0c0.26,0,0.52,0,0.78,0c0.01,0,0.02,0,0.03,0
		c0.12,0,0.24,0,0.36,0c0.02,0,0.04,0,0.06,0c0.11,0,0.22,0,0.32,0c0.04,0,0.07,0,0.11,0c0.09,0,0.18,0,0.28,0c0.04,0,0.09,0,0.13,0
		c0.09,0,0.17,0,0.25,0c0.05,0,0.09,0,0.14,0c0.09,0,0.17,0,0.26,0c0.04,0,0.09,0,0.13,0c0.08,0,0.17,0,0.25,0c0.05,0,0.1,0,0.14,0
		c0.08,0,0.16,0,0.24,0c0.05,0,0.1,0,0.15,0c0.08,0,0.15,0,0.23,0c0.05,0,0.11,0,0.16,0c0.08,0,0.15,0,0.23,0c0.06,0,0.1,0,0.16,0
		c0.07,0,0.15,0,0.22,0c0.06,0,0.11,0,0.17,0c0.07,0,0.14,0,0.22,0c0.05,0,0.12,0,0.17,0c0.07,0,0.14,0,0.21,0c0.06,0,0.11,0,0.17,0
		c0.07,0,0.15,0,0.22,0c0.06,0,0.1,0,0.16,0c0.07,0,0.14,0,0.21,0c0.06,0,0.12,0,0.18,0c0.06,0,0.13,0,0.19,0c0.07,0,0.13,0,0.19,0
		c0.06,0,0.11,0,0.17,0c0.07,0,0.14,0,0.21,0c0.03,0,0.07,0,0.1,0c0.46,0,0.92,0.01,1.38,0.02c0.01,0,0.01,0,0.02,0
		c0.11,0,0.22,0,0.33,0c0.02,0,0.03,0,0.05,0c0.11,0,0.22,0,0.33,0c0.01,0,0.03,0,0.04,0c0.12,0,0.23,0,0.35,0c0.01,0,0.01,0,0.02,0
		c0.12,0,0.24,0,0.36,0c0,0,0.01,0,0.01,0c2.36,0.03,4.72,0.07,7.07,0.11l0.46-25C420.34,113.19,412.15,113.12,404.07,113.12
		L404.07,113.12z M458.97,114.26l-1.04,24.98c1.28,0.05,2.56,0.11,3.84,0.17l0,0c0.25,0.01,0.49,0.02,0.74,0.03
		c0.02,0,0.04,0,0.07,0c0.11,0,0.22,0.01,0.33,0.01c0.02,0,0.07,0,0.09,0c0.09,0,0.19,0.01,0.28,0.01c0.04,0,0.08,0,0.12,0.01
		c0.08,0,0.16,0.01,0.24,0.01c0.04,0,0.1,0,0.14,0.01c0.09,0,0.18,0.01,0.27,0.01c0.06,0,0.11,0.01,0.17,0.01
		c0.05,0,0.1,0,0.15,0.01c0.11,0,0.2,0.01,0.3,0.01c0.03,0,0.07,0,0.1,0c0.22,0.01,0.44,0.02,0.66,0.03c0.01,0,0.01,0,0.02,0
		c0.15,0.01,0.3,0.01,0.45,0.02c0,0,0,0,0.01,0c7.34,0.35,14.67,0.76,21.98,1.24l1.62-24.95
		C479.39,115.23,469.11,114.68,458.97,114.26L458.97,114.26z M520,118.23l-2.21,24.9c1.95,0.17,3.89,0.35,5.83,0.53
		c0.01,0,0.02,0,0.04,0c0.14,0.01,0.26,0.02,0.4,0.04c0.02,0,0.05,0,0.07,0.01c0.14,0.01,0.29,0.03,0.42,0.04c0.01,0,0.01,0,0.02,0
		c0.06,0.01,0.13,0.01,0.18,0.02c0.05,0.01,0.11,0.01,0.16,0.02c0.07,0.01,0.14,0.01,0.22,0.02c0.07,0.01,0.13,0.01,0.2,0.02
		c0.04,0,0.1,0.01,0.14,0.01c0.1,0.01,0.19,0.02,0.29,0.03c0.04,0,0.06,0.01,0.1,0.01c0.09,0.01,0.18,0.02,0.27,0.03
		c0.02,0,0.04,0,0.07,0.01c0.11,0.01,0.22,0.02,0.33,0.03c0.02,0,0.04,0,0.07,0.01c0.11,0.01,0.23,0.02,0.34,0.03
		c0.02,0,0.02,0,0.04,0c0.24,0.02,0.49,0.05,0.73,0.07c0.01,0,0.02,0,0.02,0c6.65,0.64,13.28,1.33,19.9,2.08l2.79-24.84
		C540.35,120.15,530.11,119.12,520,118.23L520,118.23z M580.79,125.05l-3.37,24.77c7.72,1.05,15.41,2.17,23.1,3.36l0.01,0
		c0.12,0.02,0.25,0.04,0.37,0.06l0.01,0c0.12,0.02,0.24,0.04,0.36,0.06c0.01,0,0.02,0,0.02,0c0.11,0.02,0.22,0.03,0.33,0.05
		c0.03,0,0.05,0.01,0.08,0.01c0.1,0.02,0.21,0.03,0.31,0.05c0.03,0,0.06,0.01,0.09,0.01c0.08,0.01,0.16,0.03,0.25,0.04
		c0.04,0.01,0.07,0.01,0.11,0.02c0.09,0.01,0.18,0.03,0.28,0.04c0.05,0.01,0.1,0.02,0.15,0.02c0.06,0.01,0.12,0.02,0.18,0.03
		c0.09,0.01,0.18,0.03,0.27,0.04c0.03,0.01,0.07,0.01,0.1,0.02c0.22,0.03,0.42,0.07,0.64,0.1c0.01,0,0.02,0,0.03,0
		c1,0.16,1.99,0.32,2.99,0.47l3.95-24.69C601.02,127.93,590.84,126.42,580.79,125.05L580.79,125.05z M641.18,134.72l-4.53,24.59
		c0.76,0.14,1.54,0.28,2.3,0.43c0,0,0.01,0,0.01,0c0.14,0.03,0.3,0.06,0.44,0.08c0.01,0,0.02,0,0.03,0.01
		c0.45,0.08,0.9,0.17,1.34,0.25c0.03,0.01,0.06,0.01,0.09,0.02c0.11,0.02,0.23,0.04,0.34,0.06c0.04,0.01,0.09,0.02,0.13,0.02
		c0.1,0.02,0.2,0.04,0.31,0.06c0.04,0.01,0.09,0.02,0.13,0.02c0.12,0.02,0.23,0.04,0.35,0.07c0.03,0.01,0.05,0.01,0.08,0.02
		c0.13,0.03,0.28,0.05,0.41,0.08c0.05,0.01,0.1,0.02,0.16,0.03c0.09,0.02,0.18,0.03,0.26,0.05c0.06,0.01,0.13,0.02,0.19,0.04
		c0.08,0.01,0.15,0.03,0.23,0.04c0.07,0.01,0.13,0.03,0.2,0.04c0.08,0.01,0.15,0.03,0.22,0.04c0.07,0.01,0.13,0.03,0.2,0.04
		c0.08,0.01,0.16,0.03,0.24,0.04c0.13,0.02,0.26,0.05,0.39,0.07c0.06,0.01,0.12,0.02,0.17,0.03c0.08,0.02,0.17,0.03,0.25,0.05
		c0.05,0.01,0.11,0.02,0.17,0.03c0.08,0.02,0.17,0.03,0.25,0.05c0.06,0.01,0.1,0.02,0.16,0.03c0.09,0.02,0.17,0.03,0.26,0.05
		c0.05,0.01,0.09,0.02,0.14,0.03c0.31,0.06,0.62,0.12,0.93,0.18c0.04,0.01,0.08,0.02,0.12,0.02c0.09,0.02,0.18,0.04,0.27,0.05
		c0.05,0.01,0.1,0.02,0.14,0.03c0.09,0.02,0.18,0.03,0.27,0.05c0.05,0.01,0.08,0.02,0.13,0.02c0.09,0.02,0.19,0.04,0.28,0.06
		c0.01,0,0.03,0,0.03,0.01c0.22,0.04,0.43,0.08,0.65,0.13c0.02,0,0.06,0.01,0.08,0.02c0.09,0.02,0.19,0.04,0.28,0.05
		c0.05,0.01,0.08,0.02,0.13,0.03c0.09,0.02,0.18,0.04,0.27,0.05c0.04,0.01,0.09,0.02,0.13,0.03c0.09,0.02,0.19,0.04,0.28,0.05
		c0.04,0.01,0.08,0.01,0.11,0.02c0.31,0.06,0.62,0.12,0.93,0.18c0.05,0.01,0.09,0.02,0.14,0.03c0.08,0.02,0.17,0.03,0.25,0.05
		c0.05,0.01,0.11,0.02,0.17,0.03c0.08,0.02,0.17,0.03,0.25,0.05c0.05,0.01,0.11,0.02,0.17,0.03c0.08,0.02,0.17,0.03,0.25,0.05
		c0.05,0.01,0.09,0.02,0.15,0.03c0.15,0.03,0.31,0.06,0.46,0.09c0.06,0.01,0.12,0.02,0.18,0.04c0.07,0.01,0.15,0.03,0.22,0.04
		c0.07,0.01,0.13,0.03,0.2,0.04c0.07,0.01,0.15,0.03,0.22,0.04c0.07,0.01,0.13,0.03,0.2,0.04c0.07,0.01,0.14,0.03,0.21,0.04
		c0.08,0.02,0.16,0.03,0.23,0.05c0.06,0.01,0.12,0.02,0.18,0.04c0.13,0.03,0.27,0.05,0.4,0.08c0.05,0.01,0.1,0.02,0.15,0.03
		c0.09,0.02,0.18,0.04,0.28,0.06c0.06,0.01,0.11,0.02,0.17,0.03c0.09,0.02,0.18,0.04,0.27,0.05c0.05,0.01,0.1,0.02,0.16,0.03
		c0.09,0.02,0.2,0.04,0.3,0.06c0.04,0.01,0.08,0.02,0.13,0.03c0.28,0.06,0.58,0.12,0.86,0.17c0.03,0.01,0.06,0.01,0.08,0.02
		c0.12,0.02,0.24,0.05,0.35,0.07c0.03,0.01,0.06,0.01,0.09,0.02c0.13,0.03,0.24,0.05,0.36,0.07c0.02,0,0.05,0.01,0.07,0.01
		c0.45,0.09,0.9,0.18,1.35,0.27c0.01,0,0.01,0,0.02,0c0.15,0.03,0.29,0.06,0.44,0.09c0.01,0,0.01,0,0.02,0
		c1.98,0.4,3.98,0.81,5.96,1.23l5.1-24.47C661.25,138.54,651.15,136.56,641.18,134.72L641.18,134.72z M701.05,147.19l-5.66,24.35
		c9.74,2.26,19.45,4.64,29.14,7.13l6.22-24.22C720.9,151.92,710.91,149.48,701.05,147.19L701.05,147.19z M793.7,150.37h-25v14.41
		c-2.82-0.81-5.63-1.61-8.44-2.4l-6.76,24.07c9.62,2.7,19.22,5.52,28.79,8.44l4.43-14.52h6.98V150.37L793.7,150.37z M793.7,90.37
		h-25v30h25V90.37L793.7,90.37z M758.98,57.87l-5.57,24.37c9.38,2.14,19.12,4.43,28.97,6.78l5.82-24.31
		C778.43,62.38,768.69,60.1,758.98,57.87L758.98,57.87z M700.34,45.18l-4.97,24.5c9.43,1.91,19.2,3.97,29.04,6.1l5.29-24.43
		c-7.74-1.68-15.44-3.31-23.14-4.89c-0.02,0-0.04-0.01-0.06-0.01c-0.09-0.02-0.2-0.04-0.3-0.06c-0.03-0.01-0.05-0.01-0.08-0.02
		c-0.17-0.03-0.33-0.07-0.5-0.1c-0.05-0.01-0.1-0.02-0.16-0.03c-0.06-0.01-0.15-0.03-0.21-0.04c-0.07-0.01-0.14-0.03-0.21-0.04
		c-0.06-0.01-0.11-0.02-0.18-0.04c-0.12-0.02-0.24-0.05-0.35-0.07c-0.03-0.01-0.07-0.01-0.1-0.02c-0.12-0.02-0.24-0.05-0.36-0.07
		c-0.04-0.01-0.08-0.02-0.12-0.02c-0.11-0.02-0.22-0.05-0.34-0.07c-0.03-0.01-0.04-0.01-0.07-0.01
		C702.46,45.61,701.4,45.4,700.34,45.18L700.34,45.18z M641.36,34.15l-4.19,24.65c9.48,1.61,19.28,3.36,29.12,5.21l4.61-24.57
		c-5.48-1.03-10.96-2.03-16.42-3c-0.01,0-0.02,0-0.03,0c-0.11-0.02-0.21-0.04-0.32-0.06c-0.01,0-0.03-0.01-0.04-0.01
		c-0.19-0.03-0.39-0.07-0.58-0.1c-0.03,0-0.05-0.01-0.08-0.01c-0.08-0.01-0.18-0.03-0.25-0.04c-0.05-0.01-0.1-0.02-0.15-0.03
		c-0.07-0.01-0.15-0.03-0.22-0.04c-0.08-0.01-0.16-0.03-0.24-0.04c-0.09-0.02-0.18-0.03-0.27-0.05c-0.09-0.02-0.18-0.03-0.27-0.05
		c-0.06-0.01-0.11-0.02-0.16-0.03c-0.09-0.02-0.18-0.03-0.26-0.05c-0.05-0.01-0.09-0.02-0.14-0.03c-0.14-0.02-0.27-0.05-0.4-0.07
		c-0.01,0-0.04-0.01-0.05-0.01c-0.12-0.02-0.25-0.04-0.37-0.07c-0.03,0-0.07-0.01-0.1-0.02c-0.13-0.02-0.27-0.05-0.4-0.07
		c-0.01,0-0.01,0-0.01,0c-0.3-0.05-0.6-0.11-0.9-0.16c-0.01,0-0.02,0-0.03-0.01C646.56,35.04,643.96,34.59,641.36,34.15
		C641.36,34.15,641.36,34.15,641.36,34.15L641.36,34.15z M582.03,25.24l-3.19,24.8c9.51,1.22,19.33,2.6,29.18,4.08l3.72-24.72
		c-0.42-0.06-0.84-0.13-1.26-0.19c-0.01,0-0.02,0-0.04-0.01c-0.11-0.02-0.21-0.03-0.32-0.05c0,0,0,0,0,0
		c-0.11-0.02-0.21-0.03-0.31-0.05c-0.02,0-0.04-0.01-0.06-0.01c-0.08-0.01-0.16-0.02-0.24-0.04c-0.03,0-0.05-0.01-0.08-0.01
		c-0.1-0.01-0.18-0.03-0.28-0.04c-0.03,0-0.06-0.01-0.09-0.01c-0.07-0.01-0.15-0.02-0.22-0.03c-0.03,0-0.06-0.01-0.09-0.01
		c-0.09-0.01-0.19-0.03-0.28-0.04c-0.03,0-0.06-0.01-0.08-0.01c-0.07-0.01-0.14-0.02-0.21-0.03c-0.03-0.01-0.07-0.01-0.1-0.02
		c-0.08-0.01-0.17-0.03-0.26-0.04c-0.03,0-0.06-0.01-0.09-0.01c-0.08-0.01-0.15-0.02-0.23-0.03c-0.04-0.01-0.09-0.01-0.13-0.02
		c-0.06-0.01-0.12-0.02-0.18-0.03c-0.04-0.01-0.08-0.01-0.13-0.02c-0.08-0.01-0.16-0.02-0.24-0.03c-0.05-0.01-0.1-0.01-0.15-0.02
		c-0.06-0.01-0.1-0.01-0.16-0.02c-0.04-0.01-0.09-0.01-0.13-0.02c-0.08-0.01-0.18-0.03-0.26-0.04c-0.03-0.01-0.07-0.01-0.1-0.02
		c-0.07-0.01-0.13-0.02-0.2-0.03c-0.03,0-0.07-0.01-0.1-0.01c-0.09-0.01-0.19-0.03-0.28-0.04c-0.03,0-0.05-0.01-0.08-0.01
		c-0.08-0.01-0.15-0.02-0.23-0.03c-0.03,0-0.06-0.01-0.08-0.01c-0.2-0.03-0.4-0.06-0.6-0.09c-0.02,0-0.05-0.01-0.07-0.01
		c-0.09-0.01-0.19-0.03-0.28-0.04c-0.01,0-0.02,0-0.03,0c-0.1-0.02-0.21-0.03-0.31-0.04c-0.02,0-0.03,0-0.05-0.01
		c-0.1-0.02-0.2-0.03-0.3-0.04c0,0,0,0-0.01,0c-0.11-0.02-0.22-0.03-0.33-0.05c0,0-0.01,0-0.01,0c-0.11-0.02-0.21-0.03-0.32-0.05
		c0,0-0.01,0-0.01,0C595.81,27.07,588.91,26.13,582.03,25.24L582.03,25.24z M522.36,19.03l-1.94,24.92
		c9.53,0.74,19.36,1.64,29.22,2.67l2.6-24.86c-0.54-0.06-1.08-0.11-1.61-0.17c-0.01,0-0.03,0-0.04,0c-0.06-0.01-0.12-0.01-0.18-0.02
		c-0.05,0-0.08-0.01-0.13-0.01c-0.05,0-0.09-0.01-0.14-0.01c-0.1-0.01-0.18-0.02-0.27-0.03c-0.03,0-0.05-0.01-0.08-0.01
		c-0.08-0.01-0.16-0.02-0.24-0.02c-0.02,0-0.04,0-0.06-0.01C540.39,20.55,531.35,19.73,522.36,19.03L522.36,19.03z M462.44,16.2
		l-0.37,25c9.5,0.14,19.31,0.45,29.15,0.92l1.2-24.97c-7.43-0.36-14.8-0.62-22.16-0.8c0,0,0,0,0,0c-0.31-0.01-0.63-0.01-0.94-0.02
		c-0.01,0-0.02,0-0.03,0c-0.2,0-0.41-0.01-0.61-0.01c-0.01,0-0.03,0-0.04,0c-0.09,0-0.17,0-0.25-0.01c-0.02,0-0.04,0-0.06,0
		c-0.1,0-0.19,0-0.29-0.01c-0.01,0-0.01,0-0.02,0c-0.09,0-0.18,0-0.26-0.01c-0.04,0-0.07,0-0.1,0c-0.06,0-0.12,0-0.18,0
		c-0.04,0-0.07,0-0.11,0c-0.09,0-0.17,0-0.26-0.01c-0.04,0-0.08,0-0.12,0c-0.05,0-0.1,0-0.15,0c-0.05,0-0.1,0-0.15,0
		c-0.03,0-0.08,0-0.11,0c-0.12,0-0.24,0-0.36-0.01c-0.01,0-0.02,0-0.03,0c-0.06,0-0.13,0-0.19,0c-0.02,0-0.04,0-0.06,0
		c-0.07,0-0.14,0-0.21,0c-0.01,0,0,0-0.01,0C464.61,16.23,463.52,16.21,462.44,16.2L462.44,16.2z"/>
</g>
</svg>
