<?xml version="1.0" encoding="utf-8"?>
<!-- Generator: Adobe Illustrator 26.1.0, SVG Export Plug-In . SVG Version: 6.00 Build 0)  -->
<svg version="1.1" id="レイヤー_1" xmlns="http://www.w3.org/2000/svg" xmlns:xlink="http://www.w3.org/1999/xlink" x="0px"
	 y="0px" viewBox="0 0 793.7 198.43" style="enable-background:new 0 0 793.7 198.43;" xml:space="preserve">
<g>
	<path d="M553.95,69.72h-30v25h30V69.72L553.95,69.72z M493.95,69.72h-30v25h30V69.72L493.95,69.72z M433.95,69.72h-30v25h30V69.72
		L433.95,69.72z M373.95,69.72h-30v25h30V69.72L373.95,69.72z M313.95,69.72h-30v25h30V69.72L313.95,69.72z M253.95,69.72h-30v25h30
		V69.72L253.95,69.72z M193.95,69.72h-30v25h30V69.72L193.95,69.72z M133.95,69.72h-30v25h30V69.72L133.95,69.72z M73.95,69.72h-30
		v25h30V69.72L73.95,69.72z M25,69.72H0v25h13.95v-8.95H25V69.72L25,69.72z M25,115.76H0v30h25V115.76L25,115.76z M7.34,173.43H0
		v2.34l0,0v-2.34v2.34l0,0v22.66h25l0,0l0,0l0,0v-22.66H7.34V173.43L7.34,173.43z M67.34,173.43h-30v25h30V173.43L67.34,173.43z
		 M127.34,173.43h-30v25h30V173.43L127.34,173.43z M187.34,173.43h-30v25h30V173.43L187.34,173.43z M247.34,173.43h-30v25h30V173.43
		L247.34,173.43z M307.34,173.43h-30v25h30V173.43L307.34,173.43z M367.34,173.43h-30v25h30V173.43L367.34,173.43z M427.34,173.43
		h-30v25h30V173.43L427.34,173.43z M487.34,173.43h-30v25h30V173.43L487.34,173.43z M547.34,173.43h-30v25h30V173.43L547.34,173.43z
		 M607.34,173.43h-30v25h30V173.43L607.34,173.43z M667.34,173.43h-30v25h30V173.43L667.34,173.43z M727.34,173.43h-30v25h30V173.43
		L727.34,173.43z M750.09,167.2l-14.55,20.33l15.22,10.9h13.87l0,0c8.88,0,22.71,0,22.71,0v-4.56l-28.55-20.44l0,0
		C754.06,170.04,750.09,167.2,750.09,167.2L750.09,167.2z M701.31,132.27l-14.55,20.33l24.39,17.47l14.55-20.33l-10.44-7.47
		c-0.08-0.06-0.17-0.12-0.25-0.18l-0.02-0.02C708.44,137.37,701.31,132.27,701.31,132.27L701.31,132.27z M652.52,97.34l-14.55,20.33
		l24.39,17.47l14.55-20.33L652.52,97.34L652.52,97.34z M613.95,69.72h-30v25h21.97l7.65,5.48l14.55-20.33L613.95,69.72L613.95,69.72
		L613.95,69.72z"/>
</g>
</svg>
