<?xml version="1.0" encoding="utf-8"?>
<!-- Generator: Adobe Illustrator 26.1.0, SVG Export Plug-In . SVG Version: 6.00 Build 0)  -->
<svg version="1.1" id="レイヤー_1" xmlns="http://www.w3.org/2000/svg" xmlns:xlink="http://www.w3.org/1999/xlink" x="0px"
	 y="0px" viewBox="0 0 793.7 198.4" style="enable-background:new 0 0 793.7 198.4;" xml:space="preserve">
<style type="text/css">
	.st0{fill:#C90018;}
</style>
<g>
	<path class="st0" d="M185.9,6.7L165,28.2l17.9,17.4l20.9-21.5L185.9,6.7L185.9,6.7L185.9,6.7z M144.1,49.8l-20.9,21.5l18,17.4
		l20.9-21.5L144.1,49.8L144.1,49.8z M102.3,92.8c0,0-2.8,2.8-6.3,6.5l0,0l-0.1,0.1l-0.1,0.1l0,0l-14.5,14.9l17.9,17.4l20.9-21.5
		L102.3,92.8L102.3,92.8z M60.6,135.9c0,0-15.1,15.6-19.6,20.2l0,0L25.6,172l4.9,13.8c1.1-0.4,2.2-0.8,3.3-1.2l0,0
		c0.1,0,0.2-0.1,0.3-0.1l0,0h0.1c7.9-2.7,16.2-5.3,24.8-7.6l-0.8-2.8l20.2-20.8L60.6,135.9L60.6,135.9z M18.8,179L0,198.4l0,0l0,0
		l0,0l0,0l0,0l0,0l0,0l0,0c8.5-4.1,17.5-7.8,27.1-11.3L18.8,179L18.8,179z M113.7,139.7c-10.5,1.7-20.8,3.7-30.6,5.8l5.2,24.4
		c2.6-0.6,5.1-1.1,7.8-1.6l0,0c0.1,0,0.3-0.1,0.4-0.1l0,0c0.1,0,0.2,0,0.2-0.1l0,0c0.1,0,0.3-0.1,0.4-0.1c0,0,0,0,0.1,0s0.1,0,0.2,0
		c0,0,0,0,0.1,0s0.1,0,0.2,0h0.1h0.1H98c0.1,0,0.1,0,0.2,0h0.1h0.1c0.1,0,0.1,0,0.2,0h0.1c0.1,0,0.1,0,0.2,0c0,0,0,0,0.1,0
		s0.1,0,0.2,0c0,0,0,0,0.1,0s0.1,0,0.2,0c0,0,0,0,0.1,0s0.1,0,0.2,0l0,0c0.1,0,0.1,0,0.2,0l0,0c0.1,0,0.1,0,0.2,0l0,0
		c0.1,0,0.3-0.1,0.4-0.1l0,0c0.1,0,0.2,0,0.2,0l0,0c5.7-1.1,11.4-2.1,17.3-3.1L113.7,139.7L113.7,139.7z M174.9,131.9
		c-10.4,1-20.8,2.1-30.6,3.3l3.1,24.8c6.1-0.8,12.2-1.5,18.5-2.1l0,0c0.1,0,0.3,0,0.4-0.1c0,0,0,0,0.1,0s0.1,0,0.2,0h0.1h0.1h0.1
		h0.1c0.1,0,0.1,0,0.2,0h0.1c0.1,0,0.1,0,0.1,0s0,0,0.1,0s0.1,0,0.2,0c0,0,0,0,0.1,0s0.1,0,0.2,0l0,0c0.1,0,0.1,0,0.2,0l0,0
		c3-0.3,6-0.6,9-0.9L174.9,131.9L174.9,131.9z M236.1,128c-10.4,0.4-20.7,0.9-30.6,1.6l1.6,24.9c3.9-0.2,7.8-0.5,11.8-0.7l0,0
		c0.2,0,0.3,0,0.5,0l0,0c0.1,0,0.1,0,0.2,0c0,0,0,0,0.1,0s0.1,0,0.2,0l0,0c0.1,0,0.1,0,0.2,0c0,0,0,0,0.1,0s0.1,0,0.1,0h0.1h0.1
		c0.1,0,0.1,0,0.2,0h0.1h0.1h0.1h0.1l0,0c0.1,0,0.2,0,0.3,0l0,0c0.1,0,0.1,0,0.1,0l0,0c3-0.2,6.1-0.3,9.2-0.4l0,0c0.2,0,0.4,0,0.5,0
		l0,0c0.1,0,0.1,0,0.2,0l0,0c0.1,0,0.1,0,0.2,0l0,0c0.1,0,0.2,0,0.2,0h0.1h0.1h0.1h0.1c0.1,0,0.1,0,0.2,0l0,0c0.1,0,0.1,0,0.2,0l0,0
		c1.4-0.1,2.9-0.1,4.3-0.2L236.1,128L236.1,128z M295.9,126.9c-9.9,0-19.8,0.1-29.3,0.3l0.5,25c5.9-0.1,11.9-0.2,18-0.2l0,0
		c0.4,0,0.7,0,1.1,0l0,0c0,0,0.1,0,0.2,0l0,0c0.1,0,0.1,0,0.2,0l0,0c0.2,0,0.5,0,0.7,0l0,0h0.1c0,0,0,0,0.1,0h0.1c0,0,0,0,0.1,0
		s0.2,0,0.3,0l0,0h0.1c0,0,0,0,0.1,0s0.1,0,0.1,0h0.1c0,0,0,0,0.1,0h0.1h0.1h0.1h0.1c0.1,0,0.1,0,0.2,0h0.1h0.1h0.1h0.1h0.1h0.1h0.1
		h0.1c0,0,0,0,0.1,0s0.1,0,0.2,0l0,0c0.1,0,0.1,0,0.2,0c0,0,0,0,0.1,0h0.1h0.1h0.1h0.1c0.1,0,0.1,0,0.2,0l0,0c0.1,0,0.1,0,0.2,0l0,0
		c0.1,0,0.1,0,0.2,0l0,0c0.1,0,0.1,0,0.2,0c0,0,0,0,0.1,0s0.1,0,0.2,0l0,0c0.1,0,0.1,0,0.2,0c0,0,0,0,0.1,0s0.1,0,0.2,0
		c0,0,0,0,0.1,0h0.1c0,0,0,0,0.1,0h0.1c0,0,0,0,0.1,0h0.1c0,0,0,0,0.1,0s0.1,0,0.2,0l0,0c0.1,0,0.1,0,0.2,0l0,0c0.1,0,0.1,0,0.2,0
		l0,0c0.1,0,0.1,0,0.2,0c0,0,0,0,0.1,0h0.1c0,0,0,0,0.1,0s0.1,0,0.2,0c0,0,0,0,0.1,0s0.1,0,0.2,0l0,0c0.1,0,0.1,0,0.2,0h0.1h0.1h0.1
		h0.1h0.1c0.1,0,0.1,0,0.2,0l0,0l0,0c0.2,0,0.4,0,0.6,0s0.4,0,0.5,0v-25L295.9,126.9L295.9,126.9z M327.5,127.2l-0.4,25
		c9.8,0.2,19.8,0.4,30,0.8l0.8-25C347.6,127.6,337.4,127.3,327.5,127.2L327.5,127.2z M388.2,129.1l-1.1,25c9.8,0.4,19.8,1,29.9,1.6
		l1.5-25C408.3,130.1,398.1,129.6,388.2,129.1L388.2,129.1z M448.7,132.6l-1.7,24.9c2.6,0.2,5.2,0.4,7.9,0.6l0,0c0,0,0.1,0,0.2,0
		h0.1h0.1c3.4,0.2,6.8,0.5,10.2,0.8c0.3,0,0.6,0,0.9,0.1l0,0c3.5,0.3,7,0.5,10.6,0.8l2-24.9C468.7,134.1,458.5,133.3,448.7,132.6
		L448.7,132.6z M509,137.4l-2.2,24.9c1.2,0.1,2.5,0.2,3.7,0.3l0,0c0.1,0,0.3,0,0.4,0c0,0,0,0,0.1,0s0.2,0,0.4,0h0.1
		c0.1,0,0.2,0,0.3,0c0.1,0,0.1,0,0.2,0c0.1,0,0.2,0,0.3,0s0.1,0,0.2,0c0.1,0,0.1,0,0.2,0c0.1,0,0.2,0,0.3,0s0.1,0,0.2,0
		c0.1,0,0.2,0,0.3,0c0,0,0.1,0,0.2,0c0.1,0,0.2,0,0.3,0h0.1c0.1,0,0.2,0,0.4,0h0.1c0.1,0,0.3,0,0.4,0l0,0c7.2,0.7,14.4,1.4,21.7,2.1
		l2.5-24.9C529,139.3,518.9,138.3,509,137.4L509,137.4z M569.1,143.4l-2.7,24.9c6,0.6,12,1.3,18.1,2c0,0,0,0,0.1,0s0.2,0,0.3,0h0.1
		c0.1,0,0.2,0,0.3,0c0,0,0.1,0,0.2,0c0.1,0,0.2,0,0.3,0s0.1,0,0.2,0c0.1,0,0.2,0,0.3,0c3.3,0.4,6.6,0.8,10,1.1l2.8-24.8
		C589.1,145.5,579,144.4,569.1,143.4L569.1,143.4z M629.1,150.2l-3,24.8c2.4,0.3,4.7,0.6,7.1,0.9c0.1,0,0.1,0,0.2,0h0.1
		c0.1,0,0.3,0,0.4,0.1l0,0c7.3,0.9,14.6,1.8,21.9,2.8L659,154C649,152.7,638.9,151.4,629.1,150.2L629.1,150.2z M688.9,157.9
		l-3.3,24.8c0.1,0,0.1,0,0.2,0c0.1,0,0.1,0,0.2,0c9.7,1.3,19.5,2.7,29.4,4.1l3.5-24.8C708.8,160.6,698.7,159.2,688.9,157.9
		L688.9,157.9z M793.7,151.5h-25v17.8c-6.7-1-13.5-2-20.1-3L745,191c2.5,0.4,5,0.7,7.6,1.1l0,0c0.2,0,0.3,0,0.5,0.1
		c0.1,0,0.1,0,0.2,0c0,0,0.1,0,0.2,0c0.1,0,0.3,0,0.4,0.1l0,0c6.9,1,13.9,2.1,20.9,3.1l2.1-14h16.9L793.7,151.5L793.7,151.5z
		 M776.1,67.9l-2,19.6l4.9-19.1c-0.2,0-0.3-0.1-0.5-0.1l0,0c0,0,0,0-0.1,0l0,0l0,0l0,0l0,0l0,0l0,0l0,0l0,0l0,0l0,0l0,0l0,0l0,0l0,0
		l0,0l0,0l0,0l0,0l0,0l0,0l0,0l0,0l0,0l0,0l0,0l0,0l0,0l0,0l0,0l0,0l0,0l0,0l0,0l0,0l0,0l0,0l0,0c0,0,0,0-0.1,0l0,0
		C777.1,68,776.7,68,776.1,67.9L776.1,67.9C776.2,67.9,776.2,67.9,776.1,67.9C776.2,67.9,776.2,67.9,776.1,67.9L776.1,67.9
		C776.2,67.9,776.2,67.9,776.1,67.9L776.1,67.9L776.1,67.9L776.1,67.9z M749.2,65.1L746.6,90l22.1,2.3v29.3h25v-30h-20l0.4-4l0,0
		l2-19.6l0,0c0,0-0.1,0-0.3,0l0,0c-0.1,0-0.2,0-0.3,0l0,0l0,0l0,0l0,0l0,0c-0.1,0-0.1,0-0.2,0l0,0h-0.1l0,0l0,0l0,0l0,0h-0.1l0,0
		l0,0l0,0l0,0H775l0,0c0,0,0,0-0.1,0l0,0c0,0,0,0-0.1,0l0,0c0,0,0,0-0.1,0l0,0l0,0h-0.2l0,0h-0.1l0,0l0,0l0,0L749.2,65.1L749.2,65.1
		z M689.5,58.9l-2.6,24.9l29.8,3.1l2.6-24.9L689.5,58.9L689.5,58.9z M629.8,52.7l-2.6,24.9l29.8,3.1l2.6-24.9L629.8,52.7L629.8,52.7
		z M570.1,46.5l-2.6,24.9l29.8,3.1l2.6-24.9L570.1,46.5L570.1,46.5z M510.4,40.3l-2.6,24.9l29.8,3.1l2.6-24.9L510.4,40.3L510.4,40.3
		z M450.8,34.2L448.2,59l29.8,3.1l2.6-24.9L450.8,34.2L450.8,34.2z M391.1,28l-2.6,24.9l29.8,3.1l2.6-24.9L391.1,28L391.1,28z
		 M331.4,21.8l-2.6,24.9l29.8,3.1l2.6-24.9L331.4,21.8L331.4,21.8z M271.7,15.6l-2.6,24.9l29.8,3.1l2.6-24.9L271.7,15.6L271.7,15.6z
		 M212,9.4l-2.6,24.9l29.8,3.1l2.6-24.9l0,0l0,0l0,0l0,0l0,0l0,0l0,0c0,0,0,0-0.1,0l0,0l0,0l0,0l0,0l0,0l0,0l0,0l0,0l0,0
		c0,0,0,0-0.1,0l0,0c0,0,0,0-0.1,0l0,0h-0.1l0,0l0,0l0,0l0,0l0,0h-0.1l0,0c-0.1,0-0.1,0-0.2,0l0,0c-0.1,0-0.2,0-0.2,0l0,0h-0.1l0,0
		h-0.1l0,0c0,0,0,0-0.1,0h-0.1l0,0l0,0l0,0l0,0l0,0l0,0c0,0,0,0-0.1,0l0,0l0,0l0,0l0,0l0,0h-0.1l0,0c-0.1,0-0.2,0-0.4,0l0,0
		c-0.1,0-0.2,0-0.4,0l0,0c-0.1,0-0.1,0-0.2,0l0,0h-0.1l0,0l0,0l0,0l0,0l0,0l0,0l0,0c-0.1,0-0.1,0-0.1,0l0,0c-0.1,0-0.1,0-0.2,0l0,0
		c-0.1,0-0.1,0-0.2,0l0,0c-0.1,0-0.1,0-0.2,0l0,0l0,0h-0.1l0,0l0,0c0,0,0,0-0.1,0l0,0h-0.1l0,0c0,0,0,0-0.1,0l0,0c0,0,0,0-0.1,0l0,0
		h-0.1h-0.1l0,0l0,0l0,0l-1-0.1l0,0l0,0l0,0h-0.1l0,0h-0.1l0,0l0,0l0,0l0,0l0,0l0,0l0,0h-0.1c0,0,0,0-0.1,0h-0.2l0,0l-0.6-0.1l0,0
		L212,9.4L212,9.4z"/>
</g>
</svg>
