<?xml version="1.0" encoding="utf-8"?>
<!-- Generator: Adobe Illustrator 26.1.0, SVG Export Plug-In . SVG Version: 6.00 Build 0)  -->
<svg version="1.1" id="レイヤー_1" xmlns="http://www.w3.org/2000/svg" xmlns:xlink="http://www.w3.org/1999/xlink" x="0px"
	 y="0px" viewBox="0 0 793.7 198.43" style="enable-background:new 0 0 793.7 198.43;" xml:space="preserve">
<g>
	<path d="M185.86,6.68l-20.88,21.54l17.95,17.4l20.88-21.54L185.86,6.68L185.86,6.68L185.86,6.68z M144.1,49.77l-20.88,21.54
		l17.95,17.4l20.88-21.54L144.1,49.77L144.1,49.77z M102.34,92.85c0,0-2.75,2.84-6.26,6.46l0,0c-0.03,0.03-0.05,0.05-0.08,0.08
		l-0.06,0.06c0,0,0,0-0.01,0.01l-14.47,14.93l17.95,17.4l20.88-21.54L102.34,92.85L102.34,92.85z M60.58,135.93
		c0,0-15.07,15.55-19.61,20.23l0,0l-15.41,15.89l4.91,13.84c1.09-0.39,2.21-0.78,3.31-1.16c0,0,0,0,0.01,0
		c0.1-0.04,0.21-0.07,0.32-0.11c0.01,0,0.02-0.01,0.03-0.01c0.03-0.01,0.06-0.02,0.1-0.03c7.93-2.72,16.22-5.26,24.85-7.63
		l-0.76-2.78l20.2-20.84L60.58,135.93L60.58,135.93z M18.82,179.01L0,198.43l0,0l0,0l0,0l0,0l0,0l0,0l0,0l0,0
		c8.5-4.05,17.55-7.83,27.15-11.34L18.82,179.01L18.82,179.01z M113.65,139.66c-10.53,1.73-20.83,3.67-30.63,5.76l5.22,24.45
		c2.56-0.55,5.14-1.08,7.76-1.6l0,0c0.14-0.03,0.27-0.05,0.4-0.08l0.01,0c0.08-0.02,0.17-0.03,0.25-0.05c0.01,0,0.02,0,0.02,0
		c0.13-0.03,0.26-0.05,0.38-0.08c0.02,0,0.04-0.01,0.06-0.01c0.06-0.01,0.13-0.03,0.19-0.04c0.03-0.01,0.04-0.01,0.07-0.01
		c0.06-0.01,0.12-0.02,0.18-0.04c0.02,0,0.05-0.01,0.07-0.01c0.04-0.01,0.07-0.01,0.11-0.02c0.02,0,0.06-0.01,0.08-0.02
		c0.05-0.01,0.1-0.02,0.15-0.03c0.03-0.01,0.07-0.01,0.1-0.02c0.03-0.01,0.05-0.01,0.08-0.02c0.06-0.01,0.11-0.02,0.17-0.03
		c0.02,0,0.05-0.01,0.07-0.01c0.06-0.01,0.1-0.02,0.16-0.03c0.02,0,0.04-0.01,0.06-0.01c0.06-0.01,0.1-0.02,0.16-0.03
		c0.02,0,0.03-0.01,0.05-0.01c0.06-0.01,0.13-0.02,0.19-0.04c0.02,0,0.03-0.01,0.05-0.01c0.06-0.01,0.14-0.03,0.2-0.04
		c0,0,0.01,0,0.01,0c0.06-0.01,0.13-0.03,0.2-0.04c0.01,0,0.02,0,0.03-0.01c0.07-0.01,0.13-0.03,0.2-0.04c0.01,0,0.02,0,0.04-0.01
		c0.14-0.03,0.29-0.06,0.43-0.08c0,0,0.01,0,0.02,0c0.07-0.01,0.15-0.03,0.22-0.04c0,0,0.01,0,0.01,0
		c5.65-1.09,11.4-2.11,17.29-3.08L113.65,139.66L113.65,139.66z M174.94,131.93c-10.45,0.96-20.76,2.07-30.63,3.31l3.1,24.81
		c6.07-0.76,12.24-1.46,18.53-2.12l0.01,0c0.15-0.02,0.3-0.03,0.45-0.05c0.02,0,0.04,0,0.06-0.01c0.06-0.01,0.13-0.01,0.19-0.02
		c0.03,0,0.07-0.01,0.1-0.01c0.03,0,0.07-0.01,0.1-0.01c0.04,0,0.07-0.01,0.1-0.01c0.03,0,0.06-0.01,0.09-0.01
		c0.06-0.01,0.12-0.01,0.18-0.02c0.02,0,0.05,0,0.07-0.01c0.05-0.01,0.09-0.01,0.15-0.02c0.02,0,0.04,0,0.06-0.01
		c0.07-0.01,0.13-0.01,0.2-0.02c0.02,0,0.03,0,0.05,0c0.07-0.01,0.13-0.01,0.2-0.02c0,0,0.01,0,0.01,0
		c0.07-0.01,0.15-0.02,0.22-0.02c0.01,0,0.02,0,0.02,0c2.99-0.3,5.98-0.59,9.01-0.87L174.94,131.93L174.94,131.93z M236.12,128
		c-10.38,0.41-20.66,0.93-30.57,1.57l1.59,24.95c3.89-0.25,7.81-0.48,11.77-0.69c0,0,0,0,0,0c0.16-0.01,0.3-0.02,0.46-0.02
		c0,0,0.01,0,0.01,0c0.06,0,0.13-0.01,0.2-0.01c0.02,0,0.03,0,0.05,0c0.06,0,0.13-0.01,0.19-0.01c0.01,0,0.02,0,0.02,0
		c0.06,0,0.14-0.01,0.21-0.01c0.02,0,0.04,0,0.06,0c0.05,0,0.09,0,0.14-0.01c0.03,0,0.07,0,0.1-0.01c0.04,0,0.06,0,0.1-0.01
		c0.06,0,0.12-0.01,0.19-0.01c0.04,0,0.06,0,0.09,0c0.04,0,0.08,0,0.12-0.01c0.03,0,0.06,0,0.09,0c0.04,0,0.08,0,0.12-0.01
		c0.01,0,0.02,0,0.03,0c0.1-0.01,0.2-0.01,0.3-0.02c0.01,0,0.02,0,0.02,0c0.05,0,0.1-0.01,0.15-0.01c0.01,0,0.02,0,0.03,0
		c3.04-0.16,6.11-0.3,9.19-0.44l0,0c0.17-0.01,0.35-0.02,0.52-0.02l0,0c0.05,0,0.11,0,0.16-0.01c0.01,0,0.01,0,0.02,0
		c0.05,0,0.11,0,0.16-0.01c0.01,0,0.03,0,0.03,0c0.08,0,0.16-0.01,0.24-0.01c0.03,0,0.07,0,0.1,0c0.03,0,0.07,0,0.1,0
		c0.04,0,0.09,0,0.13-0.01c0.02,0,0.05,0,0.07,0c0.07,0,0.14-0.01,0.21-0.01c0.01,0,0.02,0,0.04,0c0.07,0,0.13-0.01,0.19-0.01
		c0.01,0,0.03,0,0.04,0c1.42-0.06,2.85-0.12,4.27-0.18L236.12,128L236.12,128z M295.92,126.87c-9.9,0-19.75,0.09-29.28,0.26l0.45,25
		c5.94-0.11,11.94-0.18,18.02-0.22c0.01,0,0.01,0,0.02,0c0.37,0,0.73,0,1.1-0.01c0.02,0,0.03,0,0.04,0c0.05,0,0.11,0,0.16,0
		c0.01,0,0.02,0,0.03,0c0.06,0,0.11,0,0.17,0l0.01,0c0.24,0,0.48,0,0.72,0c0.02,0,0.03,0,0.05,0c0.05,0,0.1,0,0.14,0
		c0.02,0,0.05,0,0.07,0c0.04,0,0.08,0,0.13,0c0.03,0,0.05,0,0.08,0c0.09,0,0.19,0,0.28,0c0.01,0,0.03,0,0.04,0c0.04,0,0.08,0,0.12,0
		c0.03,0,0.05,0,0.08,0c0.03,0,0.07,0,0.1,0c0.05,0,0.08,0,0.13,0c0.03,0,0.05,0,0.08,0c0.04,0,0.08,0,0.12,0c0.03,0,0.06,0,0.09,0
		c0.05,0,0.08,0,0.13,0c0.03,0,0.07,0,0.1,0c0.06,0,0.12,0,0.18,0c0.03,0,0.06,0,0.09,0c0.04,0,0.08,0,0.12,0c0.03,0,0.06,0,0.09,0
		c0.04,0,0.07,0,0.11,0c0.04,0,0.08,0,0.12,0c0.03,0,0.06,0,0.09,0c0.03,0,0.07,0,0.1,0c0.05,0,0.09,0,0.14,0c0.03,0,0.05,0,0.08,0
		c0.07,0,0.14,0,0.21,0c0.01,0,0.02,0,0.04,0c0.06,0,0.11,0,0.17,0c0.03,0,0.05,0,0.08,0c0.04,0,0.09,0,0.13,0c0.03,0,0.06,0,0.09,0
		c0.04,0,0.08,0,0.12,0c0.03,0,0.06,0,0.09,0c0.06,0,0.12,0,0.17,0c0.01,0,0.02,0,0.03,0c0.07,0,0.14,0,0.21,0c0.01,0,0.03,0,0.04,0
		c0.06,0,0.12,0,0.17,0c0.02,0,0.04,0,0.05,0c0.06,0,0.11,0,0.17,0c0.02,0,0.04,0,0.06,0c0.06,0,0.13,0,0.19,0c0,0,0.01,0,0.01,0
		c0.06,0,0.13,0,0.19,0c0.02,0,0.04,0,0.07,0c0.06,0,0.12,0,0.18,0c0.02,0,0.05,0,0.07,0c0.05,0,0.09,0,0.14,0c0.02,0,0.05,0,0.08,0
		c0.05,0,0.1,0,0.15,0c0.02,0,0.04,0,0.07,0c0.05,0,0.09,0,0.14,0c0.03,0,0.05,0,0.08,0c0.06,0,0.13,0,0.19,0c0.01,0,0.01,0,0.02,0
		c0.07,0,0.15,0,0.22,0c0.01,0,0.02,0,0.02,0c0.07,0,0.13,0,0.2,0c0.01,0,0.02,0,0.03,0c0.06,0,0.12,0,0.17,0c0.03,0,0.05,0,0.07,0
		c0.05,0,0.1,0,0.15,0c0.02,0,0.04,0,0.06,0c0.06,0,0.12,0,0.18,0c0.02,0,0.05,0,0.07,0c0.06,0,0.12,0,0.19,0c0.02,0,0.03,0,0.05,0
		c0.06,0,0.1,0,0.16,0c0.03,0,0.06,0,0.09,0c0.04,0,0.08,0,0.12,0c0.03,0,0.07,0,0.1,0c0.03,0,0.07,0,0.11,0c0.03,0,0.07,0,0.1,0
		c0.07,0,0.13,0,0.2,0l0,0l0,0c0.22,0,0.44,0,0.65,0c0.17,0,0.35,0,0.52,0l0.02-25L295.92,126.87L295.92,126.87z M327.53,127.15
		l-0.44,25c9.83,0.17,19.84,0.42,30,0.75l0.81-24.99C347.65,127.58,337.43,127.32,327.53,127.15L327.53,127.15z M388.21,129.1
		l-1.15,24.97c9.84,0.45,19.82,0.97,29.94,1.57l1.46-24.96C408.27,130.09,398.1,129.56,388.21,129.1L388.21,129.1z M448.67,132.62
		l-1.74,24.94c2.61,0.18,5.23,0.37,7.86,0.56c0.01,0,0.02,0,0.03,0c0.05,0,0.11,0.01,0.16,0.01c0.03,0,0.06,0,0.09,0.01
		c0.04,0,0.06,0,0.1,0.01c3.4,0.25,6.8,0.5,10.23,0.76c0.29,0.02,0.57,0.04,0.86,0.07c0.01,0,0.02,0,0.03,0
		c3.51,0.27,7.04,0.54,10.58,0.83l2-24.92C468.71,134.07,458.55,133.31,448.67,132.62L448.67,132.62z M509,137.44l-2.23,24.9
		c1.23,0.11,2.46,0.22,3.69,0.33c0,0,0.01,0,0.01,0c0.15,0.01,0.28,0.03,0.43,0.04c0.02,0,0.05,0,0.07,0.01
		c0.13,0.01,0.25,0.02,0.38,0.03c0.03,0,0.07,0.01,0.1,0.01c0.1,0.01,0.2,0.02,0.3,0.03c0.06,0.01,0.13,0.01,0.19,0.02
		c0.09,0.01,0.17,0.02,0.26,0.02c0.07,0.01,0.13,0.01,0.2,0.02c0.08,0.01,0.14,0.01,0.22,0.02c0.1,0.01,0.19,0.02,0.29,0.03
		c0.06,0.01,0.1,0.01,0.16,0.01c0.1,0.01,0.21,0.02,0.31,0.03c0.05,0,0.1,0.01,0.15,0.01c0.11,0.01,0.22,0.02,0.33,0.03
		c0.05,0,0.08,0.01,0.13,0.01c0.12,0.01,0.24,0.02,0.36,0.03c0.03,0,0.07,0.01,0.1,0.01c0.14,0.01,0.29,0.03,0.44,0.04l0.01,0
		c7.17,0.66,14.41,1.35,21.7,2.07l2.45-24.88C528.97,139.28,518.86,138.33,509,137.44L509,137.44z M569.12,143.36l-2.66,24.86
		c5.98,0.64,12.02,1.3,18.07,1.97c0.02,0,0.05,0.01,0.07,0.01c0.11,0.01,0.23,0.03,0.35,0.04c0.04,0,0.08,0.01,0.12,0.01
		c0.1,0.01,0.22,0.02,0.33,0.04c0.05,0.01,0.11,0.01,0.16,0.02c0.09,0.01,0.19,0.02,0.28,0.03c0.07,0.01,0.13,0.02,0.2,0.02
		c0.08,0.01,0.18,0.02,0.26,0.03c3.31,0.37,6.64,0.75,9.97,1.13l2.85-24.84C589.06,145.53,578.97,144.41,569.12,143.36
		L569.12,143.36z M629.09,150.23l-3.02,24.82c2.36,0.29,4.72,0.58,7.09,0.87c0.08,0.01,0.13,0.02,0.21,0.03
		c0.04,0.01,0.09,0.01,0.13,0.02c0.13,0.02,0.28,0.03,0.41,0.05c0.01,0,0.01,0,0.02,0c7.26,0.9,14.56,1.82,21.92,2.76l3.19-24.8
		C649,152.69,638.92,151.42,629.09,150.23L629.09,150.23z M688.92,157.92l-3.34,24.78c0.06,0.01,0.11,0.02,0.17,0.02
		c0.06,0.01,0.1,0.01,0.15,0.02c9.72,1.31,19.52,2.67,29.41,4.06l3.49-24.76C708.79,160.63,698.74,159.24,688.92,157.92
		L688.92,157.92z M793.7,151.52h-25v17.8c-6.74-1.01-13.46-2.01-20.08-2.98L745,191.07c2.52,0.37,5.04,0.74,7.57,1.12l0.01,0
		c0.15,0.02,0.3,0.04,0.45,0.07c0.06,0.01,0.11,0.02,0.17,0.03c0.05,0.01,0.1,0.02,0.16,0.02c0.13,0.02,0.27,0.04,0.4,0.06
		c0.01,0,0.01,0,0.02,0c6.92,1.03,13.9,2.07,20.9,3.14l2.13-13.98h16.91V151.52L793.7,151.52z M776.14,67.9l-2.03,19.59l4.86-19.09
		c-0.15-0.04-0.3-0.08-0.45-0.11c0,0,0,0,0,0c-0.03-0.01-0.05-0.01-0.08-0.02c-0.01,0-0.01,0-0.02,0c-0.01,0-0.02,0-0.02-0.01
		c-0.01,0-0.02,0-0.03-0.01c-0.01,0-0.01,0-0.02,0c-0.01,0-0.01,0-0.02,0c-0.01,0-0.01,0-0.02,0c-0.01,0-0.02,0-0.03-0.01
		c-0.01,0-0.01,0-0.02,0c-0.01,0-0.02,0-0.03-0.01c-0.01,0-0.01,0-0.02,0c-0.01,0-0.02,0-0.03-0.01c0,0-0.01,0-0.01,0
		c-0.01,0-0.02-0.01-0.04-0.01c0,0-0.01,0-0.01,0c-0.01,0-0.02,0-0.03-0.01c0,0-0.01,0-0.01,0c-0.01,0-0.02,0-0.04-0.01
		c0,0-0.01,0-0.01,0c-0.01,0-0.02,0-0.03-0.01c0,0-0.01,0-0.01,0c-0.01,0-0.02,0-0.04-0.01c0,0-0.01,0-0.01,0
		c-0.01,0-0.02,0-0.03-0.01c0,0-0.01,0-0.01,0c-0.01,0-0.02,0-0.03-0.01c-0.01,0-0.01,0-0.02,0c-0.01,0-0.02,0-0.03-0.01
		c-0.01,0-0.01,0-0.02,0c-0.01,0-0.02,0-0.02,0c-0.01,0-0.01,0-0.02,0c-0.01,0-0.01,0-0.02,0c-0.01,0-0.02,0-0.03-0.01
		c-0.01,0-0.01,0-0.02,0c-0.01,0-0.01,0-0.02,0c0,0-0.01,0-0.01,0c-0.01,0-0.03-0.01-0.04-0.01c0,0-0.01,0-0.01,0
		c-0.03,0-0.05-0.01-0.08-0.01c0,0,0,0-0.01,0c-0.42-0.08-0.86-0.14-1.29-0.18c0,0-0.01,0-0.01,0c-0.01,0-0.02,0-0.03,0
		c-0.01,0-0.02,0-0.02,0c0,0-0.01,0-0.01,0C776.17,67.9,776.15,67.9,776.14,67.9L776.14,67.9L776.14,67.9L776.14,67.9z M749.16,65.1
		l-2.58,24.87l22.11,2.29v29.26h25v-30h-20.01l0.42-4.03l0,0l2.03-19.59l0,0c0,0-0.1-0.01-0.3-0.03l0,0
		c-0.07-0.01-0.16-0.02-0.26-0.03h0c-0.02,0-0.03,0-0.05-0.01l-0.01,0c-0.01,0-0.03,0-0.04,0l-0.02,0
		c-0.07-0.01-0.14-0.01-0.21-0.02l-0.01,0c-0.04,0-0.07-0.01-0.11-0.01l-0.02,0c-0.01,0-0.02,0-0.03,0l-0.03,0
		c-0.01,0-0.02,0-0.02,0l-0.11-0.01c-0.01,0-0.01,0-0.02,0l-0.02,0c0,0-0.01,0-0.01,0l-0.03,0c-0.04,0-0.08-0.01-0.13-0.01l-0.02,0
		c-0.02,0-0.04,0-0.06-0.01l0,0c-0.02,0-0.04,0-0.07-0.01l-0.02,0c-0.02,0-0.04,0-0.06-0.01l-0.02,0c-0.01,0-0.02,0-0.03,0
		l-0.15-0.02c0,0-0.01,0-0.01,0l-0.08-0.01c0,0-0.01,0-0.01,0l-0.02,0c-0.01,0-0.01,0-0.02,0L749.16,65.1L749.16,65.1z
		 M689.48,58.91l-2.58,24.87l29.84,3.09L719.32,62L689.48,58.91L689.48,58.91z M629.8,52.72l-2.58,24.87l29.84,3.09l2.58-24.87
		L629.8,52.72L629.8,52.72z M570.12,46.53l-2.58,24.87l29.84,3.09l2.58-24.87L570.12,46.53L570.12,46.53z M510.44,40.34l-2.58,24.87
		l29.84,3.09l2.58-24.87L510.44,40.34L510.44,40.34z M450.76,34.15l-2.58,24.87l29.84,3.09l2.58-24.87L450.76,34.15L450.76,34.15z
		 M391.08,27.97l-2.58,24.87l29.84,3.09l2.58-24.87L391.08,27.97L391.08,27.97z M331.4,21.78l-2.58,24.87l29.84,3.09l2.58-24.87
		L331.4,21.78L331.4,21.78z M271.72,15.59l-2.58,24.87l29.84,3.09l2.58-24.87L271.72,15.59L271.72,15.59z M212.04,9.4l-2.58,24.87
		l29.84,3.09l2.58-24.87l0,0c0,0,0,0,0,0l0,0c0,0,0,0-0.01,0l0,0c0,0,0,0-0.01,0l0,0c-0.01,0-0.03,0-0.06-0.01l0,0c0,0,0,0,0,0l0,0
		c0,0,0,0,0,0l0,0c0,0-0.01,0-0.01,0l0,0c-0.01,0-0.02,0-0.02,0l0,0c-0.02,0-0.04,0-0.06-0.01l0,0c-0.02,0-0.04,0-0.05-0.01l-0.01,0
		c-0.02,0-0.05,0-0.07-0.01l-0.01,0c-0.01,0-0.02,0-0.04,0l0,0c-0.01,0-0.03,0-0.04,0l0,0c-0.03,0-0.06-0.01-0.09-0.01l0,0
		c-0.07-0.01-0.14-0.01-0.21-0.02l-0.01,0c-0.08-0.01-0.16-0.02-0.25-0.03l0,0c-0.04,0-0.09-0.01-0.14-0.01l0,0
		c-0.02,0-0.05,0-0.07-0.01l0,0c-0.02,0-0.03,0-0.05-0.01l-0.05,0c0,0-0.01,0-0.01,0l0,0c-0.01,0-0.02,0-0.03,0l0,0
		c0,0-0.01,0-0.01,0l0,0c-0.02,0-0.04,0-0.05-0.01l-0.01,0c-0.01,0-0.02,0-0.03,0l0,0c-0.01,0-0.01,0-0.02,0l0,0
		c-0.03,0-0.07-0.01-0.1-0.01l-0.01,0c-0.11-0.01-0.23-0.02-0.35-0.04l0,0c-0.12-0.01-0.25-0.03-0.38-0.04l-0.01,0
		c-0.06-0.01-0.13-0.01-0.2-0.02l0,0c-0.03,0-0.07-0.01-0.1-0.01l-0.01,0c-0.01,0-0.02,0-0.03,0l-0.03,0c-0.01,0-0.02,0-0.03,0
		l-0.03,0c-0.01,0-0.02,0-0.03,0l-0.01,0c-0.05-0.01-0.1-0.01-0.15-0.02l-0.01,0c-0.07-0.01-0.14-0.01-0.22-0.02l-0.01,0
		c-0.07-0.01-0.15-0.02-0.23-0.02l0,0c-0.06-0.01-0.11-0.01-0.17-0.02l-0.01,0c-0.01,0-0.01,0-0.02,0l-0.05,0c-0.01,0-0.03,0-0.04,0
		l-0.01,0c-0.02,0-0.04,0-0.06-0.01l-0.01,0c-0.04,0-0.07-0.01-0.11-0.01l-0.01,0c-0.02,0-0.04,0-0.05-0.01l0,0
		c-0.02,0-0.04,0-0.06-0.01l-0.01,0c-0.03,0-0.06-0.01-0.09-0.01l-0.14-0.01c0,0-0.01,0-0.01,0l-0.03,0c0,0,0,0,0,0l-0.98-0.1
		c-0.01,0-0.03,0-0.04,0l-0.03,0c0,0,0,0,0,0l-0.1-0.01l0,0l-0.06-0.01c-0.01,0-0.01,0-0.02,0l-0.03,0c-0.01,0-0.02,0-0.04,0
		l-0.03,0c-0.01,0-0.03,0-0.04,0l-0.02,0c0,0-0.01,0-0.01,0l-0.13-0.01c-0.02,0-0.03,0-0.05-0.01l-0.25-0.03l0,0l-0.58-0.06
		c-0.01,0-0.01,0-0.02,0L212.04,9.4L212.04,9.4z"/>
</g>
</svg>
