<?xml version="1.0" encoding="utf-8"?>
<!-- Generator: Adobe Illustrator 26.1.0, SVG Export Plug-In . SVG Version: 6.00 Build 0)  -->
<svg version="1.1" id="レイヤー_1" xmlns="http://www.w3.org/2000/svg" xmlns:xlink="http://www.w3.org/1999/xlink" x="0px"
	 y="0px" viewBox="0 0 560 153" style="enable-background:new 0 0 560 153;" xml:space="preserve">
<style type="text/css">
	.st0{fill:#2D2D2D;}
</style>
<path class="st0" d="M77.14,92.98c0,5.32-1,9.68-3.01,13.09c-2.01,3.41-4.57,6.09-7.7,8.05c-3.13,1.96-6.58,3.34-10.36,4.13
	c-3.78,0.79-7.4,1.19-10.85,1.19H14.84V20.32h27.02c3.73,0,7.44,0.37,11.13,1.12c3.69,0.75,6.98,2.01,9.87,3.78
	c2.89,1.77,5.23,4.15,7,7.14c1.77,2.99,2.66,6.77,2.66,11.34c0,3.55-0.56,6.63-1.68,9.24c-1.12,2.61-2.64,4.85-4.55,6.72
	c-1.91,1.87-4.08,3.38-6.51,4.55c-2.43,1.17-4.9,2.03-7.42,2.59v0.28c2.52,0.28,5.23,0.96,8.12,2.03c2.89,1.07,5.58,2.64,8.05,4.69
	c2.47,2.05,4.53,4.67,6.16,7.84C76.32,84.81,77.14,88.59,77.14,92.98z M69.44,44.12c0-4.01-0.79-7.37-2.38-10.08
	c-1.59-2.71-3.69-4.85-6.3-6.44c-2.61-1.59-5.62-2.73-9.03-3.43c-3.41-0.7-6.98-1.05-10.71-1.05h-23.1v42.7h23.8
	c3.36,0,6.7-0.42,10.01-1.26c3.31-0.84,6.28-2.12,8.89-3.85c2.61-1.73,4.74-3.97,6.37-6.72C68.62,51.24,69.44,47.95,69.44,44.12z
	 M74.06,93.4c0-4.48-0.91-8.31-2.73-11.48c-1.82-3.17-4.13-5.74-6.93-7.7c-2.8-1.96-5.88-3.38-9.24-4.27
	c-3.36-0.89-6.63-1.33-9.8-1.33H17.92v48.02h25.9c4.29,0,8.31-0.44,12.04-1.33c3.73-0.89,6.93-2.26,9.59-4.13
	c2.66-1.87,4.76-4.27,6.3-7.21C73.29,101.03,74.06,97.51,74.06,93.4z"/>
<path class="st0" d="M108.64,86.54c0,3.92,0.58,7.79,1.75,11.62c1.17,3.83,2.94,7.26,5.32,10.29c2.38,3.03,5.39,5.48,9.03,7.35
	c3.64,1.87,7.93,2.8,12.88,2.8c5.04,0,9.52-1,13.44-3.01c3.92-2.01,7.33-4.92,10.22-8.75l2.24,1.96c-3.17,4.11-6.88,7.23-11.13,9.38
	c-4.25,2.15-9.17,3.22-14.77,3.22c-4.76,0-9.1-0.86-13.02-2.59c-3.92-1.73-7.3-4.13-10.15-7.21c-2.85-3.08-5.04-6.77-6.58-11.06
	c-1.54-4.29-2.31-8.96-2.31-14c0-4.85,0.79-9.33,2.38-13.44c1.59-4.11,3.76-7.65,6.53-10.64c2.76-2.99,6.01-5.3,9.75-6.93
	c3.74-1.63,7.76-2.45,12.07-2.45c5.05,0,9.45,0.89,13.19,2.66c3.74,1.77,6.85,4.11,9.33,7c2.48,2.89,4.33,6.18,5.54,9.87
	c1.22,3.69,1.82,7.44,1.82,11.27v2.66H108.64z M163.1,83.88c-0.09-4.2-0.82-8.03-2.17-11.48c-1.35-3.45-3.2-6.42-5.53-8.89
	c-2.33-2.47-5.13-4.39-8.4-5.74c-3.27-1.35-6.91-2.03-10.92-2.03c-4.85,0-9.01,1-12.46,3.01c-3.45,2.01-6.28,4.48-8.47,7.42
	c-2.19,2.94-3.8,6.02-4.83,9.24c-1.03,3.22-1.54,6.04-1.54,8.47H163.1z"/>
<path class="st0" d="M249.48,72.82c1.87-6.35,5.04-11.22,9.52-14.63c4.48-3.41,9.57-5.11,15.26-5.11c4.29,0,7.91,0.79,10.85,2.38
	c2.94,1.59,5.27,3.69,7,6.3c1.73,2.61,2.96,5.55,3.71,8.82c0.75,3.27,1.12,6.58,1.12,9.94v38.92h-3.08V80.8
	c0-2.61-0.3-5.41-0.91-8.4c-0.61-2.99-1.66-5.69-3.15-8.12c-1.49-2.43-3.5-4.46-6.02-6.09c-2.52-1.63-5.69-2.45-9.52-2.45
	c-3.36,0-6.51,0.72-9.45,2.17c-2.94,1.45-5.51,3.52-7.7,6.23c-2.19,2.71-3.94,6-5.25,9.87c-1.31,3.87-1.96,8.28-1.96,13.23v32.2
	h-3.08V80.8c0-2.61-0.26-5.41-0.77-8.4c-0.51-2.99-1.47-5.69-2.87-8.12c-1.4-2.43-3.34-4.46-5.81-6.09
	c-2.47-1.63-5.62-2.45-9.45-2.45c-3.36,0-6.51,0.72-9.45,2.17c-2.94,1.45-5.51,3.52-7.7,6.23c-2.19,2.71-3.92,6-5.18,9.87
	c-1.26,3.87-1.89,8.28-1.89,13.23v32.2h-3.08V71.28c0-1.03-0.02-2.29-0.07-3.78c-0.05-1.49-0.09-3.01-0.14-4.55
	c-0.05-1.54-0.12-3.01-0.21-4.41c-0.09-1.4-0.19-2.57-0.28-3.5H203c0.09,0.93,0.16,2.1,0.21,3.5c0.05,1.4,0.09,2.92,0.14,4.55
	c0.05,1.63,0.09,3.22,0.14,4.76c0.05,1.54,0.07,2.92,0.07,4.13h0.28c0.93-2.99,2.24-5.65,3.92-7.98c1.68-2.33,3.57-4.32,5.67-5.95
	c2.1-1.63,4.39-2.87,6.86-3.71c2.47-0.84,5.02-1.26,7.63-1.26c3.36,0,6.28,0.51,8.75,1.54c2.47,1.03,4.55,2.43,6.23,4.2
	c1.68,1.77,3.03,3.85,4.06,6.23c1.03,2.38,1.77,4.97,2.24,7.77H249.48z"/>
<path class="st0" d="M380.1,104.88c0,2.43,0.12,5.02,0.35,7.77c0.23,2.75,0.49,5.02,0.77,6.79h-2.94c-0.19-0.93-0.33-2.08-0.42-3.43
	c-0.09-1.35-0.21-2.75-0.35-4.2c-0.14-1.45-0.23-2.87-0.28-4.27c-0.05-1.4-0.07-2.57-0.07-3.5h-0.42
	c-1.87,5.88-5.09,10.24-9.66,13.09c-4.57,2.85-9.47,4.27-14.7,4.27c-2.61,0-5.2-0.37-7.77-1.12c-2.57-0.75-4.88-1.87-6.93-3.36
	c-2.05-1.49-3.71-3.41-4.97-5.74c-1.26-2.33-1.89-5.09-1.89-8.26c0-4.57,1.19-8.26,3.57-11.06c2.38-2.8,5.34-4.97,8.89-6.51
	c3.55-1.54,7.35-2.54,11.41-3.01c4.06-0.47,7.77-0.7,11.13-0.7h11.2v-5.18c0-7.19-1.91-12.44-5.74-15.75
	c-3.83-3.31-8.82-4.97-14.98-4.97c-3.83,0-7.4,0.7-10.71,2.1c-3.31,1.4-6.28,3.27-8.89,5.6l-1.68-2.38
	c2.99-2.61,6.37-4.6,10.15-5.95c3.78-1.35,7.49-2.03,11.13-2.03c7.37,0,13.18,1.89,17.43,5.67c4.25,3.78,6.37,9.73,6.37,17.85
	V104.88z M377.02,84.3h-9.94c-3.55,0-7.28,0.21-11.2,0.63c-3.92,0.42-7.51,1.28-10.78,2.59c-3.27,1.31-5.95,3.17-8.05,5.6
	c-2.1,2.43-3.15,5.69-3.15,9.8c0,2.99,0.58,5.48,1.75,7.49c1.17,2.01,2.66,3.62,4.48,4.83c1.82,1.21,3.83,2.1,6.02,2.66
	c2.19,0.56,4.27,0.84,6.23,0.84c4.76,0,8.73-0.89,11.9-2.66c3.17-1.77,5.72-4.04,7.63-6.79c1.91-2.75,3.24-5.79,3.99-9.1
	c0.75-3.31,1.12-6.56,1.12-9.73V84.3z"/>
<path class="st0" d="M429.1,140.72c-1.49,4.01-3.48,7.12-5.95,9.31c-2.47,2.19-5.67,3.29-9.59,3.29c-0.84,0-1.82-0.09-2.94-0.28
	c-1.12-0.19-2.05-0.42-2.8-0.7l0.84-2.66c0.56,0.19,1.33,0.37,2.31,0.56c0.98,0.19,1.94,0.28,2.87,0.28c1.96,0,3.66-0.37,5.11-1.12
	c1.45-0.75,2.68-1.7,3.71-2.87c1.03-1.17,1.89-2.5,2.59-3.99c0.7-1.49,1.33-2.99,1.89-4.48l6.16-16.8l-25.48-66.22h3.36l23.66,62.72
	l22.82-62.72h3.36L429.1,140.72z"/>
<path class="st0" d="M533.33,110.55c-1.73,2.38-3.71,4.36-5.95,5.95c-2.24,1.59-4.67,2.8-7.28,3.64c-2.61,0.84-5.32,1.26-8.12,1.26
	c-4.48,0-8.21-0.79-11.2-2.38c-2.99-1.59-5.37-3.69-7.14-6.3c-1.77-2.61-3.03-5.55-3.78-8.82c-0.75-3.27-1.12-6.58-1.12-9.94V55.04
	h3.08v38.64c0,2.71,0.28,5.53,0.84,8.47c0.56,2.94,1.61,5.62,3.15,8.05c1.54,2.43,3.59,4.46,6.16,6.09
	c2.57,1.63,5.9,2.45,10.01,2.45c3.55,0,6.88-0.72,10.01-2.17c3.13-1.45,5.83-3.52,8.12-6.23c2.29-2.71,4.11-6,5.46-9.87
	c1.35-3.87,2.03-8.28,2.03-13.23v-32.2h3.08v48.16c0,1.03,0.02,2.29,0.07,3.78c0.05,1.49,0.09,3.01,0.14,4.55
	c0.04,1.54,0.12,3.01,0.21,4.41s0.19,2.57,0.28,3.5h-3.08c-0.09-0.93-0.16-2.1-0.21-3.5s-0.09-2.92-0.14-4.55
	c-0.05-1.63-0.09-3.22-0.14-4.76c-0.05-1.54-0.07-2.92-0.07-4.13h-0.28C536.43,105.49,535.05,108.17,533.33,110.55z"/>
<rect x="1084.92" y="289.74" style="fill:none;" width="4.6" height="0"/>
</svg>
