<?xml version="1.0" encoding="utf-8"?>
<!-- Generator: Adobe Illustrator 26.1.0, SVG Export Plug-In . SVG Version: 6.00 Build 0)  -->
<svg version="1.1" id="レイヤー_1" xmlns="http://www.w3.org/2000/svg" xmlns:xlink="http://www.w3.org/1999/xlink" x="0px"
	 y="0px" viewBox="0 0 793.7 198.43" style="enable-background:new 0 0 793.7 198.43;" xml:space="preserve">
<g>
	<path d="M607.84,6.68L578,9.78l2.58,24.87l29.84-3.09L607.84,6.68L607.84,6.68L607.84,6.68z M548.16,12.87l-29.84,3.09l2.58,24.87
		l29.84-3.09L548.16,12.87L548.16,12.87z M488.48,19.06l-29.84,3.09l2.58,24.87l29.84-3.09L488.48,19.06L488.48,19.06z M428.8,25.25
		l-29.84,3.09l2.58,24.87l29.84-3.09L428.8,25.25L428.8,25.25z M369.12,31.44l-29.84,3.09l2.58,24.87l29.84-3.09L369.12,31.44
		L369.12,31.44z M309.44,37.63c0,0-6.55,0.68-13.51,1.4l-0.04,0c-0.02,0-0.04,0-0.06,0.01l-0.01,0c-0.01,0-0.02,0-0.04,0l-0.01,0
		c-0.01,0-0.01,0-0.02,0l-16.16,1.68l2.58,24.87l29.84-3.09L309.44,37.63L309.44,37.63z M249.76,43.82l-29.84,3.09l2.58,24.87
		l29.84-3.09L249.76,43.82L249.76,43.82z M190.08,50.01l-29.84,3.09l2.58,24.87l29.84-3.09L190.08,50.01L190.08,50.01z M130.4,56.19
		l-29.84,3.09l2.58,24.87l29.84-3.09L130.4,56.19L130.4,56.19z M70.72,62.38l-29.84,3.09l2.58,24.87l29.84-3.09L70.72,62.38
		L70.72,62.38z M11.27,69.64C11.27,69.64,11.27,69.64,11.27,69.64c-0.03,0.01-0.05,0.02-0.08,0.04c0,0,0,0,0,0
		c-0.02,0.01-0.05,0.02-0.08,0.04c0,0,0,0,0,0c-0.03,0.01-0.05,0.02-0.08,0.04l0,0c-0.01,0.01-0.03,0.01-0.04,0.02l0,0
		c-0.03,0.01-0.05,0.03-0.08,0.04c0,0,0,0,0,0c-0.03,0.01-0.05,0.02-0.08,0.04c0,0,0,0,0,0c-0.03,0.01-0.05,0.02-0.07,0.04
		c0,0,0,0,0,0c-0.01,0.01-0.03,0.01-0.04,0.02l0,0c-0.01,0.01-0.03,0.01-0.04,0.02c0,0,0,0,0,0c-0.01,0.01-0.02,0.01-0.04,0.02
		c0,0,0,0,0,0c-0.02,0.01-0.05,0.03-0.08,0.04c0,0,0,0,0,0c-0.02,0.01-0.05,0.03-0.07,0.04c0,0,0,0,0,0
		c-0.02,0.01-0.05,0.03-0.07,0.04c0,0,0,0,0,0c-0.01,0.01-0.03,0.01-0.04,0.02l0,0c-0.01,0.01-0.02,0.01-0.03,0.02c0,0,0,0,0,0
		c-0.01,0.01-0.02,0.01-0.04,0.02c0,0,0,0,0,0c-0.01,0.01-0.02,0.01-0.04,0.02c0,0,0,0,0,0c-0.01,0.01-0.02,0.01-0.04,0.02
		c0,0,0,0,0,0c-0.02,0.01-0.05,0.03-0.07,0.04c0,0,0,0,0,0c-0.02,0.01-0.05,0.03-0.07,0.04c0,0,0,0,0,0
		c-0.01,0.01-0.02,0.01-0.03,0.02c0,0,0,0,0,0c-0.01,0.01-0.02,0.01-0.03,0.02c0,0,0,0,0,0c-0.01,0.01-0.02,0.01-0.03,0.02
		c0,0,0,0,0,0c-0.01,0.01-0.02,0.01-0.03,0.02c0,0,0,0,0,0c-0.01,0.01-0.02,0.01-0.04,0.02c0,0,0,0,0,0
		c-0.02,0.01-0.05,0.03-0.07,0.04c0,0,0,0,0,0c-0.02,0.01-0.05,0.03-0.07,0.04c0,0,0,0-0.01,0c-0.02,0.01-0.05,0.03-0.07,0.04
		c0,0,0,0,0,0c-0.02,0.01-0.05,0.03-0.07,0.04c0,0,0,0,0,0c-0.01,0.01-0.02,0.01-0.04,0.02c0,0,0,0,0,0
		c-0.01,0.01-0.02,0.01-0.03,0.02c0,0,0,0,0,0c-0.01,0.01-0.02,0.01-0.03,0.02c0,0,0,0,0,0c-0.02,0.01-0.05,0.03-0.07,0.04
		c0,0,0,0,0,0c-0.02,0.01-0.05,0.03-0.07,0.04c0,0,0,0,0,0c-0.01,0.01-0.02,0.01-0.04,0.02c0,0,0,0,0,0
		c-0.02,0.02-0.05,0.03-0.07,0.05l0,0c-0.02,0.01-0.05,0.03-0.07,0.04c0,0,0,0,0,0c-0.02,0.01-0.05,0.03-0.07,0.04c0,0,0,0,0,0
		c-0.02,0.01-0.05,0.03-0.07,0.04c0,0,0,0,0,0c-0.02,0.01-0.05,0.03-0.07,0.04c0,0,0,0,0,0c-0.01,0.01-0.02,0.01-0.03,0.02
		c0,0,0,0,0,0c-0.01,0.01-0.02,0.01-0.03,0.02c0,0,0,0,0,0C8.85,70.99,8.84,71,8.83,71.01c0,0,0,0,0,0
		c-0.13,0.09-0.26,0.17-0.39,0.26l0,0c-0.05,0.03-0.09,0.07-0.14,0.1c0,0,0,0,0,0c-4.25,3-7.23,7.64-8.06,12.96c0,0,0,0,0,0
		c0,0.03-0.01,0.06-0.01,0.09l0,0c0,0.03-0.01,0.06-0.01,0.09c0,0,0,0,0,0c-0.01,0.04-0.01,0.09-0.02,0.13l0,0
		c0,0.03-0.01,0.06-0.01,0.09l0,0c0,0.03-0.01,0.06-0.01,0.09c0,0,0,0,0,0c0,0.03-0.01,0.06-0.01,0.09c0,0,0,0,0,0
		c-0.01,0.04-0.01,0.09-0.02,0.13c0,0,0,0,0,0c0,0.03-0.01,0.06-0.01,0.09c0,0,0,0,0,0c0,0.03-0.01,0.06-0.01,0.08c0,0,0,0,0,0.01
		c0,0.03-0.01,0.06-0.01,0.08c0,0,0,0,0,0c0,0.01,0,0.03,0,0.04l0,0c0,0.01,0,0.03,0,0.04c0,0,0,0,0,0c0,0.01,0,0.03,0,0.04
		c0,0,0,0,0,0c0,0.03-0.01,0.06-0.01,0.09c0,0,0,0,0,0c0,0.03-0.01,0.06-0.01,0.09c0,0,0,0,0,0c0,0.03-0.01,0.06-0.01,0.08
		c0,0,0,0,0,0c0,0.01,0,0.03,0,0.04l0,0c0,0.01,0,0.03,0,0.04c0,0,0,0,0,0c0,0.01,0,0.03,0,0.04c0,0,0,0,0,0c0,0.01,0,0.03,0,0.04
		c0,0,0,0,0,0c0,0.01,0,0.03,0,0.04c0,0,0,0.01,0,0.01c0,0.03,0,0.05-0.01,0.08c0,0,0,0,0,0.01c0,0.03,0,0.05-0.01,0.08
		c0,0,0,0.01,0,0.01c0,0.01,0,0.03,0,0.04c0,0,0,0,0,0c0,0.01,0,0.03,0,0.04c0,0,0,0,0,0.01c0,0.01,0,0.03,0,0.04c0,0,0,0,0,0
		c0,0.01,0,0.03,0,0.04c0,0,0,0,0,0.01c0,0.01,0,0.03,0,0.04c0,0,0,0,0,0c0,0.01,0,0.03,0,0.04c0,0,0,0,0,0c0,0.01,0,0.03,0,0.04
		c0,0,0,0,0,0c0,0.03,0,0.06,0,0.08c0,0,0,0,0,0.01c0,0.01,0,0.03,0,0.04c0,0,0,0,0,0c0,0.01,0,0.03,0,0.04c0,0,0,0,0,0.01
		c0,0.01,0,0.03,0,0.04c0,0,0,0,0,0.01c0,0.01,0,0.02,0,0.04c0,0,0,0,0,0.01c0,0.01,0,0.03,0,0.04c0,0,0,0.01,0,0.01
		c0,0.01,0,0.02,0,0.04c0,0,0,0,0,0c0,0.01,0,0.03,0,0.04c0,0,0,0.01,0,0.01c0,0.01,0,0.03,0,0.04c0,0,0,0,0,0c0,0.01,0,0.03,0,0.04
		c0,0,0,0.01,0,0.01c0,0.03,0,0.05,0,0.08c0,0,0,0.01,0,0.01c0,0.01,0,0.03,0,0.04c0,0,0,0,0,0.01c0,0.01,0,0.02,0,0.04
		c0,0,0,0.01,0,0.01c0,0.01,0,0.03,0,0.04c0,0,0,0,0,0.01c0,0.01,0,0.02,0,0.04c0,0,0,0,0,0.01c0,0.01,0,0.03,0,0.04
		c0,0,0,0.01,0,0.01c0,0.01,0,0.02,0,0.04c0,0,0,0.01,0,0.01c0,0.01,0,0.03,0,0.04c0,0,0,0.01,0,0.01c0,0.01,0,0.03,0,0.04l0,0l0,0
		v7.82h25v-7.82h-5.42L11.27,69.64L11.27,69.64z M25,125.19H0v30h25V125.19L25,125.19z M18.93,170.23
		c-3.69,0.56-7.38,1.12-11.09,1.69l0,0l0,0l2.04,13.27H0v1.45l0,0c0,5.66,4.61,10.11,10.08,10.11c0.51,0,1.03-0.04,1.55-0.12
		l-1.53-9.99l0,0l1.53,9.99l0,0c2.4-0.37,4.8-0.73,7.18-1.1c1.29-0.2,2.57-0.39,3.86-0.59l-1.26-8.31H25l0,0l0,0l0,0v-1.45h-0.07
		c-0.39-3.97-2.34-7.49-5.23-9.93L18.93,170.23L18.93,170.23z M78.57,161.52c-9.82,1.38-19.86,2.82-29.86,4.27l3.61,24.74
		c5.46-0.8,10.88-1.58,16.29-2.35c0.02,0,0.05-0.01,0.07-0.01c0.12-0.02,0.25-0.04,0.37-0.05c0.04-0.01,0.08-0.01,0.12-0.02
		c0.09-0.01,0.19-0.03,0.28-0.04c0.05-0.01,0.11-0.02,0.16-0.02c0.1-0.01,0.21-0.03,0.31-0.04c0.07-0.01,0.14-0.02,0.22-0.03
		c0.03,0,0.07-0.01,0.11-0.02c0.15-0.02,0.29-0.04,0.44-0.06c0.02,0,0.01,0,0.04-0.01c1.52-0.22,3.05-0.43,4.57-0.65
		c0.02,0,0.05-0.01,0.07-0.01c0.13-0.02,0.27-0.04,0.4-0.06c0.06-0.01,0.11-0.02,0.17-0.02c0.05-0.01,0.11-0.02,0.16-0.02
		c0.12-0.02,0.24-0.03,0.37-0.05c0.03,0,0.06-0.01,0.08-0.01c1.84-0.26,3.66-0.52,5.49-0.77L78.57,161.52L78.57,161.52z
		 M138.34,153.51c-9.83,1.26-19.89,2.57-29.91,3.92l3.33,24.78c0.15-0.02,0.3-0.04,0.46-0.06c0.01,0,0.02,0,0.02,0
		c0.13-0.02,0.28-0.04,0.41-0.05c0.05-0.01,0.09-0.01,0.14-0.02c0.08-0.01,0.14-0.02,0.21-0.03c8.41-1.13,16.75-2.22,25.04-3.29
		c0.04-0.01,0.09-0.01,0.14-0.02c0.07-0.01,0.14-0.02,0.21-0.03c0.11-0.01,0.2-0.03,0.3-0.04c0.04-0.01,0.09-0.01,0.13-0.02
		c0.13-0.02,0.25-0.03,0.39-0.05c0.01,0,0.01,0,0.02,0c0.76-0.1,1.53-0.2,2.29-0.29L138.34,153.51L138.34,153.51z M198.26,146.26
		c-9.84,1.12-19.93,2.3-29.99,3.52l3,24.82c9.45-1.14,18.82-2.24,28.09-3.3c0.06-0.01,0.13-0.02,0.19-0.02
		c0.08-0.01,0.15-0.02,0.23-0.03c0.43-0.05,0.86-0.1,1.29-0.15L198.26,146.26L198.26,146.26z M258.32,139.91
		c-9.86,0.96-19.98,1.99-30.08,3.06l2.63,24.86c10.06-1.07,20.02-2.08,29.87-3.04L258.32,139.91L258.32,139.91z M318.52,134.59
		c-9.86,0.78-20,1.63-30.12,2.52l2.2,24.9c10.08-0.89,20.04-1.73,29.88-2.5L318.52,134.59L318.52,134.59z M378.95,130.47
		c-9.89,0.56-20.06,1.2-30.23,1.9l1.7,24.94c10.11-0.69,20.1-1.32,29.95-1.88L378.95,130.47L378.95,130.47z M439.54,127.79
		c-9.9,0.3-20.1,0.69-30.31,1.14l1.11,24.98c10.14-0.45,20.13-0.83,29.97-1.13L439.54,127.79L439.54,127.79z M497.78,126.87
		c-9.09,0-18.47,0.07-27.88,0.22l0.39,25c7.38-0.11,14.67-0.18,21.87-0.21l0.02,0c0.06,0,0.12,0,0.18,0h0c0.06,0,0.12,0,0.18,0
		c0.02,0,0.02,0,0.04,0c0.05,0,0.11,0,0.16,0c0.01,0,0.02,0,0.03,0c0.06,0,0.11,0,0.17,0c0.01,0,0.03,0,0.04,0c0.17,0,0.33,0,0.5,0
		c0.02,0,0.04,0,0.05,0c0.03,0,0.06,0,0.1,0c0.04,0,0.07,0,0.11,0c0.04,0,0.08,0,0.12,0c0.03,0,0.04,0,0.08,0c0.04,0,0.08,0,0.12,0
		c0.02,0,0.06,0,0.08,0c0.04,0,0.08,0,0.12,0c0.03,0,0.06,0,0.09,0c0.03,0,0.06,0,0.1,0c0.03,0,0.07,0,0.1,0c0.04,0,0.08,0,0.12,0
		c0.02,0,0.04,0,0.07,0c0.04,0,0.08,0,0.12,0c0.03,0,0.06,0,0.1,0c0.04,0,0.07,0,0.11,0c0.04,0,0.07,0,0.11,0c0.03,0,0.05,0,0.08,0
		c0.03,0,0.07,0,0.1,0c0.14,0,0.29,0,0.43,0c0.02,0,0.05,0,0.07,0c0.03,0,0.06,0,0.09,0c0.04,0,0.09,0,0.13,0c0.02,0,0.05,0,0.07,0
		c0.04,0,0.08,0,0.12,0c0.03,0,0.07,0,0.1,0c0.04,0,0.08,0,0.12,0c0.03,0,0.06,0,0.08,0c0.04,0,0.07,0,0.11,0c0.03,0,0.07,0,0.1,0
		c0.04,0,0.07,0,0.11,0c0.03,0,0.06,0,0.09,0c0.04,0,0.07,0,0.11,0c0.03,0,0.07,0,0.1,0c0.04,0,0.09,0,0.13,0c0.02,0,0.05,0,0.07,0
		c0.05,0,0.08,0,0.13,0c0.03,0,0.05,0,0.08,0c0.06,0,0.14,0,0.2,0l0,0l0,0c0.1,0,0.2,0,0.3,0c0.01,0,0.01,0,0.02,0
		c0.6,0,1.19,0,1.79,0c0.13,0,0.26,0,0.39,0l0.04-25L497.78,126.87L497.78,126.87z M530.79,127.2l-0.51,24.99
		c3.27,0.07,6.51,0.14,9.74,0.23c0,0,0.01,0,0.01,0c0.08,0,0.14,0,0.22,0.01c0,0,0.01,0,0.02,0c0.16,0,0.3,0.01,0.46,0.01
		c0.01,0,0.01,0,0.02,0c0.06,0,0.12,0,0.19,0.01c0.02,0,0.05,0,0.07,0c0.06,0,0.12,0,0.18,0.01c0.01,0,0.02,0,0.03,0
		c0.08,0,0.14,0,0.21,0.01c0.02,0,0.04,0,0.06,0c0.05,0,0.11,0,0.16,0c0.02,0,0.05,0,0.07,0c0.05,0,0.1,0,0.15,0
		c0.03,0,0.05,0,0.08,0c0.07,0,0.13,0,0.2,0.01c0.02,0,0.04,0,0.07,0c0.05,0,0.09,0,0.13,0c0.03,0,0.07,0,0.1,0
		c0.04,0,0.09,0,0.13,0c0.03,0,0.06,0,0.09,0c0.05,0,0.1,0,0.14,0c0.05,0,0.09,0,0.14,0c0.04,0,0.08,0,0.12,0c0.03,0,0.07,0,0.1,0
		c0.04,0,0.07,0,0.11,0c0.04,0,0.07,0,0.11,0c0.04,0,0.07,0,0.11,0c0.06,0,0.11,0,0.17,0c0.04,0,0.07,0,0.11,0c0.04,0,0.09,0,0.13,0
		c0.02,0,0.05,0,0.07,0c0.04,0,0.09,0,0.13,0c0.02,0,0.03,0,0.05,0c0.15,0,0.3,0.01,0.45,0.01c0.02,0,0.05,0,0.07,0
		c0.04,0,0.09,0,0.13,0c0.02,0,0.06,0,0.08,0c0.04,0,0.08,0,0.12,0c0.02,0,0.05,0,0.08,0c0.08,0,0.15,0,0.23,0.01
		c0.03,0,0.06,0,0.09,0c0.03,0,0.07,0,0.1,0c0.04,0,0.08,0,0.11,0c0.03,0,0.06,0,0.09,0c0.06,0,0.11,0,0.17,0.01
		c0.02,0,0.04,0,0.05,0c0.06,0,0.12,0,0.18,0.01c0.03,0,0.05,0,0.08,0c0.04,0,0.1,0,0.14,0c0.02,0,0.05,0,0.07,0
		c0.05,0,0.1,0,0.15,0c0.03,0,0.05,0,0.08,0c0.07,0,0.13,0,0.2,0.01c0.01,0,0.02,0,0.04,0c0.06,0,0.12,0,0.18,0.01
		c0.02,0,0.03,0,0.05,0c0.07,0,0.13,0,0.2,0.01c0,0,0.01,0,0.01,0c0.07,0,0.16,0.01,0.23,0.01h0c0.07,0,0.16,0.01,0.23,0.01
		c0,0,0.01,0,0.01,0c0.07,0,0.15,0.01,0.23,0.01c0,0,0,0,0,0c4.13,0.14,8.21,0.29,12.27,0.46l1.05-24.98
		C551.41,127.73,541.13,127.41,530.79,127.2L530.79,127.2z M591.89,129.81l-1.67,24.94c10.21,0.68,20.18,1.49,29.9,2.42l2.38-24.89
		C612.61,131.34,602.31,130.5,591.89,129.81L591.89,129.81z M653.15,135.72l-3.21,24.79c2.42,0.31,4.83,0.64,7.21,0.97
		c0.01,0,0.02,0,0.03,0c0.09,0.01,0.17,0.02,0.26,0.04c0.01,0,0.02,0,0.02,0c0.04,0.01,0.09,0.01,0.13,0.02c0.02,0,0.03,0,0.05,0.01
		c0.07,0.01,0.15,0.02,0.23,0.03c0.02,0,0.04,0.01,0.06,0.01c0.13,0.02,0.26,0.04,0.39,0.05c0.03,0,0.06,0.01,0.09,0.01
		c0.04,0.01,0.09,0.01,0.13,0.02c0.04,0.01,0.09,0.01,0.13,0.02c0.03,0,0.07,0.01,0.1,0.01c0.04,0.01,0.08,0.01,0.13,0.02
		c0.03,0,0.07,0.01,0.1,0.01c0.04,0.01,0.1,0.01,0.14,0.02c0.03,0,0.05,0.01,0.08,0.01c0.06,0.01,0.12,0.02,0.19,0.03
		c0.01,0,0.03,0,0.04,0.01c0.06,0.01,0.11,0.02,0.17,0.02c0.02,0,0.04,0.01,0.06,0.01c0.06,0.01,0.13,0.02,0.19,0.03
		c0.02,0,0.04,0.01,0.05,0.01c0.06,0.01,0.11,0.02,0.17,0.02c0.01,0,0.03,0,0.04,0.01c0.07,0.01,0.13,0.02,0.2,0.03
		c0.02,0,0.03,0,0.05,0.01c0.15,0.02,0.29,0.04,0.43,0.06c0.01,0,0.01,0,0.02,0c0.07,0.01,0.15,0.02,0.22,0.03c0,0,0.01,0,0.01,0
		c0.15,0.02,0.31,0.04,0.46,0.07c0,0,0,0,0,0c6.16,0.89,12.17,1.83,18.09,2.84l4.19-24.65
		C673.96,138.61,663.65,137.08,653.15,135.72L653.15,135.72z M709.68,111.75l-17.95,17.4l20.88,21.54l1.07-1.04l-4.62,21
		c0,0,0,0,0,0c0.07,0.02,0.14,0.03,0.21,0.05c0.01,0,0.02,0.01,0.03,0.01c0.07,0.02,0.14,0.03,0.21,0.05c0.01,0,0.02,0,0.03,0.01
		c0.07,0.02,0.14,0.03,0.22,0.05c0.01,0,0.01,0,0.02,0c9.86,2.18,19.31,4.56,28.38,7.12l0.2-0.7l1.01,1.04
		c8.1,2.32,15.88,4.79,23.34,7.42l7.02-6.81l-3.02,8.25c1.6,0.59,3.19,1.18,4.76,1.78c0,0,0,0,0,0c0.04,0.01,0.07,0.03,0.1,0.04
		c0.01,0,0.01,0,0.02,0.01c0.03,0.01,0.06,0.02,0.09,0.03c0.01,0,0.02,0.01,0.03,0.01c0.03,0.01,0.06,0.02,0.08,0.03
		c0.01,0,0.01,0.01,0.02,0.01c0.03,0.01,0.06,0.02,0.09,0.03c0.01,0,0.02,0.01,0.03,0.01c0.03,0.01,0.05,0.02,0.08,0.03
		c0.01,0.01,0.03,0.01,0.04,0.02c0.02,0.01,0.04,0.02,0.06,0.02c0.02,0.01,0.04,0.01,0.05,0.02c0.02,0.01,0.04,0.01,0.05,0.02
		c0.02,0.01,0.04,0.01,0.06,0.02c0.02,0.01,0.03,0.01,0.05,0.02c0.02,0.01,0.04,0.02,0.06,0.02c0.02,0.01,0.03,0.01,0.05,0.02
		c0.02,0.01,0.04,0.02,0.06,0.02c0.01,0.01,0.03,0.01,0.04,0.02c0.02,0.01,0.04,0.02,0.06,0.02c0.01,0.01,0.03,0.01,0.05,0.02
		c0.02,0.01,0.04,0.01,0.05,0.02c0.02,0.01,0.03,0.01,0.06,0.02c0.02,0.01,0.03,0.01,0.05,0.02c0.02,0.01,0.04,0.01,0.06,0.02
		c0.02,0.01,0.03,0.01,0.05,0.02c0.02,0.01,0.04,0.01,0.05,0.02c0.02,0.01,0.03,0.01,0.05,0.02c0.02,0.01,0.04,0.01,0.06,0.02
		c0.02,0.01,0.03,0.01,0.05,0.02c0.02,0.01,0.04,0.02,0.06,0.02c0.02,0.01,0.03,0.01,0.05,0.02c0.02,0.01,0.04,0.01,0.06,0.02
		c0.02,0.01,0.04,0.01,0.06,0.02c0.02,0.01,0.03,0.01,0.05,0.02c0.02,0.01,0.04,0.01,0.06,0.02c0.02,0.01,0.04,0.01,0.05,0.02
		c0.02,0.01,0.03,0.01,0.05,0.02c0.02,0.01,0.04,0.01,0.05,0.02c0.02,0.01,0.04,0.01,0.06,0.02c0.02,0.01,0.03,0.01,0.05,0.02
		c0.02,0.01,0.04,0.02,0.06,0.03c0.01,0.01,0.03,0.01,0.04,0.02c0.02,0.01,0.04,0.02,0.07,0.03c0.01,0.01,0.03,0.01,0.04,0.02
		c0.02,0.01,0.04,0.02,0.07,0.03c0.01,0.01,0.03,0.01,0.04,0.02c0.02,0.01,0.05,0.02,0.07,0.03c0.01,0.01,0.02,0.01,0.03,0.01
		c0.02,0.01,0.05,0.02,0.07,0.03c0.01,0,0.02,0.01,0.03,0.01c0.03,0.01,0.05,0.02,0.08,0.03c0.01,0.01,0.02,0.01,0.03,0.01
		c0.02,0.01,0.05,0.02,0.07,0.03c0.01,0.01,0.03,0.01,0.04,0.02c0.02,0.01,0.04,0.02,0.06,0.02c0.01,0.01,0.03,0.01,0.04,0.02
		c0.02,0.01,0.04,0.02,0.07,0.03c0.01,0.01,0.02,0.01,0.03,0.01c0.03,0.01,0.05,0.02,0.08,0.03c0.01,0,0.02,0.01,0.03,0.01
		c0.02,0.01,0.05,0.02,0.07,0.03c0.01,0.01,0.02,0.01,0.04,0.01c0.02,0.01,0.05,0.02,0.07,0.03c0.01,0,0.02,0.01,0.03,0.01
		c0.03,0.01,0.05,0.02,0.08,0.03c0,0,0.01,0,0.01,0.01c0.03,0.01,0.06,0.02,0.09,0.04c0.01,0,0.01,0.01,0.02,0.01
		c0.03,0.01,0.06,0.02,0.08,0.03c0,0,0.01,0.01,0.02,0.01c0.31,0.12,0.61,0.24,0.92,0.37c0,0,0.01,0.01,0.02,0.01
		c0.03,0.01,0.05,0.02,0.08,0.03c0.01,0,0.02,0.01,0.03,0.01c0.02,0.01,0.05,0.02,0.07,0.03c0.01,0,0.03,0.01,0.04,0.01
		c0.02,0.01,0.05,0.02,0.07,0.03c0.01,0,0.02,0.01,0.03,0.01c0.02,0.01,0.05,0.02,0.07,0.03c0.01,0.01,0.03,0.01,0.04,0.02
		c0.02,0.01,0.04,0.02,0.07,0.03c0.01,0.01,0.02,0.01,0.04,0.02c0.02,0.01,0.05,0.02,0.07,0.03c0.01,0.01,0.02,0.01,0.04,0.01
		c0.02,0.01,0.04,0.02,0.06,0.03c0.01,0.01,0.03,0.01,0.04,0.02c0.02,0.01,0.04,0.02,0.06,0.02c0.02,0.01,0.03,0.01,0.05,0.02
		c0.02,0.01,0.04,0.01,0.05,0.02c0.02,0.01,0.04,0.01,0.05,0.02c0.02,0.01,0.03,0.01,0.05,0.02c0.02,0.01,0.04,0.02,0.06,0.02
		c0.02,0.01,0.03,0.01,0.05,0.02c0.02,0.01,0.04,0.02,0.06,0.02c0.02,0.01,0.03,0.01,0.05,0.02c0.02,0.01,0.04,0.02,0.05,0.02
		c0.02,0.01,0.04,0.01,0.05,0.02c0.02,0.01,0.03,0.01,0.05,0.02c0.02,0.01,0.03,0.01,0.05,0.02c0.02,0.01,0.04,0.02,0.06,0.02
		c0.01,0.01,0.03,0.01,0.04,0.02c0.02,0.01,0.04,0.02,0.06,0.03c0.01,0.01,0.03,0.01,0.04,0.02c0.02,0.01,0.04,0.02,0.06,0.02
		c0.02,0.01,0.03,0.01,0.05,0.02c0.02,0.01,0.05,0.02,0.06,0.03c0.01,0.01,0.03,0.01,0.04,0.02c0.03,0.01,0.04,0.02,0.07,0.03
		c0.01,0.01,0.02,0.01,0.04,0.01c0.03,0.01,0.04,0.02,0.07,0.03c0.01,0.01,0.02,0.01,0.04,0.01c0.02,0.01,0.05,0.02,0.07,0.03
		c0.01,0.01,0.03,0.01,0.04,0.02c0.02,0.01,0.05,0.02,0.07,0.03c0.01,0,0.02,0.01,0.03,0.01c0.02,0.01,0.05,0.02,0.08,0.03
		c0.01,0,0.02,0.01,0.03,0.01c0.03,0.01,0.05,0.02,0.07,0.03c0.01,0,0.02,0.01,0.03,0.01c0.03,0.01,0.05,0.02,0.08,0.03
		c0.01,0,0.02,0.01,0.03,0.01c0.03,0.01,0.06,0.02,0.08,0.03c0.01,0,0.01,0.01,0.02,0.01c0.03,0.01,0.06,0.02,0.08,0.03
		c0.01,0,0.02,0.01,0.02,0.01c0.03,0.01,0.05,0.02,0.08,0.03c0.01,0,0.02,0.01,0.02,0.01c0.03,0.01,0.06,0.02,0.09,0.04
		c0.01,0,0.01,0,0.02,0.01c0.03,0.01,0.06,0.03,0.09,0.04c0,0,0.01,0,0.01,0c4.95,2.04,9.73,4.16,14.36,6.37l0,0l-22.6-23.31v0
		c-4.46-4.61-19.66-20.28-19.66-20.28l-9.3,9.01l2.82-9.96c-9.01-2.55-18.51-4.95-28.28-7.14l13.88-13.45L709.68,111.75
		L709.68,111.75z M667.92,68.67l-17.95,17.4l20.88,21.54l17.95-17.4L667.92,68.67L667.92,68.67z M626.16,25.59l-17.95,17.4
		l20.88,21.54l17.95-17.4l-5.95-6.14c-0.01-0.01-0.02-0.02-0.03-0.03l-0.02-0.02c-0.01-0.01-0.01-0.01-0.02-0.02l-0.05-0.05
		c0,0,0,0-0.01-0.01l-0.09-0.1C634.72,34.41,626.16,25.59,626.16,25.59L626.16,25.59z"/>
</g>
</svg>
