<?xml version="1.0" encoding="utf-8"?>
<!-- Generator: Adobe Illustrator 26.1.0, SVG Export Plug-In . SVG Version: 6.00 Build 0)  -->
<svg version="1.1" id="レイヤー_1" xmlns="http://www.w3.org/2000/svg" xmlns:xlink="http://www.w3.org/1999/xlink" x="0px"
	 y="0px" viewBox="0 0 793.7 198.4" style="enable-background:new 0 0 793.7 198.4;" xml:space="preserve">
<style type="text/css">
	.st0{fill:#00CB4F;}
</style>
<g>
	<path class="st0" d="M585.2,30c-1.8,0-3.5,0.1-5.3,0.3l0,0c0,0-0.4,0-1,0.1h0c-0.1,0-0.2,0-0.2,0l0,0c-0.1,0-0.1,0-0.2,0h0
		c0,0,0,0,0,0h0c0,0,0,0,0,0l0,0c0,0,0,0,0,0h0c-0.1,0-0.2,0-0.3,0h0c0,0-0.1,0-0.2,0h0c0,0,0,0-0.1,0h0c0,0,0,0-0.1,0h0
		c0,0-0.1,0-0.2,0h0c-0.1,0-0.1,0-0.2,0h0c0,0-0.1,0-0.2,0h0c-0.1,0-0.1,0-0.2,0l-0.2,0c0,0,0,0,0,0h0c-0.1,0-0.1,0-0.2,0h0
		c0,0,0,0-0.1,0h0c0,0,0,0,0,0h0c0,0,0,0,0,0l-0.8,0.1h0l-20.2,2l2.5,24.9l24.6-2.4c0.9-0.1,1.9-0.1,2.8-0.1L585.2,30L585.2,30z
		 M525.5,35.7l-17.8,1.8h0h0c-6.4,0.6-12,1.2-12,1.2l2.5,24.9l29.8-3L525.5,35.7L525.5,35.7z M465.7,41.6l-29.9,3l2.5,24.9l29.9-3
		L465.7,41.6L465.7,41.6z M406,47.5c0,0-9.4,0.9-17.7,1.8h0c0,0,0,0-0.1,0h0c0,0,0,0-0.1,0h0c0,0-0.1,0-0.1,0h0c0,0,0,0-0.1,0h0
		c0,0,0,0-0.1,0h0c0,0,0,0-0.1,0l-0.2,0c0,0,0,0,0,0l-11.3,1.1l2.5,24.9l29.9-3L406,47.5L406,47.5z M346.3,53.4l-22.6,2.2h0h0
		c0,0,0,0,0,0h0c0,0,0,0-0.1,0h0c0,0-0.1,0-0.1,0h0c-4,0.4-6.9,0.7-6.9,0.7l2.5,24.9l29.9-3L346.3,53.4L346.3,53.4z M286.6,59.3
		l-7.7,0.8c0,0,0,0,0,0h0c0,0,0,0,0,0h0c0,0,0,0,0,0h0c0,0,0,0-0.1,0h0c0,0-0.1,0-0.1,0h0c-8.8,0.9-21.7,2.2-21.7,2.2l2.5,24.9
		l29.9-3L286.6,59.3L286.6,59.3z M226.9,65.3c0,0-4.5,0.4-10.1,1l0,0c0,0,0,0,0,0h0c0,0,0,0,0,0h0c-0.1,0-0.2,0-0.3,0h0
		c0,0,0,0-0.1,0h0c0,0,0,0,0,0h0h0h0c0,0,0,0,0,0l-0.1,0l0,0l-19.1,1.9l2.5,24.9l29.9-3L226.9,65.3L226.9,65.3z M167.2,71.2l-29.9,3
		l2.5,24.9l29.9-3L167.2,71.2L167.2,71.2z M107.5,77.1l-12.9,1.3c0,0,0,0,0,0h0c0,0,0,0,0,0h0c0,0-0.1,0-0.1,0l0,0c0,0,0,0-0.1,0h0
		c-8,0.8-16.7,1.7-16.7,1.7l2.5,24.9l29.8-3L107.5,77.1L107.5,77.1z M47.8,83c0,0-1,0.1-2.8,0.3h0c-0.1,0-0.1,0-0.2,0l0,0
		c-0.1,0-0.1,0-0.2,0h0c0,0-0.1,0-0.1,0l0,0c0,0-0.1,0-0.1,0h0c0,0-0.1,0-0.1,0h0c0,0,0,0,0,0l-0.2,0l0,0l-26.1,2.6l1.5,15.2H1.6v30
		h25v-20.9l23.6-2.3L47.8,83L47.8,83z M26.6,161.2h-25c0,0,0,0.2,0,0.7l0,0V187l0,0l0,0l0,0l0,0l0,0l0,0l0,0l25-2.5V161.2
		L26.6,161.2z M63,155.8l-29.8,3l2.5,24.9l10.2-1l0,0h0h0h0c0,0,0,0,0.1,0l0,0c0,0,0,0,0,0l0,0c0,0,0,0,0,0h0
		c8.6-0.9,19.4-1.9,19.4-1.9L63,155.8L63,155.8z M122.7,149.9l-29.8,3l2.5,24.9c0,0,1.6-0.2,4.2-0.4l0,0c0.1,0,0.2,0,0.2,0h0h0h0
		c0,0,0,0,0,0h0c0,0,0,0,0,0l25.3-2.5L122.7,149.9L122.7,149.9z M182.4,144l-29.9,3l2.5,24.9c0,0,13.2-1.3,22-2.2l0,0
		c0.1,0,0.1,0,0.1,0h0c0,0,0.1,0,0.1,0l0,0c0,0,0,0,0,0l7.6-0.8L182.4,144L182.4,144z M242.1,138.1l-29.9,3l2.5,24.9l20.6-2
		c0,0,0,0,0,0l0,0c5.1-0.5,9.2-0.9,9.2-0.9L242.1,138.1L242.1,138.1z M301.8,132.1l-29.9,3l2.5,24.9l7-0.7h0h0
		c8.8-0.9,22.9-2.3,22.9-2.3L301.8,132.1L301.8,132.1z M361.5,126.2l-29.9,3l2.5,24.9c0,0,1.4-0.1,3.6-0.4h0c0,0,0,0,0,0h0
		c0,0,0,0,0,0h0c0,0,0,0,0,0h0c0,0,0,0,0,0l0.1,0c0,0,0,0,0,0h0h0h0c0,0,0,0,0,0h0c0,0,0,0,0,0h0h0l0.1,0l0,0l25.6-2.5L361.5,126.2
		L361.5,126.2z M421.2,120.3l-29.9,3l2.5,24.9c0,0,22.5-2.2,28.4-2.8l0,0c0,0,0,0,0.1,0h0c0,0,0,0,0,0l0.1,0h0l0,0h0h0c0,0,0,0,0,0
		h0h0h0c0,0,0,0,0.1,0l0,0c0,0,0,0,0,0l0,0h0h0c0,0,0,0,0,0h0c0,0,0,0,0,0h0c0,0,0,0,0,0l0,0c0,0,0,0,0.1,0h0h0l0,0c0,0,0,0,0,0h0
		c0,0,0,0,0,0l0,0h0h0l0,0h0l0,0h0l0,0h0l0,0h0c0,0,0,0,0,0l0.1,0l0,0h0l0,0h0l0,0l0.1,0l0,0l0.3,0l0,0l0.2,0L421.2,120.3
		L421.2,120.3z M481,114.4l-29.9,3l2.5,24.9l16.8-1.7c0,0,0,0,0,0l0.1,0h0l0.1,0h0h0c6.7-0.7,12.8-1.3,12.8-1.3L481,114.4L481,114.4
		z M540.7,108.5l-29.9,3l2.5,24.9l29.8-3L540.7,108.5L540.7,108.5z M600.4,102.6l-29.8,3l2.5,24.9c0,0,4.2-0.4,9.4-0.9h0
		c0.2,0,0.4,0,0.6-0.1h0c0,0,0,0,0,0h0h0h0h0h0c0,0,0,0,0,0h0c0,0,0,0,0.1,0h0c0,0,0.1,0,0.2,0h0c0,0,0,0,0.1,0h0c0,0,0,0,0,0h0l0,0
		h0h0l19.2-1.9L600.4,102.6L600.4,102.6z M639.6,114.2l-8.6,23.5l8.6,3.1l0,0l0.1,0c8.3,3,19.5,7.1,19.5,7.1l8.6-23.5L639.6,114.2
		L639.6,114.2z M751,158.8l-7.3,19.9c0,0,1.1,0.4,2.9,1.1l0.1,0h0l0,0c0,0,0,0,0.1,0l0,0c0,0,0,0,0,0l0.1,0h0l41.6,15.2l1.5-1.7
		L751,158.8L751,158.8z M722.8,133.8l-7.1,8.1l-19.7-7.2l-8.6,23.5l6.1,2.2h0l0,0c0,0,0.1,0,0.1,0h0c8.3,3,21.9,8,21.9,8l2.1-5.8
		l11,9.7l16.6-18.7c0,0-17.2-15.2-21.5-19l-0.1-0.1c0,0,0,0,0,0L722.8,133.8L722.8,133.8z M677.8,94.1l-16.6,18.7l22.5,19.9
		l16.6-18.7c0,0-8.8-7.8-15.3-13.6l0,0c-0.2-0.1-0.3-0.3-0.5-0.4l-0.1-0.1c0,0,0,0,0,0l0,0c0,0,0,0,0,0l0,0c0,0,0,0,0,0L677.8,94.1
		L677.8,94.1z M632.9,54.3l-16.6,18.7l22.5,19.9l16.6-18.7l-11.1-9.8C638.6,59.4,632.9,54.3,632.9,54.3L632.9,54.3z M585.2,30
		L585.2,30v25l0,0c4.4,0,8.9,1.1,12.8,3.1l11.3-22.3c-2.1-1.1-4.3-2-6.6-2.8l0,0c0,0-0.1,0-0.1,0c0,0,0,0,0,0c0,0-0.1,0-0.1,0l0,0
		c0,0,0,0,0,0c0,0,0,0,0,0c0,0,0,0-0.1,0c0,0,0,0,0,0c0,0,0,0,0,0c0,0,0,0,0,0c0,0,0,0-0.1,0c0,0,0,0,0,0s0,0,0,0s0,0,0,0
		c0,0,0,0,0,0c0,0,0,0,0,0s0,0,0,0s0,0,0,0c0,0,0,0,0,0c0,0,0,0,0,0s0,0,0,0c0,0,0,0,0,0c0,0,0,0,0,0s0,0,0,0s0,0,0,0c0,0,0,0,0,0
		c0,0,0,0,0,0s0,0,0,0c0,0,0,0,0,0c0,0,0,0-0.1,0c0,0,0,0,0,0c0,0,0,0,0,0c0,0,0,0,0,0c0,0,0,0-0.1,0c0,0,0,0,0,0c0,0,0,0-0.1,0l0,0
		c0,0,0,0-0.1,0c0,0,0,0,0,0c0,0-0.1,0-0.1,0h0c0,0,0,0-0.1,0l0,0c0,0,0,0-0.1,0c0,0,0,0,0,0c0,0-0.1,0-0.1,0l0,0
		c-4.4-1.4-8.9-2.1-13.5-2.3l0,0c0,0-0.1,0-0.2,0l0,0c0,0-0.1,0-0.2,0c0,0,0,0,0,0c0,0,0,0-0.1,0l0,0c0,0,0,0-0.1,0l0,0
		c0,0,0,0-0.1,0l0,0c0,0-0.1,0-0.2,0l0,0c0,0-0.1,0-0.2,0h0c0,0-0.1,0-0.1,0h0c0,0-0.1,0-0.1,0h0c0,0-0.1,0-0.1,0h0c0,0,0,0-0.1,0
		l0,0c0,0,0,0-0.1,0h0c0,0,0,0-0.1,0h0c0,0,0,0-0.1,0h0c0,0,0,0-0.1,0h0c0,0,0,0-0.1,0h0c0,0,0,0-0.1,0h0c0,0,0,0-0.1,0h0
		c0,0,0,0-0.1,0c0,0,0,0,0,0c0,0,0,0-0.1,0c0,0,0,0,0,0C585.3,30,585.3,30,585.2,30C585.2,30,585.2,30,585.2,30
		C585.2,30,585.2,30,585.2,30L585.2,30z"/>
</g>
</svg>
