<?xml version="1.0" encoding="utf-8"?>
<!-- Generator: Adobe Illustrator 26.1.0, SVG Export Plug-In . SVG Version: 6.00 Build 0)  -->
<svg version="1.1" id="レイヤー_1" xmlns="http://www.w3.org/2000/svg" xmlns:xlink="http://www.w3.org/1999/xlink" x="0px"
	 y="0px" viewBox="0 0 793.7 198.43" style="enable-background:new 0 0 793.7 198.43;" xml:space="preserve">
<g>
	<path d="M585.17,30.03c-1.75,0-3.51,0.09-5.26,0.26l0,0c0,0-0.38,0.04-1.05,0.1l-0.02,0c-0.08,0.01-0.16,0.02-0.25,0.03l0,0
		c-0.06,0.01-0.11,0.01-0.17,0.02l-0.01,0c-0.01,0-0.02,0-0.03,0l-0.01,0c-0.01,0-0.02,0-0.03,0l0,0c-0.01,0-0.02,0-0.02,0l-0.02,0
		c-0.1,0.01-0.2,0.02-0.3,0.03l-0.01,0c-0.05,0.01-0.1,0.01-0.16,0.02l-0.02,0c-0.02,0-0.04,0-0.06,0.01l-0.02,0
		c-0.02,0-0.04,0-0.06,0.01l-0.03,0c-0.05,0.01-0.1,0.01-0.16,0.02l-0.01,0c-0.06,0.01-0.11,0.01-0.17,0.02l-0.02,0
		c-0.05,0.01-0.11,0.01-0.16,0.02l-0.03,0c-0.06,0.01-0.12,0.01-0.17,0.02l-0.17,0.02c-0.01,0-0.02,0-0.03,0l-0.02,0
		c-0.06,0.01-0.11,0.01-0.17,0.02l-0.04,0c-0.02,0-0.04,0-0.07,0.01l-0.04,0c-0.01,0-0.02,0-0.03,0l-0.02,0c-0.01,0-0.02,0-0.03,0
		l-0.81,0.08c0,0-0.01,0-0.01,0l-20.17,2l2.46,24.88l24.61-2.44c0.93-0.09,1.87-0.14,2.8-0.14L585.17,30.03L585.17,30.03z
		 M525.45,35.69l-17.75,1.76c0,0-0.01,0-0.01,0l-0.04,0c-6.39,0.63-12.05,1.19-12.05,1.19l2.46,24.88l29.85-2.96L525.45,35.69
		L525.45,35.69z M465.74,41.61l-29.85,2.96l2.46,24.88l29.85-2.96L465.74,41.61L465.74,41.61z M406.03,47.52
		c0,0-9.44,0.94-17.7,1.75l-0.02,0c-0.02,0-0.05,0-0.07,0.01l-0.01,0c-0.03,0-0.05,0.01-0.08,0.01l-0.01,0
		c-0.05,0-0.1,0.01-0.15,0.01l-0.03,0c-0.02,0-0.04,0-0.06,0.01l-0.02,0c-0.02,0-0.05,0-0.07,0.01l-0.02,0c-0.02,0-0.04,0-0.07,0.01
		l-0.24,0.02c0,0,0,0-0.01,0l-11.31,1.12l2.46,24.88l29.85-2.96L406.03,47.52L406.03,47.52z M346.32,53.44l-22.6,2.24
		c0,0-0.01,0-0.01,0l-0.03,0c-0.02,0-0.03,0-0.05,0.01l-0.02,0c-0.02,0-0.04,0-0.06,0.01l-0.02,0c-0.04,0-0.09,0.01-0.13,0.01
		l-0.02,0c-4.01,0.4-6.92,0.69-6.92,0.69l2.46,24.88l29.85-2.96L346.32,53.44L346.32,53.44z M286.62,59.35l-7.73,0.77
		c-0.01,0-0.02,0-0.03,0l-0.02,0c-0.02,0-0.04,0-0.05,0.01l-0.03,0c-0.02,0-0.04,0-0.05,0.01l-0.02,0c-0.02,0-0.04,0-0.06,0.01
		l-0.01,0c-0.05,0-0.09,0.01-0.14,0.01l-0.02,0c-8.84,0.88-21.69,2.15-21.69,2.15l2.46,24.88l29.85-2.96L286.62,59.35L286.62,59.35z
		 M226.91,65.27c0,0-4.53,0.45-10.06,1l0,0c-0.01,0-0.02,0-0.03,0l-0.02,0c-0.01,0-0.02,0-0.03,0l-0.01,0
		c-0.09,0.01-0.18,0.02-0.28,0.03l-0.02,0c-0.02,0-0.04,0-0.07,0.01l-0.01,0c-0.01,0-0.02,0-0.03,0l-0.01,0c0,0-0.01,0-0.01,0
		l-0.03,0c-0.01,0-0.01,0-0.02,0l-0.07,0.01c0,0,0,0,0,0l-19.14,1.9l2.46,24.88l29.85-2.96L226.91,65.27L226.91,65.27z M167.2,71.18
		l-29.85,2.96l2.46,24.88l29.85-2.96L167.2,71.18L167.2,71.18z M107.49,77.1l-12.94,1.28c-0.01,0-0.01,0-0.02,0l-0.02,0
		c-0.01,0-0.01,0-0.02,0l-0.02,0c-0.03,0-0.05,0-0.08,0.01l0,0c-0.02,0-0.04,0-0.07,0.01l-0.03,0c-8,0.79-16.66,1.65-16.66,1.65
		l2.46,24.88l29.85-2.96L107.49,77.1L107.49,77.1z M47.78,83.01c0,0-1.05,0.1-2.75,0.27l-0.02,0c-0.07,0.01-0.14,0.01-0.21,0.02l0,0
		c-0.07,0.01-0.14,0.01-0.21,0.02l-0.02,0c-0.03,0-0.07,0.01-0.1,0.01l0,0c-0.03,0-0.07,0.01-0.1,0.01l-0.02,0
		c-0.03,0-0.06,0.01-0.09,0.01l-0.03,0c0,0,0,0-0.01,0l-0.2,0.02c0,0,0,0,0,0l-26.09,2.58l1.51,15.21H1.6v30h25v-20.95l23.65-2.34
		L47.78,83.01L47.78,83.01z M26.6,161.18h-25c0,0,0,0.25,0,0.71l0,0v25.12l0,0l0,0l0,0l0,0l0,0l0,0l0,0l25-2.48V161.18L26.6,161.18z
		 M63,155.8l-29.85,2.96l2.46,24.88l10.21-1.01c0,0,0,0,0,0l0.03,0c0,0,0.01,0,0.01,0l0.03,0c0.02,0,0.05,0,0.07-0.01l0,0
		c0.01,0,0.03,0,0.04,0l0,0c0.01,0,0.02,0,0.04,0l0.01,0c8.61-0.85,19.41-1.92,19.41-1.92L63,155.8L63,155.8z M122.71,149.89
		l-29.85,2.96l2.46,24.88c0,0,1.64-0.16,4.15-0.41l0,0c0.08-0.01,0.15-0.01,0.23-0.02l0.04,0c0,0,0.01,0,0.01,0l0.02,0
		c0.01,0,0.01,0,0.02,0l0.02,0c0.01,0,0.03,0,0.04,0l25.33-2.51L122.71,149.89L122.71,149.89z M182.41,143.97l-29.85,2.96
		l2.46,24.88c0,0,13.16-1.3,22.01-2.18l0,0c0.05,0,0.1-0.01,0.15-0.01l0.01,0c0.02,0,0.05,0,0.07-0.01h0c0.01,0,0.01,0,0.02,0
		l7.59-0.75L182.41,143.97L182.41,143.97z M242.12,138.06l-29.85,2.96l2.46,24.88l20.61-2.04c0.01,0,0.03,0,0.04,0h0
		c5.13-0.51,9.2-0.91,9.2-0.91L242.12,138.06L242.12,138.06z M301.83,132.14l-29.85,2.96l2.46,24.88l6.98-0.69c0,0,0.01,0,0.01,0
		l0.02,0c8.82-0.87,22.85-2.26,22.85-2.26L301.83,132.14L301.83,132.14z M361.54,126.23l-29.85,2.96l2.46,24.88
		c0,0,1.4-0.14,3.59-0.36l0.01,0c0.01,0,0.03,0,0.04,0l0.02,0c0.02,0,0.03,0,0.05,0l0.01,0c0.02,0,0.04,0,0.05-0.01l0.02,0
		c0.01,0,0.03,0,0.04,0l0.1-0.01c0.01,0,0.01,0,0.02,0l0.02,0c0,0,0.01,0,0.01,0l0.01,0c0.01,0,0.01,0,0.02,0l0.03,0
		c0.01,0,0.02,0,0.02,0l0.03,0c0,0,0.01,0,0.01,0l0.09-0.01c0,0,0,0,0,0l25.65-2.54L361.54,126.23L361.54,126.23z M421.25,120.31
		l-29.85,2.96l2.46,24.88c0,0,22.45-2.22,28.41-2.81l0,0c0.03,0,0.05-0.01,0.08-0.01l0.01,0c0.02,0,0.04,0,0.05-0.01l0.1-0.01
		c0,0,0.01,0,0.01,0l0,0c0,0,0.01,0,0.01,0l0.01,0c0,0,0,0,0.01,0l0.01,0c0,0,0.01,0,0.01,0l0.01,0c0.02,0,0.04,0,0.07-0.01l0,0
		c0.01,0,0.02,0,0.03,0l0,0c0,0,0.01,0,0.01,0l0.01,0c0,0,0,0,0.01,0l0.01,0c0,0,0,0,0.01,0l0.01,0c0.02,0,0.03,0,0.05,0l0,0
		c0.02,0,0.04,0,0.06-0.01l0.01,0c0,0,0.01,0,0.01,0l0,0c0.01,0,0.03,0,0.04,0l0.01,0c0.01,0,0.02,0,0.03,0l0,0c0,0,0.01,0,0.01,0
		l0.01,0c0,0,0,0,0,0l0.03,0c0,0,0,0,0,0l0.01,0c0,0,0,0,0,0l0.01,0c0,0,0,0,0,0l0.02,0c0,0,0,0,0.01,0l0.07-0.01c0,0,0,0,0,0
		l0.01,0c0,0,0,0,0,0l0.03,0l0,0l0.06-0.01l0,0l0.32-0.03l0,0l0.17-0.02L421.25,120.31L421.25,120.31z M480.95,114.4l-29.85,2.96
		l2.46,24.88l16.78-1.66c0,0,0,0,0.01,0l0.12-0.01c0,0,0.01,0,0.01,0l0.12-0.01c0,0,0.01,0,0.01,0l0.02,0
		c6.69-0.66,12.79-1.27,12.79-1.27L480.95,114.4L480.95,114.4z M540.66,108.48l-29.85,2.96l2.46,24.88l29.85-2.96L540.66,108.48
		L540.66,108.48z M600.37,102.57l-29.85,2.96l2.46,24.88c0,0,4.2-0.42,9.44-0.94l0.01,0c0.19-0.02,0.38-0.04,0.57-0.06l0.01,0
		c0.01,0,0.02,0,0.03,0l0.02,0c0,0,0.01,0,0.01,0l0.03,0c0,0,0.01,0,0.01,0l0.03,0c0.01,0,0.01,0,0.02,0l0.01,0
		c0.03,0,0.05,0,0.07-0.01l0.01,0c0.05-0.01,0.1-0.01,0.15-0.02l0.03,0c0.02,0,0.04,0,0.06-0.01l0.02,0c0.01,0,0.02,0,0.02,0l0.03,0
		c0,0,0,0,0,0l0.04,0c0,0,0.01,0,0.01,0l19.22-1.9L600.37,102.57L600.37,102.57z M639.6,114.15l-8.58,23.48l8.57,3.13l0,0l0.1,0.04
		c8.28,3.02,19.51,7.12,19.51,7.12l8.58-23.48L639.6,114.15L639.6,114.15z M751.03,158.84l-7.28,19.95c0,0,1.12,0.41,2.9,1.06
		l0.08,0.03c0,0,0.01,0,0.01,0l0.04,0.01c0.03,0.01,0.05,0.02,0.08,0.03l0.04,0.01c0,0,0,0,0.01,0l0.1,0.04c0,0,0.01,0,0.01,0
		l41.62,15.2l1.53-1.73L751.03,158.84L751.03,158.84z M722.75,133.83l-7.14,8.07l-19.65-7.18l-8.58,23.48l6.07,2.22
		c0,0,0.01,0,0.01,0l0.05,0.02c0.04,0.01,0.07,0.03,0.11,0.04l0.01,0c8.3,3.03,21.92,8,21.92,8l2.11-5.78l10.98,9.71l16.56-18.73
		c0,0-17.21-15.22-21.51-19.02l-0.07-0.06c-0.01-0.01-0.02-0.01-0.02-0.02L722.75,133.83L722.75,133.83z M677.8,94.08l-16.56,18.73
		l22.47,19.87l16.56-18.73c0,0-8.77-7.76-15.35-13.58l-0.03-0.03c-0.15-0.13-0.3-0.27-0.45-0.4l-0.09-0.08
		c-0.01-0.01-0.02-0.01-0.02-0.02l-0.04-0.04c-0.01-0.01-0.02-0.01-0.02-0.02l-0.04-0.03c0,0,0,0-0.01-0.01L677.8,94.08L677.8,94.08
		z M632.86,54.34l-16.56,18.73l22.47,19.87l16.56-18.73l-11.06-9.78C638.59,59.41,632.86,54.34,632.86,54.34L632.86,54.34z
		 M585.17,30.03C585.17,30.03,585.17,30.03,585.17,30.03l0,25c0,0,0,0,0,0c4.44,0,8.89,1.07,12.85,3.08l11.34-22.28
		c-2.13-1.08-4.32-2.02-6.57-2.8l0,0c-0.04-0.02-0.09-0.03-0.13-0.05c0,0,0,0-0.01,0c-0.03-0.01-0.06-0.02-0.08-0.03c0,0,0,0,0,0
		c-0.01,0-0.03-0.01-0.04-0.01c-0.01,0-0.01,0-0.02-0.01c-0.02-0.01-0.05-0.02-0.07-0.02c-0.01,0-0.01,0-0.02-0.01
		c-0.01,0-0.02-0.01-0.04-0.01c-0.01,0-0.01,0-0.02-0.01c-0.02-0.01-0.04-0.01-0.06-0.02c-0.01,0-0.01-0.01-0.02-0.01
		c-0.01,0-0.02-0.01-0.03-0.01c-0.01,0-0.02-0.01-0.03-0.01c-0.02-0.01-0.03-0.01-0.05-0.02c-0.01,0-0.02-0.01-0.03-0.01
		c-0.01,0-0.02-0.01-0.03-0.01c-0.01,0-0.02-0.01-0.04-0.01c-0.02-0.01-0.03-0.01-0.04-0.01c-0.01,0-0.02-0.01-0.03-0.01
		c-0.01,0-0.02-0.01-0.03-0.01c-0.02-0.01-0.03-0.01-0.05-0.02c-0.01,0-0.02-0.01-0.03-0.01c-0.01,0-0.02-0.01-0.03-0.01
		c-0.01,0-0.02-0.01-0.03-0.01c-0.02-0.01-0.04-0.01-0.05-0.02c-0.01,0-0.02-0.01-0.03-0.01c-0.01,0-0.02-0.01-0.04-0.01
		c-0.01,0-0.02-0.01-0.02-0.01c-0.02-0.01-0.04-0.01-0.06-0.02c-0.01,0-0.01,0-0.02-0.01c-0.02-0.01-0.03-0.01-0.05-0.02
		c-0.01,0-0.01,0-0.02-0.01c-0.02-0.01-0.04-0.01-0.06-0.02c-0.01,0-0.01,0-0.02-0.01c-0.02-0.01-0.04-0.01-0.06-0.02c0,0,0,0,0,0
		c-0.02-0.01-0.04-0.01-0.06-0.02c-0.01,0-0.01,0-0.02-0.01c-0.04-0.01-0.08-0.03-0.13-0.04c0,0-0.01,0-0.01,0
		c-0.02-0.01-0.04-0.01-0.06-0.02c0,0,0,0,0,0c-0.02-0.01-0.05-0.01-0.07-0.02c0,0,0,0-0.01,0c-0.05-0.01-0.09-0.03-0.14-0.04
		c0,0,0,0,0,0c-4.37-1.35-8.92-2.14-13.53-2.33c0,0,0,0,0,0c-0.05,0-0.1,0-0.15-0.01c0,0,0,0,0,0c-0.05,0-0.1,0-0.15-0.01
		c0,0,0,0-0.01,0c-0.02,0-0.05,0-0.07,0c0,0,0,0,0,0c-0.02,0-0.05,0-0.07,0c0,0,0,0,0,0c-0.02,0-0.05,0-0.07,0c0,0,0,0,0,0
		c-0.05,0-0.1,0-0.15,0c0,0,0,0,0,0c-0.05,0-0.1,0-0.15,0c0,0-0.01,0-0.01,0c-0.05,0-0.09,0-0.14,0c0,0-0.01,0-0.01,0
		c-0.05,0-0.09,0-0.14,0c0,0-0.01,0-0.01,0c-0.05,0-0.09,0-0.14,0c0,0-0.01,0-0.01,0c-0.02,0-0.05,0-0.07,0c0,0,0,0,0,0
		c-0.02,0-0.05,0-0.07,0c0,0-0.01,0-0.01,0c-0.02,0-0.05,0-0.07,0c0,0-0.01,0-0.01,0c-0.02,0-0.04,0-0.06,0c0,0-0.01,0-0.01,0
		c-0.02,0-0.04,0-0.07,0c0,0-0.01,0-0.01,0c-0.02,0-0.04,0-0.06,0c0,0-0.01,0-0.01,0c-0.02,0-0.05,0-0.07,0c0,0-0.01,0-0.01,0
		c-0.02,0-0.04,0-0.06,0c0,0-0.01,0-0.01,0c-0.02,0-0.04,0-0.07,0c-0.01,0-0.01,0-0.02,0c-0.02,0-0.04,0-0.06,0c0,0,0,0-0.01,0
		c-0.02,0-0.04,0-0.07,0c-0.01,0-0.01,0-0.02,0C585.22,30.03,585.2,30.03,585.17,30.03L585.17,30.03z"/>
</g>
</svg>
